<?xml version="1.0" encoding="utf-8"?>
<!-- Generator: Adobe Illustrator 22.0.1, SVG Export Plug-In . SVG Version: 6.00 Build 0)  -->
<svg version="1.1" id="Layer_1" xmlns="http://www.w3.org/2000/svg" xmlns:xlink="http://www.w3.org/1999/xlink" x="0px" y="0px"
	 viewBox="0 0 53 10.1" style="enable-background:new 0 0 53 10.1;" xml:space="preserve">
<style type="text/css">
	.st0{fill:#FFFFFF;}
</style>
<title>logo</title>
<g>
	<path d="M193.5-225.1h5.8v16.4c-2.1,1.7-4.5,3-7.3,4c-2.8,0.9-5.7,1.4-8.7,1.4c-4.3,0-8.1-0.9-11.5-2.8c-3.4-1.9-6.1-4.4-8.1-7.7
		c-2-3.3-2.9-6.9-2.9-11s1-7.8,2.9-11c2-3.3,4.7-5.8,8.1-7.7c3.4-1.8,7.3-2.8,11.6-2.8c3.4,0,6.5,0.6,9.2,1.6c2.8,1.1,5.1,2.7,7,4.8
		l-3.7,3.7c-3.4-3.2-7.5-4.9-12.3-4.9c-3.2,0-6.1,0.7-8.7,2.1c-2.6,1.4-4.6,3.3-6,5.8c-1.4,2.5-2.2,5.2-2.2,8.3c0,3,0.7,5.8,2.2,8.3
		c1.5,2.5,3.5,4.4,6,5.8c2.6,1.4,5.4,2.1,8.6,2.1c3.8,0,7.1-0.9,9.9-2.7V-225.1z"/>
	<path d="M235.8-217.8h-26c0.4,2.8,1.6,5.1,3.7,6.8c2.1,1.7,4.7,2.5,7.9,2.5c3.8,0,6.9-1.3,9.2-3.8l3.2,3.7c-1.5,1.7-3.3,3-5.4,3.8
		c-2.2,0.9-4.6,1.3-7.2,1.3c-3.4,0-6.4-0.7-9-2.1c-2.6-1.4-4.6-3.3-6.1-5.8c-1.4-2.5-2.1-5.3-2.1-8.4c0-3.1,0.7-5.9,2.1-8.3
		c1.4-2.5,3.3-4.4,5.7-5.8c2.4-1.4,5.2-2.1,8.2-2.1c3.1,0,5.8,0.7,8.2,2.1c2.4,1.4,4.3,3.3,5.6,5.8c1.3,2.5,2,5.3,2,8.5
		C235.9-219.1,235.9-218.6,235.8-217.8z M213.1-228.6c-1.9,1.7-3,3.9-3.3,6.6h20.5c-0.3-2.7-1.4-4.9-3.3-6.6c-1.9-1.7-4.2-2.6-7-2.6
		S215-230.3,213.1-228.6z"/>
	<path d="M246.7-205.6c-2.5-1.4-4.5-3.3-6-5.8c-1.4-2.5-2.1-5.3-2.1-8.4s0.7-5.9,2.1-8.4c1.4-2.5,3.4-4.4,6-5.8
		c2.5-1.4,5.4-2.1,8.6-2.1c3.2,0,6,0.7,8.5,2.1c2.5,1.4,4.5,3.3,5.9,5.8c1.4,2.5,2.1,5.3,2.1,8.4s-0.7,5.9-2.1,8.4
		c-1.4,2.5-3.4,4.4-5.9,5.8c-2.5,1.4-5.4,2.1-8.5,2.1C252.1-203.5,249.2-204.2,246.7-205.6z"/>
	<path d="M281.3-204.5c-3.1-0.9-5.6-2.1-7.5-3.5l3.3-7.3c1.8,1.3,4,2.4,6.5,3.2c2.5,0.8,5,1.2,7.5,1.2c2.8,0,4.8-0.4,6.2-1.2
		c1.3-0.8,2-1.9,2-3.3c0-1-0.4-1.8-1.2-2.5c-0.8-0.7-1.8-1.2-3-1.6c-1.2-0.4-2.9-0.8-5-1.3c-3.2-0.8-5.9-1.5-7.9-2.3
		c-2.1-0.8-3.8-2-5.3-3.7c-1.5-1.7-2.2-3.9-2.2-6.7c0-2.4,0.7-4.6,2-6.6s3.3-3.5,6-4.7c2.7-1.2,6-1.7,9.8-1.7c2.7,0,5.3,0.3,7.9,1
		c2.6,0.6,4.8,1.6,6.8,2.8l-3,7.4c-3.9-2.2-7.8-3.3-11.7-3.3c-2.7,0-4.8,0.4-6.1,1.3c-1.3,0.9-2,2-2,3.5s0.8,2.5,2.3,3.2
		c1.5,0.7,3.8,1.4,6.9,2.1c3.2,0.8,5.9,1.5,7.9,2.3c2.1,0.8,3.8,2,5.3,3.6c1.5,1.6,2.2,3.9,2.2,6.7c0,2.4-0.7,4.6-2,6.6
		s-3.4,3.6-6.1,4.7c-2.7,1.2-6,1.7-9.8,1.7C287.7-203.1,284.4-203.6,281.3-204.5z"/>
	<path d="M313.6-245.9h9.8v42h-9.8V-245.9z"/>
	<path d="M359.5-225.5h8.9v17c-2.3,1.7-5,3-8,4c-3,0.9-6.1,1.4-9.1,1.4c-4.4,0-8.3-0.9-11.8-2.8c-3.5-1.9-6.3-4.4-8.2-7.7
		c-2-3.3-3-7-3-11.2c0-4.2,1-7.9,3-11.2c2-3.3,4.8-5.9,8.3-7.7c3.5-1.9,7.5-2.8,12-2.8c3.7,0,7.1,0.6,10.1,1.9c3,1.2,5.6,3,7.6,5.4
		l-6.3,5.8c-3-3.2-6.7-4.7-10.9-4.7c-2.7,0-5.1,0.6-7.2,1.7c-2.1,1.1-3.7,2.7-4.9,4.7c-1.2,2-1.8,4.4-1.8,7c0,2.6,0.6,4.9,1.8,7
		c1.2,2,2.8,3.6,4.9,4.8s4.4,1.7,7.1,1.7c2.8,0,5.4-0.6,7.6-1.8V-225.5z"/>
</g>
<text transform="matrix(1.007 0 0 1 -154.6668 -171.3647)"><tspan x="0" y="0" style="font-family:'Montserrat-Medium'; font-size:60px; letter-spacing:-1;">Geo</tspan><tspan x="116.6" y="0" style="font-family:'Montserrat-Bold'; font-size:60px; letter-spacing:-1;">SIG</tspan></text>
<path class="st0" d="M10.1,5h1.3v3.7c-0.5,0.4-1,0.7-1.7,0.9C9.1,9.9,8.5,10,7.8,10c-1,0-1.9-0.2-2.6-0.6c-0.8-0.4-1.4-1-1.8-1.8
	C2.9,6.8,2.6,6,2.6,5s0.2-1.8,0.7-2.5c0.4-0.8,1.1-1.3,1.9-1.8s1.7-0.6,2.7-0.6c0.8,0,1.5,0.1,2.1,0.4c0.6,0.3,1.2,0.6,1.6,1.1
	l-0.9,0.9C9.9,1.7,9,1.4,7.9,1.4c-0.7,0-1.4,0.2-2,0.5c-0.6,0.3-1,0.8-1.4,1.3C4.2,3.7,4,4.3,4,5c0,0.7,0.2,1.3,0.5,1.9
	c0.3,0.6,0.8,1,1.4,1.3c0.6,0.3,1.2,0.5,2,0.5c0.9,0,1.6-0.2,2.3-0.6V5z"/>
<path class="st0" d="M19.8,6.7h-5.9c0.1,0.6,0.4,1.2,0.8,1.5c0.5,0.4,1.1,0.6,1.8,0.6c0.9,0,1.6-0.3,2.1-0.9l0.7,0.9
	c-0.3,0.4-0.7,0.7-1.2,0.9c-0.5,0.2-1,0.3-1.7,0.3c-0.8,0-1.5-0.2-2.1-0.5c-0.6-0.3-1.1-0.8-1.4-1.3c-0.3-0.6-0.5-1.2-0.5-1.9
	c0-0.7,0.2-1.3,0.5-1.9c0.3-0.6,0.8-1,1.3-1.3c0.6-0.3,1.2-0.5,1.9-0.5c0.7,0,1.3,0.2,1.9,0.5c0.5,0.3,1,0.8,1.3,1.3
	c0.3,0.6,0.5,1.2,0.5,1.9C19.8,6.4,19.8,6.5,19.8,6.7z M14.6,4.2c-0.4,0.4-0.7,0.9-0.8,1.5h4.7c-0.1-0.6-0.3-1.1-0.8-1.5
	s-1-0.6-1.6-0.6C15.6,3.6,15.1,3.8,14.6,4.2z"/>
<path class="st0" d="M22.3,9.5c-0.6-0.3-1-0.8-1.4-1.3c-0.3-0.6-0.5-1.2-0.5-1.9s0.2-1.4,0.5-1.9c0.3-0.6,0.8-1,1.4-1.3
	c0.6-0.3,1.2-0.5,2-0.5c0.7,0,1.4,0.2,2,0.5c0.6,0.3,1,0.8,1.4,1.3c0.3,0.6,0.5,1.2,0.5,1.9s-0.2,1.4-0.5,1.9
	c-0.3,0.6-0.8,1-1.4,1.3c-0.6,0.3-1.2,0.5-2,0.5C23.5,9.9,22.9,9.8,22.3,9.5z M25.5,8.5c0.4-0.2,0.7-0.5,0.9-0.9
	c0.2-0.4,0.3-0.8,0.3-1.3s-0.1-0.9-0.3-1.3c-0.2-0.4-0.5-0.7-0.9-0.9c-0.4-0.2-0.8-0.3-1.3-0.3c-0.5,0-0.9,0.1-1.3,0.3
	c-0.4,0.2-0.7,0.5-0.9,0.9c-0.2,0.4-0.3,0.8-0.3,1.3s0.1,0.9,0.3,1.3c0.2,0.4,0.5,0.7,0.9,0.9c0.4,0.2,0.8,0.3,1.3,0.3
	C24.7,8.8,25.2,8.7,25.5,8.5z"/>
<path class="st0" d="M30.2,9.7c-0.7-0.2-1.3-0.5-1.7-0.8l0.8-1.7c0.4,0.3,0.9,0.5,1.5,0.7c0.6,0.2,1.1,0.3,1.7,0.3
	c0.6,0,1.1-0.1,1.4-0.3c0.3-0.2,0.5-0.4,0.5-0.7c0-0.2-0.1-0.4-0.3-0.6c-0.2-0.2-0.4-0.3-0.7-0.4c-0.3-0.1-0.7-0.2-1.1-0.3
	c-0.7-0.2-1.3-0.3-1.8-0.5c-0.5-0.2-0.9-0.5-1.2-0.8c-0.3-0.4-0.5-0.9-0.5-1.5c0-0.6,0.2-1.1,0.5-1.5c0.3-0.5,0.8-0.8,1.4-1.1
	c0.6-0.3,1.4-0.4,2.2-0.4c0.6,0,1.2,0.1,1.8,0.2c0.6,0.1,1.1,0.4,1.5,0.6l-0.7,1.7c-0.9-0.5-1.8-0.8-2.7-0.8c-0.6,0-1.1,0.1-1.4,0.3
	c-0.3,0.2-0.4,0.5-0.4,0.8c0,0.3,0.2,0.6,0.5,0.7C31.8,3.9,32.3,4,33,4.2c0.7,0.2,1.3,0.3,1.8,0.5c0.5,0.2,0.9,0.4,1.2,0.8
	c0.3,0.4,0.5,0.9,0.5,1.5c0,0.5-0.2,1-0.5,1.5c-0.3,0.5-0.8,0.8-1.4,1.1c-0.6,0.3-1.4,0.4-2.3,0.4C31.7,10,30.9,9.9,30.2,9.7z"/>
<path class="st0" d="M37.6,0.2h2.2v9.6h-2.2V0.2z"/>
<path class="st0" d="M48.1,4.9h2v3.9c-0.5,0.4-1.1,0.7-1.8,0.9c-0.7,0.2-1.4,0.3-2.1,0.3c-1,0-1.9-0.2-2.7-0.6
	c-0.8-0.4-1.4-1-1.9-1.8C41.2,6.8,41,6,41,5c0-1,0.2-1.8,0.7-2.6c0.5-0.8,1.1-1.3,1.9-1.8c0.8-0.4,1.7-0.6,2.7-0.6
	c0.8,0,1.6,0.1,2.3,0.4c0.7,0.3,1.3,0.7,1.7,1.2l-1.4,1.3C48.2,2.3,47.4,2,46.4,2c-0.6,0-1.2,0.1-1.6,0.4c-0.5,0.3-0.9,0.6-1.1,1.1
	c-0.3,0.5-0.4,1-0.4,1.6c0,0.6,0.1,1.1,0.4,1.6c0.3,0.5,0.6,0.8,1.1,1.1c0.5,0.3,1,0.4,1.6,0.4c0.6,0,1.2-0.1,1.7-0.4V4.9z"/>
</svg>
