<svg xmlns="http://www.w3.org/2000/svg" xmlns:xlink="http://www.w3.org/1999/xlink" viewBox="0 0 676.24 626.1"><defs><style>.cls-1,.cls-11,.cls-2{fill:#fff;}.cls-11,.cls-2{mix-blend-mode:overlay;}.cls-3{fill:url(#radial-gradient);}.cls-4{isolation:isolate;}.cls-5{fill:#3bace0;}.cls-6{mask:url(#mask);}.cls-7{opacity:0.9;}.cls-8{fill:#d7e02b;}.cls-9{fill:#edf8ff;}.cls-10{fill:#ffe2bc;}.cls-11{opacity:0.2;}.cls-12{mask:url(#mask-2);}.cls-13,.cls-15{fill:#7f8083;}.cls-13{opacity:0.7;}.cls-13,.cls-14{mix-blend-mode:multiply;}.cls-14{opacity:0.4;}.cls-16{fill:#384344;}.cls-17{fill:#86a7b5;}.cls-18{fill:#e9f4f6;}.cls-19{fill:#d93c2b;}</style><radialGradient id="radial-gradient" cx="-928.93" cy="1739.09" r="328.16" gradientTransform="translate(684.24 -1661.87) rotate(-15.35) scale(1.02)" gradientUnits="userSpaceOnUse"><stop offset="0"/><stop offset="0.22" stop-color="#3d3d3d"/><stop offset="0.73" stop-color="#c7c7c7"/><stop offset="0.95" stop-color="#fff"/></radialGradient><mask id="mask" x="1.13" y="170.01" width="449.25" height="456.09" maskUnits="userSpaceOnUse"><path class="cls-1" d="M408.68,264.26c-68.53-96.84-200.13-122.52-299.62-60.82-6.89,4.44-13.85,9.36-21.7,15.36-91.29,73.31-110.84,206-42.31,302.8q6.26,8.82,13.19,16.85l-2-1c72.29,85.51,198,104.46,292.54,42.39,1.95-1.27,3.88-2.56,5.8-3.9.27-.19.56-.36.83-.55l.36-.27.37-.25c.27-.19.53-.4.8-.6,1.9-1.36,3.76-2.75,5.6-4.17,90-68.57,113.92-193.37,57.33-290l.31,2.21Q414.92,273.11,408.68,264.26Z"/><path class="cls-2" d="M281.84,177a222.76,222.76,0,0,0-172.78,26.45c-6.89,4.44-13.85,9.36-21.7,15.36-91.29,73.31-110.84,206-42.31,302.8q6.26,8.82,13.19,16.85l-2-1a222.68,222.68,0,0,0,150.53,78Z"/></mask><mask id="mask-2" x="0" y="166.89" width="454.18" height="454.16" maskUnits="userSpaceOnUse"><path class="cls-3" d="M411.75,262.79C342,164.24,208.1,138.12,106.86,200.9c-7,4.52-14.09,9.53-22.08,15.63C-8.11,291.13-28,426.1,41.73,524.64q6.36,9,13.42,17.16l-2-1c73.55,87,201.41,106.29,297.67,43.13q3-1.93,5.9-4l.85-.56.36-.27.38-.26c.28-.19.54-.41.81-.61,1.93-1.38,3.83-2.8,5.71-4.24,91.57-69.77,115.91-196.77,58.33-295.08l.31,2.24Q418.09,271.78,411.75,262.79Z"/></mask></defs><title>pngRecurso 1resultado</title><g class="cls-4"><g id="Capa_2" data-name="Capa 2"><g id="Capa_1-2" data-name="Capa 1"><path class="cls-5" d="M442.76,336a220,220,0,0,0-15.28-40.74c-.91-1.89-1.87-3.77-2.86-5.63q-2.33-4.43-4.87-8.76l.31,2.2q-5.28-9.19-11.51-18A223.11,223.11,0,0,0,369,222.26c-72.41-60.21-177.35-69.32-260.08-18-6.89,4.44-13.84,9.36-21.7,15.35A222.08,222.08,0,0,0,64,241.16l0,0a220.77,220.77,0,0,0-26.36,34.38l0,0s0,0,0,0v0l-.48.77-.14.22c-.47.78-.95,1.56-1.41,2.34l-.15.25c-.48.81-1,1.62-1.43,2.43l-.4.71c-.43.75-.86,1.5-1.28,2.25s-1,1.81-1.49,2.72l-1,1.89c-.06.12-.12.24-.19.36l-.67,1.3c-.67,1.29-1.32,2.58-2,3.88-.24.48-.47,1-.7,1.44s-.57,1.17-.85,1.76-.42.9-.63,1.36c-.63,1.36-1.25,2.72-1.84,4.09-.23.49-.45,1-.66,1.49s-.56,1.3-.83,2-.62,1.48-.92,2.22c-.19.46-.37.91-.55,1.37-.27.65-.53,1.31-.78,2h0L18.54,314a.41.41,0,0,0,0,.08c-.23.6-.45,1.19-.67,1.79s-.36,1-.53,1.44h0c-.11.33-.24.68-.35,1q-1.07,3-2,6c-.28.86-.56,1.72-.82,2.58a1.72,1.72,0,0,0-.07.21c-.31,1-.6,2-.89,2.94,0,.09-.05.16-.07.24s0,.09,0,.13l0,.12h0l-.56,1.93c-.07.29-.16.57-.24.86-.24.87-.48,1.75-.71,2.63s-.5,1.87-.73,2.81-.52,2.1-.77,3.15c-.21.86-.4,1.73-.61,2.6-.28,1.31-.57,2.61-.84,3.92-.17.83-.33,1.65-.49,2.48-.23,1.14-.44,2.28-.64,3.42-.16.87-.3,1.75-.45,2.63-.18,1.05-.34,2.1-.5,3.16-.12.76-.23,1.52-.33,2.29-.06.36-.11.72-.16,1.09l-.33,2.57c-.13,1-.25,2-.36,3.05-.09.81-.18,1.62-.25,2.43,0,.28-.06.56-.08.84l-.09.91c-.06.65-.11,1.29-.17,1.94-.08,1-.15,2-.22,2.93,0,.05,0,.1,0,.14-.07,1-.13,2-.19,3.06,0,.86-.09,1.72-.13,2.58v0c0,.38,0,.76,0,1.13l-.06,2c0,.24,0,.47,0,.71,0,.91-.05,1.83-.06,2.74s0,2,0,3.06a222,222,0,0,0,41,128.7q1.56,2.21,3.17,4.36Q50.5,530,53,533.12c1.67,2.09,3.37,4.13,5.1,6.14l-2-1q7.16,8.46,15,16c2.23,2.17,4.51,4.28,6.81,6.34q2.31,2.05,4.66,4c1.57,1.33,3.16,2.62,4.76,3.9,2.4,1.92,4.83,3.77,7.29,5.58,1.65,1.19,3.3,2.37,5,3.53.84.58,1.67,1.15,2.52,1.71q5.06,3.38,10.26,6.48,6.51,3.85,13.23,7.26,2.7,1.35,5.41,2.64l2.73,1.26q4.1,1.88,8.27,3.57a224.32,224.32,0,0,0,78,16.46c2.18.06,4.36.1,6.55.1,2.73,0,5.47,0,8.2-.16a221.12,221.12,0,0,0,33.16-3.71c1.82-.35,3.63-.71,5.44-1.11l.85-.18q2.52-.54,5-1.16c1.42-.34,2.84-.71,4.25-1.08,1.11-.3,2.23-.6,3.34-.92,1.46-.4,2.92-.84,4.39-1.28l3.24-1A222.85,222.85,0,0,0,338,587.22l3.59-2.12c1.19-.72,2.37-1.46,3.56-2.2s2.37-1.51,3.54-2.28c1.94-1.26,3.88-2.56,5.79-3.9.28-.18.56-.35.84-.55l.35-.26.37-.26c.28-.19.53-.4.81-.6q2.84-2,5.6-4.16,5.63-4.29,10.9-8.87c.68-.58,1.36-1.18,2-1.77l2.14-1.92q1-.93,2-1.89l1.4-1.32c.4-.37.81-.76,1.21-1.15.57-.55,1.14-1.1,1.7-1.66s1.39-1.37,2.08-2.07l0,0c.66-.66,1.31-1.33,1.94-2,.21-.19.39-.39.58-.59.59-.61,1.17-1.23,1.75-1.85l2.09-2.26c.69-.75,1.37-1.52,2.05-2.28s1.36-1.55,2-2.33q3-3.48,5.82-7l1.88-2.4c.62-.81,1.22-1.62,1.83-2.43q.75-1,1.47-2l.47-.65c.55-.75,1.09-1.51,1.63-2.28s1.15-1.64,1.72-2.47l1.69-2.51c.55-.81,1.08-1.63,1.61-2.45l.09-.16c.53-.81,1.06-1.64,1.57-2.46s1.07-1.7,1.59-2.56,1-1.61,1.45-2.43l.34-.57,1.12-1.94.45-.77,1.16-2.08c.49-.88,1-1.76,1.44-2.64l1.42-2.69q1.37-2.62,2.66-5.3l1.29-2.7c.42-.9.84-1.81,1.25-2.72s.75-1.68,1.12-2.51c0-.09.07-.18.11-.27.39-.88.77-1.79,1.15-2.68.75-1.76,1.46-3.53,2.15-5.31l.15-.38c.34-.87.67-1.74,1-2.61.26-.7.52-1.39.77-2.09s.51-1.38.75-2.08c.08-.23.17-.47.24-.71s.17-.48.25-.73c.32-.93.64-1.87,1-2.81s.61-1.88.91-2.82a0,0,0,0,1,0,0c.3-.94.58-1.88.86-2.82s.57-1.89.84-2.85q.86-3,1.63-6c.17-.66.34-1.33.5-2,.58-2.32,1.1-4.64,1.6-7,.16-.77.33-1.56.48-2.33.59-2.91,1.13-5.83,1.59-8.76.15-1,.31-1.95.45-2.93s.28-2,.41-2.93q.4-2.94.71-5.9.65-5.91,1-11.86s0,0,0,0A222.64,222.64,0,0,0,442.76,336Z"/><g class="cls-6"><g class="cls-7"><path class="cls-8" d="M259.69,494.61c-.08-.47-.17-.92-.25-1.35-.14-.73-.28-1.4-.39-2a3.4,3.4,0,0,0-.07-.34c-.07-.39-.14-.75-.21-1.07l-.06-.35c-.09-.46-.16-.78-.19-.93s0,0,0-.06v0s.87-2.91,2.05-5.9,2-5.91,2-5.91-6.76-3.31-14.71-6.28l-9.19-3.22-5.17-1.81-4.11,1.21c-2.8.83-4.36,1.29-5.23.22-.41.12-1.73-2.16-3.17-5.69s-2.57-5.87-2.73-5.83a20.57,20.57,0,0,0-6.6.62l-6.68,2c-.46.13-1.66-2.17-3-5.73a54.36,54.36,0,0,0-2.84-5.79l-8.62,2.54c-7.74.95-8.84,1.27-13.16,1.22l-5-1.14-5,5.44-5.34,4.22-6.49,1.92c-7.43,2.19-6.28,3.17-9.47-3.83-1.07-2.35-2.32-4.63-2.61-4.54-.63-1.14-2.09-.71-3.6-.27l-2.76.82-.7-2.45c-.33-1.24-.84-3.73-1.34-6.23l-.66-3.78-2.53-.59-2.55-.57L126,442.7c-1.8,1.86-3.73,3.75-4.38,3.93-1.36.41-10.71-4.78-11.07-6s2.37-15.29,2.83-16.75l9.78-2.89c10.33-3.05,9.16-2.7,14.23,1.1,3.11,3.08,3.12,3.07,6.15,2.18,3.64-1.07,4,.15-.06-6.61a30.25,30.25,0,0,1-3.15-5.71,73.34,73.34,0,0,1,4.39-7.92c4.69-9.34,4.56-8,1.62-13.74-.59-1.15-.54-2.49.82-5.55,1.77-3.17,1.89-3.2,4.52-4l2.68-.79-1.17-5c-.93-3.71-1.41-6.2-1.24-6.26a120.13,120.13,0,0,0,12-14.16c6.62-7.25,12.1-14.18,12.52-14.3.27-1.41-1.52-2.21-14.12-11.76-8.33-6.81-15.14-11.43-15.48-11.33-.87-1.08-26.75,1.26-29.38,2-.89.26-.62,1.5,1.18,7.6s2.28,7.27,3.58,8.23c1,1,1.78,2.12,1.78,2.12.72,2.44.35,14.49-.34,14.69-.42.12-4.19-2.75-8.16-5.55a43.34,43.34,0,0,0-9.08-5.28c-.93.28-4.14-.1-7.05-.58-3.57,1-5.66.36-8.7-1.4a7.49,7.49,0,0,1-3.88-2.84c-.22-1.25.93-4.25,2-8.54,2.39-8.67,1.47-7.06,13-9.16l7.15-2.11c.2-.05-.9-2.38-2.25-4.64l-2.6-4.53.15-5.36a31.76,31.76,0,0,1,.46-5.43c-.19-1.28,1.52-1.78,3.41-2.34,2.61-.77,3.53-1,4.13.12l0,0a7.27,7.27,0,0,1,.37,1.51c0,.06,0,.12,0,.18a.29.29,0,0,0,0,.09c0,.17.06.34.09.52,0,0,0,0,0,.07,0,.2.07.41.11.63.21,1.32.43,2.93.61,4.55.36,3.87,1.13,7.63,1.42,7.54a76.18,76.18,0,0,0,12.7.25l11.51-2.08,3.39-6.32.85-1.57c1.89-5.86,3.52-10.32,3.52-10.32s-10.77-6.09-23.38-11.66c-13-6.79-23.78-11.55-24.59-12.63-.49.15-1-1-.81-1.09s4-10.48,8.61-22.42c5-10.76,8.64-21.11,8.73-21.14-.19-1.29-3-.44-21.14,3.56l-12.62,2.41L64,241.16l0,0-17.2,14.24h0l-2.15,1.78,2.15-1.78a225.78,225.78,0,0,0-31.26,55.62c.56.22,1.14.44,1.73.65l1.19.44c.12.05.24.08.36.14s.26.09.38.15h0l2.75,1.05,1.09.42.25.09.24.08.4.15.07,0,.51.18.17.06.27.08a1.32,1.32,0,0,0,.4.06c.92,1.05.83,1.08-.25,1.4H25l-.06,0-1.25.22-.59.1-.33.07-.74.12-.27.05-.27,0-1.2.21-.49.07-.32.06-.5.08c-.52.1-1.07.19-1.65.28h0l-.46.08-.45.07-2,.33-1.39.23-.16,0q-3.06,8.72-5.4,17.63a228.81,228.81,0,0,0-6.36,35.32l3,1.82.37.24.38.23c4.06,2.57,8,5.25,8.23,5.87l-1.3.39c-2.4.7-2.13,1.95.82,5.06,1.72,2.13,3.5,4.27,3.8,4.18l3-.89c1.31-1.71,2.34-2,3.31-1,.24-.07,1.37.81,2.9,2.11l.45.38.46.41c1,.9,2.19,1.92,3.34,3l6,4.87,2.29,9.93,2.67,11.14L60,434.32l19.2,15.55,4.45-1.32c2.44-.71,4.81-1.41,5.62-.32.45-.13,3.32,1.67,6.2,3.47l5.72,4.94,14.74,3.62L131,465.09l3.29-2.3,3.66-1.08,4.19,5.4c2.05,2.05,4.25,4.05,5.1,5.12l6.53-1.92,5.64-1.67,1.43,4.89c1.44,4.88,1.42,4.88.48,10.46a8.39,8.39,0,0,0-.92,5.57c.39,1.22,5.25,7.73,11.4,16.53l10.63,14.11,6.82,2c5,1.17,6.44.75,6.79,2s2,14,4.39,30.54l1.64,12.61.05.41,0,.38,1.91,14.68,4.32,14.65L212.71,612l7.3,5,.56.4h0l.58.39,1,.68c1.18.84,2.35,1.69,3.43,2.51.42.3.82.6,1.21.9l.82.62,1.42,1.08.44.33h0l.64.49,1.36,1,.33.24.31.21c.18.12.29.18.32.17s.19-.14.31-.33.12-.22.18-.35a9.1,9.1,0,0,0,.42-1l.12-.29.11-.3c0-.11.08-.21.11-.32s.1-.27.14-.41c.25-.71.49-1.49.7-2.23,0-.15.08-.29.11-.44l.09-.33c0-.11,0-.22.08-.33.08-.32.14-.63.19-.91s.09-.51.11-.73a3.17,3.17,0,0,0,0-.41,1.08,1.08,0,0,0,0-.39h0l0,0-.07-.07-.26-.28c-.26-.28-.67-.72-1.18-1.23l-.32-.32-.7-.69c-.48-.47-1-1-1.56-1.48a14,14,0,0,1-3.72-2.88,14.31,14.31,0,0,1,2.38-4.67l2-5.92-1.07-3.65c-.11-.35-.21-.68-.33-1-.22-.66-.46-1.29-.72-1.88l-.21-.51c-.14-.33-.29-.63-.44-.92l-.19-.36c-.06-.12-.13-.23-.19-.34a7.25,7.25,0,0,0-.54-.84c-1.45-2.22-1.45-2.22-.94-3.7.15-.8,2.7-7,6.34-15.44l.16-.39.16-.39c9.15-21.36,24.62-56.49,26.3-59.79l1.61-4.47-1.2-7.6ZM446.75,335.73a225.31,225.31,0,0,0-23.6-56.83l.31,2.24q-5.37-9.36-11.72-18.35a227.05,227.05,0,0,0-40.25-43.57l-2.49,3-3.16,3.85c-4.49,6.63-9.19,12-10,13.55l-1.68,1.82-5.13-3.8c-2.37-.62-4.75-2.57-5.11-3.79l5.2-1.53c6.06-.47,5.82-.4,6.38-1.88.78-.23,2.34-5.54,2.91-8.86.07-.42.13-.8.17-1.15a3.84,3.84,0,0,0,0-1.28.33.33,0,0,0-.11-.18h-.1a164.86,164.86,0,0,1-17.28,1.12c-9.5.15-18,0-18.66.21a56.44,56.44,0,0,0-10.56,7.08c-7.3,3.49-10,5.6-10.44,7.07-.65,1.51-10.68,32.32-11,35.07-.19,1.37,1.89,11.36,2.71,12.46l3.17-.94,2.74-.8a19.2,19.2,0,0,1,5.7-3,16.51,16.51,0,0,0,2.72,3.16c2.43,3.28,2.56,3.24,8.75-1.25l4.08-2.53-1-5-1-5-2.65-1.87c-1.41-.91-2.64-1.87-2.64-1.87s6-17.68,6.34-19.11c.82-.24,6.41,3.41,6.41,3.41.36,1.22-1.07,3-2.55,6.06a15.62,15.62,0,0,0-2.92,4.84c.36,1.22,4.91,6.51,6,7.51.41-.13,2.92-2.2,5.68-4.33l5.32-2.9,1.91.76a8.82,8.82,0,0,1,2.07,2.05c-.1,0-3.63,3.72-8,7.67l-8.18,6.38.17,2.6c.07,1.32-.07,2.68,0,4l-9.07,2.67-8.17,3.75-2.83-3.14c-1.32-.95-2.71-1.86-3-1.77-.91.27-4,3.84-3.67,5.06,0,0,.84,1.08,1.77,2.13a30.1,30.1,0,0,0,2.16,3.34c.36,1.22-1.1,4.31-3,7.52-2.85,6.15-3.66,6.39-5.67,8.31-2.2.64-3.38,1-5.67,5.65a21.63,21.63,0,0,0-3.21,4.91c.25,1.26,1.49,2.23,3,3.1,3.57,2.92,3.71,2.87,3.09,7l-.48,2.79-4.26,1.26-6.76,2c-3.54-.29-3.55-.29,1.71,7.46,4.7,6.72,6.77,9.75,7.84,11a4.22,4.22,0,0,0,.66.7,1.15,1.15,0,0,0,.28.17h.07a.66.66,0,0,0,.2,0,.22.22,0,0,0,.06,0,10,10,0,0,0,.88-1.37c.11-.2.22-.41.35-.63.59-1.06,1.36-2.47,2.23-4.07a0,0,0,0,0,0,0c1.1-2,2.38-4.31,3.75-6.64,3.4-7.63,6.82-12.62,7.13-12.71l2.28-.67c2,.74,2.21.68,4.35-2.6l1.93-4.55,3.75,1.55c8.81,4,9.78,3.73,11.51,7.21,2.8,5.8,3.81,6.82,4.24,6.7s2.79-6.13,3.16-8.88c.17-1.39-.66-2.45-6.42-7.39-3.57-2.93-6.69-6-6.69-6-.36-1.22,0-1.33.16-2.69,1-.28,1.34-.39,11.86,7.11,5.17,3.77,5.71,4.94,7.38,8.42,1.06,2.35,2.19,4.67,2.69,5.84s2.08,2,5.81,3.6a11.3,11.3,0,0,1,1.35.37l.39.14.77.29c1.37.57,2.57,1.2,3.13,1.38l.14,0h.15l.09,0c.83-.19,4.56-.64,2.89-5.24,1.3-2.81,6.67,2.41,7,2.32s5.56,3.66,5.56,3.66l-9.62,2.84-10,1.62-2.77-.5c-1.69-.82-3.45-1.64-3.85-1.52s-1.75,1.85-3.11,3.57c-1,2.95-2.3,4.66-2.64,4.75s-3.85-.18-7.73-.37l-7.12-.54-1.09-3.67c-.71-2.43-.91-2.37-3.63-4.23l-2.9-1.79-8.6,3.86-8.61,3.87-11.92,19.43L277.1,388.86l4.71,14.52c2.73,8.47,5.2,15.71,5.76,16.86.18-.06,3.47,1.63,7.11,3.21,4,2.79,7.83,4.32,9,5.3,1.86.78,2,.75,15.12-1.8l12.9-3.81,7,3.24a28.91,28.91,0,0,1,6.95,1.92,10.9,10.9,0,0,1-1.39,3.06l-1.67,3.14,5.2,3.78a67.76,67.76,0,0,1,8.76,6.68l3.19,1.73,2.16,7.31,1.8,6.1-1.48,3.08-1.11,4.31,14.17,21c7.12,10.27,13.17,18.54,14.44,20.53l.2.3a.06.06,0,0,0,0,0c.06,0,.34-.11.79-.22a35.33,35.33,0,0,1,7.9-1l8.74-2.57c.56-.17,8.29-20.6,11.71-30.34.22-.64.42-1.23.61-1.76,0,0,0,0,0,0l.38-1.13c.14-.42.26-.8.36-1.11-.11-1.29-.42-3.85-.9-6.36-1.08-5-1.12-6.3-.71-7.76,6.09-8.42,6-7.07,2.28-16.56-1.87-4.77-2.54-5.89-4-6.79a7.61,7.61,0,0,1-2.41-3.27s3-11.49,6.6-25.81c3.6-11.92,6.54-22.54,6.9-25.31a2.17,2.17,0,0,0,0-.59l-6,1.77L415,382.67c-.55,1.48-3.67-.26-9.87-2.4-4.26-2.73-4.44-2.69-14.74-14.22l-10.78-12.73-1.23-4.94c-.58-2.48-.6-3.81-.09-4,.89-1.59,3.7-2.41,4.82-1.43.4-.12,7.73,8.34,16,17.84s15.25,16.72,15.66,16.6c.85,1.06,3.53-1.05,8.26-5.1,4.16-2.56,7.67-6.24,8.3-6.42,1.06-1.63,4.95-13.4,4.95-13.4-.36-1.22-2.76-3.17-5.18-3.78L426,345l-3.23,2.26a8.4,8.4,0,0,1-3.69,2.43c-1.57-.87-9.35-9.18-9.37-10.5.21,0,20.11-2.08,33.08-3.12C444.19,335.91,445.53,335.81,446.75,335.73ZM383,308.57a33.24,33.24,0,0,1-8.53,1.19c-12.22,2.29-12,2.22-14.68,7a34,34,0,0,1-3,3.55c-.51.14-2.7-3.19-3.06-4.4s.63-4.17,2-7.23l2-7.23,3.53,2.93c2.69,1.87,3.48,1.64,4.84,1.24,2.84-.84,3.38-1,2.65-3.45s-.6-2.47.8-2.88c3.31-1,4.87-.11,9.26,3.9C381.4,306.38,383.21,308.5,383,308.57Zm44.46-13.11c-.28.08-.95,1.61-1.93,1.9-1.67.48-1.78.52-2.83-1.81-2-4.73-1.73-4.81.71-5.52l1.25-.37.88-.27,1,2.35a10.73,10.73,0,0,1,.94,3.55C427.48,295.39,427.47,295.44,427.42,295.46Zm16.52,165.38c0-3.35-.06-7.35-.14-11,0-.48,0-1,0-1.41h0c0-.49,0-1,0-1.44v0c-.12-4.11-.26-7.29-.37-7.7-.26-.87-2.22-1.91-3.74-2.3l-.42-.1-.36-.05a1.94,1.94,0,0,0-.7,0c-.63.19-8.49,11.78-8.74,13.18a43.46,43.46,0,0,0,0,6.66c0,.21,0,.41,0,.62s0,.57.05.86a31.6,31.6,0,0,0,.75,6.2c.13,0,3.29,1.68,6.86,3.27l.42.12h0l.37.11.37.1c1.26.37,2.27.66,3,.86,1.56.4,2.24.38,2.32-.45C443.86,468.29,444,465.09,443.94,460.84ZM156.61,431c-.69.21-14.47-1-14.61.34-.66.19.13,6.59.64,6.44.23-.07,3.54.28,7.25.51,4.22.08,6.71-.65,6.74-2C157.55,436.05,157.52,432.08,156.61,431ZM290.38,302.73l-.72-3.77-5.07-2.47c-4.68-2.61-5.25-2.44-7.64-5.71-1.53-2.21-3.17-4.36-3.52-4.26-.78-1.11-1.49.44-2.74,3.45l-1.76,4.51,2.88,1.79a61.16,61.16,0,0,1,5.26,3.76c2.35.62,2.73,1.84,2.07,6a8.61,8.61,0,0,0,0,4c.57,1.16,1.88.78,5.86-.4,2.87-.84,5.49-1.61,5.47-2.94C290.79,306.58,290.88,305.23,290.38,302.73ZM220.7,209.26c-.17-1.28,1.68-3.16,3.44-6.33s3.09-6.21,2.74-7.43-23.3-11.69-24.8-11.25-76.29,33.12-76.76,34.57c-1,.3-11.83,31.33-11.47,32.55s7.78,7,8.6,6.74a13.57,13.57,0,0,0,5-2.8,47.29,47.29,0,0,1,4.76-4.06c.72-.21,13,5.44,14,6.49,0,0,0,0,0,.05a.4.4,0,0,1,.09.13l.18.3.39.71.33.62c.23.43.5,1,.82,1.58.07.15.16.29.24.45l.76,1.48c.18.35.36.71.56,1.08.41.81.87,1.7,1.35,2.63l.48.92,2,3.83c.44.89.86,1.77,1.28,2.61.18.35.35.71.52,1.06l1.36,2.74.49,1q.15.32.27.54l.47,1c.12.22.21.42.29.56.19.38.37.73.54,1.08s.34.66.5,1l.45.88c.15.27.28.53.4.76.4.76.7,1.3.86,1.57a.6.6,0,0,0,.14.2c0,.06.06.09.08.08l0,0a.68.68,0,0,1,.14.11l.1.11.14.14a1.21,1.21,0,0,1,.18.17,1.25,1.25,0,0,1,.17.16c.28.28.69.68,1.18,1.2l.62.62c.11.11.22.22.32.34s.24.23.35.36l.36.36.37.37,1.2,1.22.42.43c1.42,1.43,3,3,4.69,4.62,8.7,8,9.73,9.06,11.3,8.6l6-1.78,4.32-1.27,1-8.25.63-9.46,9.84-6.89c5.29-4.21,10.38-8.36,11.47-8.68,1.43-1.76,2.2-2,5.39-17.5,2.12-8.58,4.05-15.78,4-17.07.28-.09-.9-6.37-2.22-12.61S220.51,209.32,220.7,209.26Zm22.37,53.07c-.62.18-15.21,9.78-15.91,10-.25.07,2.62,3.2,6.61,7.33,4.66,3.94,6.94,5.9,7.51,5.73,1.3-1.7,11.54-16.66,11.54-16.66C252.46,267.51,245,263.09,243.07,262.33Z"/><path class="cls-9" d="M293.17,282l3.19-.94,2.47-9.64-.92-5.79L300.09,252s-.2-11.2,1.94-11.83,7.64-8.31,7.64-8.31l14.75-5.22,11.18-1.57,12.61-2,9-.94,1.2-.54c.27-1.58.33-2.72,0-2.61a165.14,165.14,0,0,1-17.28,1.12c-9.5.15-18,0-18.66.21a56.71,56.71,0,0,0-10.57,7.08c-7.29,3.49-9.95,5.6-10.43,7.07-.65,1.51-10.68,32.32-11,35.07C290.28,270.94,292.36,280.93,293.17,282Z"/><path class="cls-1" d="M147.05,289.31s-1.63,4.46-3.52,10.32l-.85,1.57c-3.58-.85-7.73-1.34-7.73-1.34s-18.29-1.54-20.9-2.5a2.31,2.31,0,0,0-1-.1c0-.22-.07-.43-.11-.63,0,0,0,0,0-.07,0-.18-.07-.35-.09-.52a.29.29,0,0,1,0-.09c0-.06,0-.12,0-.18a7.27,7.27,0,0,0-.37-1.51l0,0c-.6-1.16-1.52-.89-4.13-.12-1.89.56-3.6,1.06-3.41,2.34a31.76,31.76,0,0,0-.46,5.43s-19.86-5.63-22.23-5.8-10.67,4.3-12.81,4.92-.09,12.53-2.23,13.16-18.73,3.57-18.73,3.57l-9.8,10.54s-7.58-1.94-13.08-3l-.38-.07-.35-.07a15.6,15.6,0,0,0-4.58-.42c-1,.3-4.16,3-7.21,5.8h0l-.59.54-.56.53c-1.71,1.58-3.29,3.09-4.34,4.09q2.32-8.91,5.4-17.63l.16,0,1.39-.23,2-.33.45-.07.46-.08h0c.58-.09,1.13-.18,1.65-.28l.5-.08.32-.06.49-.07,1.2-.21.27,0,.27-.05.74-.12.33-.07.59-.1,1.25-.22.06,0h.08c1.08-.32,1.17-.35.25-1.4a1.32,1.32,0,0,1-.4-.06l-.27-.08-.17-.06-.51-.18-.07,0-.4-.15-.24-.08L23,313.9l-1.09-.42-2.75-1.05h0c-.12-.06-.25-.1-.38-.15s-.24-.09-.36-.14l-1.19-.44c-.59-.21-1.17-.43-1.73-.65a225.78,225.78,0,0,1,31.26-55.62h0L64,241.18l0,0,17.88-14.82,12.62-2.41c18.09-4,21-4.85,21.14-3.56-.09,0-3.78,10.38-8.73,21.14-4.59,11.94-8.38,22.35-8.61,22.42s.32,1.24.81,1.09c.81,1.08,11.61,5.84,24.59,12.63C136.28,283.22,147.05,289.31,147.05,289.31Z"/><path class="cls-9" d="M241.28,285.39c1.3-1.71,11.54-16.67,11.54-16.67-.36-1.21-7.87-5.63-9.75-6.4-.62.19-15.21,9.79-15.91,10-.25.07,2.62,3.2,6.62,7.33C238.43,283.59,240.71,285.55,241.28,285.39Z"/><path class="cls-1" d="M215.93,269c1.43-1.76,2.2-2,5.39-17.5,2.12-8.58,4.05-15.78,4-17.08.28-.08-.9-6.36-2.22-12.6s-2.57-12.5-2.37-12.56c-.17-1.28,1.67-3.16,3.44-6.33s3.09-6.22,2.73-7.43-23.3-11.69-24.79-11.25c-1.64.48-76.29,33.11-76.76,34.57-1,.3-11.83,31.33-11.47,32.55s7.78,7,8.6,6.75a13.83,13.83,0,0,0,5-2.81,48.8,48.8,0,0,1,4.76-4.06c.72-.21,13,5.44,14,6.49.16,0,3.62,6.89,7.22,13.78,4,8.1,7.45,15,7.65,15s5,5.16,10.29,10.24c8.69,8,9.72,9.05,11.29,8.58l6-1.76,4.32-1.28,1-8.25.63-9.46,9.84-6.89C209.75,273.48,214.84,269.32,215.93,269Z"/><path class="cls-8" d="M426.54,291.74l-1-2.35-.88.27-1.25.37c-2.44.71-2.72.79-.71,5.52,1,2.33,1.16,2.29,2.83,1.81,1-.29,1.65-1.82,1.93-1.9.05,0,.06-.07.06-.17A10.73,10.73,0,0,0,426.54,291.74Z"/><path class="cls-10" d="M428.22,378.77l-6,1.77,6-1.18A2.16,2.16,0,0,0,428.22,378.77Z"/><path class="cls-11" d="M213.84,593.59l-.21-8.6-5.43-13.12L205,550.31,196,524.14c.36,1.21,2,14,4.39,30.53l3.65,28.09,4.32,14.65L212.7,612l9.46,6.5c5.27,3.76,10.05,7.64,10.3,7.57.69-.2,3-7.52,2.65-8.74,0,0-1.92-2.09-4.11-4.09a14,14,0,0,1-3.72-2.88,14.41,14.41,0,0,1,2.38-4.68l2-5.9-1.08-3.66a24.44,24.44,0,0,0-2.08-5l-4.48,5.51Z"/><path class="cls-10" d="M290.35,355.78c.25-.08,1.6-2.63,3.54-6.13l-4.75,5.26C289.81,355.74,290.08,355.86,290.35,355.78Z"/><path class="cls-8" d="M356.7,340.18c.62-.18.69-.2-1.05-5l-3.53,3.13C354.3,339.07,356.35,340.29,356.7,340.18Z"/><path class="cls-11" d="M238.67,467.17c-1.23,1.54-2.16,3.28-1.13,4.23,2.13,2,5.45,7.93,7.1,10.91s3.3,8.55,6.14,10.31c1.38.85,5.23,1.39,8.91,2-.65-3.43-1.18-6.13-1.18-6.13s.85-2.91,2-5.9,2-5.91,2-5.91-6.77-3.31-14.72-6.27Z"/></g></g><g class="cls-12"><path class="cls-13" d="M446.75,335.73a225.31,225.31,0,0,0-23.6-56.83l.31,2.24q-5.37-9.36-11.72-18.35a227.05,227.05,0,0,0-40.25-43.57C297.81,158,191,148.7,106.86,200.9c-7,4.52-14.09,9.53-22.08,15.64a226,226,0,0,0-38,38.88h0a225.78,225.78,0,0,0-31.26,55.62q-1.37,3.51-2.6,7.05-3.06,8.72-5.4,17.63a228.81,228.81,0,0,0-6.36,35.32,226.1,226.1,0,0,0,40.6,153.59q6.36,9,13.42,17.15l-2-1A226.82,226.82,0,0,0,225.59,621c3,0,6,0,8.95-.13a225.8,225.8,0,0,0,116.27-37q3-1.93,5.91-4l.84-.56.36-.27.37-.25.83-.62q2.88-2.09,5.69-4.24a225.78,225.78,0,0,0,76.5-105.17c.93-2.64,1.8-5.29,2.63-8A227.64,227.64,0,0,0,446.75,335.73Z"/></g><g class="cls-14"><path class="cls-15" d="M226.56,617.53a223.07,223.07,0,0,1-170.73-79L54.56,537l2,1c-4.21-5-8.21-10.14-11.92-15.37a223.6,223.6,0,0,1-7.39-247.21l.7.35A215.88,215.88,0,0,0,62.94,479c4,5.58,8.24,11.07,12.77,16.33L77,496.88l-1.94-1a216.14,216.14,0,0,0,282.17,39.56c1.87-1.21,3.76-2.48,5.62-3.78l.39-.26.42-.27.34-.26.36-.24.39-.29.39-.29c1.83-1.32,3.66-2.68,5.43-4a216.55,216.55,0,0,0,78.94-120.78l.77.12A223.18,223.18,0,0,1,362.66,571.2c-1.83,1.4-3.72,2.81-5.61,4.17l-.38.28-.42.32-.37.26-.36.26-.44.29-.39.26c-1.93,1.34-3.88,2.66-5.81,3.91A222.43,222.43,0,0,1,226.56,617.53Z"/><path class="cls-15" d="M449.92,405.26l-.77-.12a214.86,214.86,0,0,1-10.32,31.66,208.51,208.51,0,0,1-9.43,19.87q-4,7.43-8.6,14.55-.36.57-.72,1.11A213.77,213.77,0,0,1,389.74,509a216.13,216.13,0,0,1-19.39,16.66c-1.77,1.36-3.6,2.72-5.42,4-.13.1-.27.19-.39.3l-.39.28-.16.12-.19.12-.18.14-.17.12-.4.26c-.13.1-.27.18-.41.28-1.84,1.29-3.73,2.55-5.6,3.76a214.63,214.63,0,0,1-118.1,35.33c-1.75,0-3.49,0-5.23-.07a214.81,214.81,0,0,1-26.07-2.19c-1.86-.27-3.73-.56-5.58-.89A215,215,0,0,1,76.71,497.16l1.91,1-2.62-3c-4.51-5.25-8.81-10.73-12.74-16.31A215.28,215.28,0,0,1,25.51,325.32a217.7,217.7,0,0,1,12.76-49.41l-.68-.35-.71-.35a224.6,224.6,0,0,0-18.47,36.93c-.7,1.78-1.36,3.57-2,5.37q-2.5,7-4.56,14.13A223.94,223.94,0,0,0,44.28,522.85c3.34,4.73,6.93,9.4,10.69,13.92l-2-1,2.53,3a223.36,223.36,0,0,0,165.64,79.11c1.8,0,3.59.07,5.39.07,2.86,0,5.73,0,8.59-.16a222.9,222.9,0,0,0,114-36.48c1.93-1.26,3.89-2.58,5.81-3.92l.38-.25.46-.31.18-.13.17-.13.18-.12.19-.13.44-.33.37-.27c1.89-1.37,3.78-2.77,5.62-4.19A223.09,223.09,0,0,0,438.27,468q3.14-8.9,5.53-18.1a225.63,225.63,0,0,0,6.89-44.48Zm-12.41,62.48c-.24.7-.49,1.39-.73,2.08s-.51,1.39-.77,2.09c-.33.87-.66,1.74-1,2.61l-.15.38c-.7,1.78-1.41,3.55-2.15,5.31-.38.89-.76,1.8-1.15,2.68,0,.09-.08.18-.11.27-.37.83-.74,1.68-1.12,2.51s-.83,1.82-1.25,2.72l-1.29,2.7c-.87,1.78-1.75,3.55-2.66,5.3l-1.42,2.69c-.48.88-.95,1.76-1.44,2.64l-1.16,2.08-.45.77-1.12,1.94-.34.57c-.48.82-1,1.63-1.45,2.43s-1.05,1.71-1.59,2.56-1,1.65-1.57,2.46l-.09.16c-.53.82-1.06,1.64-1.61,2.45l-1.69,2.51c-.57.83-1.14,1.65-1.72,2.47s-1.08,1.53-1.63,2.28l-.47.65q-.72,1-1.47,2c-.61.81-1.21,1.62-1.83,2.43l-1.88,2.4q-2.82,3.57-5.82,7c-.66.78-1.34,1.56-2,2.33s-1.36,1.53-2.05,2.28l-2.09,2.26c-.58.62-1.16,1.24-1.75,1.85-.19.2-.37.4-.58.59-.63.67-1.28,1.34-1.94,2l0,0c-.69.7-1.38,1.39-2.08,2.07s-1.13,1.11-1.7,1.66c-.4.39-.81.78-1.21,1.15l-1.4,1.32q-1,1-2,1.89l-2.14,1.92c-.67.59-1.35,1.19-2,1.77q-5.28,4.59-10.9,8.87-2.76,2.11-5.6,4.16c-.28.2-.53.41-.81.6l-.37.26-.35.26c-.28.2-.56.37-.84.55-1.91,1.34-3.85,2.64-5.79,3.9-1.17.77-2.36,1.53-3.54,2.28s-2.37,1.48-3.56,2.2L338,587.22a222.85,222.85,0,0,1-43.51,19.32l-3.24,1c-1.47.44-2.93.88-4.39,1.28-1.11.32-2.23.62-3.34.92-1.41.37-2.83.74-4.25,1.08q-2.52.61-5,1.16l-.85.18c-1.81.4-3.62.76-5.44,1.11A221.12,221.12,0,0,1,234.76,617c-2.73.11-5.47.16-8.2.16-2.19,0-4.37,0-6.55-.1a224.32,224.32,0,0,1-78-16.46q-4.17-1.7-8.27-3.57L131,595.76c-1.81-.86-3.62-1.74-5.41-2.64q-6.72-3.39-13.23-7.26c-3.47-2.06-6.9-4.22-10.26-6.48-.85-.56-1.68-1.13-2.52-1.71-1.67-1.16-3.32-2.33-5-3.53-2.46-1.81-4.89-3.66-7.29-5.58-1.6-1.28-3.19-2.57-4.76-3.9s-3.12-2.67-4.66-4c-2.3-2.06-4.58-4.17-6.81-6.34q-7.8-7.59-15-16l2,1c-1.73-2-3.43-4-5.1-6.14s-3.31-4.2-4.92-6.36q-1.61-2.16-3.17-4.36a222,222,0,0,1-41-128.7c0-1,0-2,0-3.06s0-1.83.06-2.74c0-.24,0-.47,0-.71l.06-2c0-.37,0-.75,0-1.13v0c0-.86.08-1.72.13-2.58.06-1,.12-2,.19-3.06,0,0,0-.09,0-.14.07-1,.14-1.95.22-2.93.06-.65.11-1.29.17-1.94l.09-.91c0-.28.05-.56.08-.84.07-.81.16-1.62.25-2.43.11-1,.23-2,.36-3.05L6,363.54c0-.37.1-.73.16-1.09.1-.77.21-1.53.33-2.29.16-1.06.32-2.11.5-3.16.15-.88.29-1.76.45-2.63.2-1.14.41-2.28.64-3.42.16-.83.32-1.65.49-2.48.27-1.31.56-2.61.84-3.92.21-.87.4-1.74.61-2.6.25-1.05.5-2.11.77-3.15s.48-1.87.73-2.81.47-1.76.71-2.63c.08-.29.17-.57.24-.86l.56-1.93h0a.56.56,0,0,0,0-.12s0-.08,0-.13,0-.15.07-.24c.29-1,.58-2,.89-2.94a1.72,1.72,0,0,1,.07-.21c.26-.86.54-1.72.82-2.58q1-3,2-6c.11-.33.24-.68.35-1h0c.17-.48.35-1,.53-1.44s.44-1.19.67-1.79a.41.41,0,0,1,0-.08c.2-.53.41-1.08.62-1.61s.51-1.32.78-2c.18-.46.36-.91.55-1.37.3-.74.6-1.48.92-2.22s.55-1.31.83-2,.43-1,.66-1.49c.59-1.37,1.21-2.73,1.84-4.09.21-.46.43-.91.63-1.36s.56-1.18.85-1.76.46-1,.7-1.44c.64-1.3,1.29-2.59,2-3.88l.67-1.3c.07-.12.13-.24.19-.36l1-1.89c.49-.91,1-1.82,1.49-2.72s.85-1.5,1.28-2.25l.4-.71c.47-.81.95-1.62,1.43-2.43l.15-.25c.46-.78.94-1.56,1.41-2.34l.14-.22c.16-.27.33-.53.49-.79v0A216.35,216.35,0,0,0,62.62,479.26q6.08,8.57,12.8,16.36l-1.92-1a215.84,215.84,0,0,0,128.66,73.46c1.87.32,3.73.62,5.6.88a215.42,215.42,0,0,0,25.63,2.19c1.85,0,3.7.07,5.55.07a215.54,215.54,0,0,0,118.52-35.45q2.84-1.85,5.64-3.79l.8-.53.34-.26c.12-.09.25-.16.36-.25.27-.18.52-.39.79-.57,1.83-1.33,3.65-2.68,5.44-4a218.29,218.29,0,0,0,19.91-17.16,214.62,214.62,0,0,0,28.35-33.93q5.61-8.33,10.39-17.08A212,212,0,0,0,439.61,437a217.75,217.75,0,0,0,10.3-31.62q-.32,5.93-1,11.83c-.21,2-.45,3.93-.71,5.9-.13,1-.26,1.95-.41,2.93s-.3,1.95-.45,2.93c-.48,2.93-1,5.85-1.59,8.76-.15.77-.32,1.56-.48,2.33q-.75,3.5-1.6,6.94v0c-.16.67-.33,1.33-.5,2q-.78,3-1.63,6c-.27,1-.55,1.9-.84,2.85s-.56,1.88-.86,2.82a0,0,0,0,0,0,0c-.3.94-.6,1.88-.91,2.82s-.63,1.88-1,2.81c-.08.25-.17.49-.25.73S437.6,467.51,437.51,467.74Z"/></g><path class="cls-16" d="M417.78,138.38l29,29a3.39,3.39,0,0,1-4.8,4.79l-29-29a3.39,3.39,0,1,1,4.8-4.79Z"/><path class="cls-16" d="M446.31,109.85l29,29a3.39,3.39,0,0,1-4.8,4.79l-29-29a3.39,3.39,0,1,1,4.8-4.79Z"/><rect class="cls-17" x="338.22" y="7.75" width="84.46" height="139.14" rx="4.19" ry="4.19" transform="translate(56.76 291.67) rotate(-45)"/><polygon class="cls-18" points="375.66 77.32 348.2 104.78 352.99 109.57 380.45 82.11 427.25 128.91 432.04 124.11 385.25 77.32 412.71 49.85 412.71 49.85 407.92 45.06 407.92 45.06 380.45 72.52 333.66 25.73 328.86 30.52 375.66 77.32"/><path class="cls-16" d="M561.6,234.73l-29-29a3.39,3.39,0,0,1,4.79-4.79l29,29a3.39,3.39,0,0,1-4.79,4.8Z"/><path class="cls-16" d="M533.07,263.26l-29-29a3.39,3.39,0,1,1,4.79-4.8l29,29a3.39,3.39,0,1,1-4.79,4.8Z"/><path class="cls-17" d="M437.58,238.66c-14.66-14.68-22-31.11-16.42-36.7s22,1.76,36.68,16.43,22,31.11,16.42,36.7S452.25,253.33,437.58,238.66Z"/><path class="cls-17" d="M474.1,255.25l-.35.29,0,0-.4.28a.41.41,0,0,1-.11.07l-.34.2-.08,0-.43.2-.12,0-.34.13-.13,0-.47.13h0l-.45.1-.15,0-.39.06h-.14l-.52.05h-.08l-.47,0h-.76l-.58,0h-.12a4.43,4.43,0,0,1-.51-.06l-.19,0-.55-.08-.09,0-.67-.13-.18,0-.58-.13-.14,0-.75-.21-.17-.05-.71-.21-.09,0-.88-.3-.16-.06-.88-.33-.15-.06-1.07-.45-.14-.06c-.36-.16-.73-.32-1.1-.5l-.21-.1-.51-.24-.26-.13c-.17-.09-.35-.17-.52-.27a1.51,1.51,0,0,1-.22-.11c-.25-.12-.5-.26-.74-.39l-.12-.06-.64-.35-.17-.1c-.42-.24-.84-.48-1.26-.74l-.16-.09-1.28-.79-.15-.09c-.43-.28-.87-.56-1.31-.86l-.13-.08-1.37-.94-.07-.06c-.48-.34-1-.68-1.45-1l0,0-1.44-1.09-.1-.08-1.37-1.08-.14-.12c-.45-.36-.89-.73-1.34-1.11l-.13-.11c-.74-.63-1.47-1.27-2.21-1.94l-.08-.07c-.58-.52-1.15-1-1.73-1.6l-.13-.13c-.49-.46-1-.93-1.45-1.41l-.27-.27c-.43-.42-.84-.85-1.25-1.27l-.07-.07-1.39-1.47-.06-.07-1.27-1.41-.11-.13c-.4-.45-.8-.9-1.18-1.36l-.14-.16c-.38-.45-.76-.9-1.13-1.36l-.12-.15c-.38-.48-.76-1-1.12-1.42l-.08-.1c-.4-.52-.8-1-1.18-1.56l-.06-.08c-.39-.53-.76-1.06-1.13-1.58l-.09-.13c-.4-.57-.78-1.14-1.15-1.71a1.74,1.74,0,0,1-.11-.18c-.16-.24-.32-.48-.47-.72l-.13-.21c-.18-.29-.36-.57-.53-.86l-.09-.15-.59-1,0-.06-.57-1-.09-.16c-.24-.45-.48-.9-.7-1.34l0-.07c-.24-.46-.46-.92-.67-1.37l-.12-.27a3.73,3.73,0,0,1-.16-.35l-.13-.28-.15-.35-.12-.28c0-.12-.09-.23-.13-.34l-.12-.28L421,215c0-.1-.07-.19-.11-.29s-.08-.21-.11-.31-.07-.2-.11-.29a2.83,2.83,0,0,0-.11-.31l-.09-.28c0-.11-.07-.21-.1-.31l-.09-.28-.09-.3c0-.09-.05-.18-.08-.27s-.06-.2-.08-.3a2.68,2.68,0,0,1-.07-.27c0-.1-.06-.2-.08-.3l-.06-.26c0-.1-.05-.19-.07-.29l-.06-.26a2.74,2.74,0,0,1-.05-.28,2.38,2.38,0,0,1-.05-.26,2.56,2.56,0,0,1-.05-.27c0-.09,0-.17,0-.25a2.51,2.51,0,0,1,0-.27l0-.25a1.24,1.24,0,0,1,0-.27l0-.24c0-.08,0-.17,0-.25s0-.16,0-.24,0-.17,0-.25,0-.16,0-.23v-.48a1.93,1.93,0,0,1,0-.24v-.21c0-.08,0-.16,0-.24s0-.14,0-.21a1.79,1.79,0,0,1,0-.23l0-.21,0-.22a1.77,1.77,0,0,1,0-.2,1.55,1.55,0,0,1,0-.21c0-.07,0-.13,0-.19s0-.14.06-.21a1.05,1.05,0,0,1,0-.19l.06-.2.06-.18a1.67,1.67,0,0,1,.08-.2l.06-.16.09-.2s.05-.1.07-.16l.1-.18.08-.15a1.74,1.74,0,0,0,.11-.18l.09-.14c0-.07.09-.13.13-.19l.09-.12.15-.19.08-.1c.09-.09.17-.19.26-.27L383.7,239.38a3.45,3.45,0,0,0-.26.28l-.08.09-.15.2-.09.12-.13.18-.09.14-.11.18-.08.15c0,.07-.07.13-.1.19l-.07.16-.09.19a1.22,1.22,0,0,1-.07.17c0,.06-.05.13-.07.2l-.06.17-.06.21a1.21,1.21,0,0,0-.05.18l-.06.21c0,.06,0,.13,0,.19s0,.15-.05.22l0,.2,0,.22,0,.21a1.64,1.64,0,0,0,0,.22,1.5,1.5,0,0,0,0,.22c0,.07,0,.15,0,.23a1.62,1.62,0,0,1,0,.22V245c0,.08,0,.15,0,.23s0,.17,0,.25,0,.16,0,.24a2.28,2.28,0,0,0,0,.26c0,.08,0,.16,0,.24l0,.26c0,.09,0,.17,0,.25a2.51,2.51,0,0,0,0,.27,1.87,1.87,0,0,0,0,.25,2.33,2.33,0,0,0,.05.28c0,.08,0,.17,0,.26l.06.28.06.26.06.29c0,.08.05.17.07.26s.05.2.07.29a2.68,2.68,0,0,1,.07.27l.09.3a2.76,2.76,0,0,0,.08.27l.09.31.09.28c0,.1.06.2.1.3l.09.28c0,.11.08.21.11.32s.07.19.1.28l.12.32c0,.09.07.19.11.29s.09.21.13.32.08.19.11.29.1.22.14.33l.12.29.15.34c0,.1.08.19.13.29s.1.23.16.35.07.16.11.25v0c.21.45.43.91.66,1.37l0,.07c.22.44.46.89.7,1.33l0,.06.06.11c.19.34.37.67.57,1l0,.07.59,1a.41.41,0,0,1,.05.09l0,.05c.17.29.35.58.53.87l.13.2.46.73.09.13,0,.05c.37.56.75,1.13,1.15,1.71l0,.05,0,.08c.36.52.74,1,1.13,1.57a.1.1,0,0,0,0,0l0,0c.38.52.77,1,1.18,1.56l0,0,0,.06c.37.48.74,1,1.13,1.42a.18.18,0,0,0,0,.07l.07.09,1.13,1.36.07.08.06.08c.39.45.78.91,1.18,1.36l.07.08,0,.05c.41.47.84.94,1.27,1.41l0,0,0,0c.45.49.92,1,1.39,1.47l0,0,0,.05c.41.43.83.85,1.25,1.28l.2.19.08.08c.48.48,1,.95,1.45,1.41l.07.07.06.06,1.73,1.6,0,0,.05,0c.74.67,1.47,1.31,2.21,1.94l.05,0,.08.07,1.34,1.1.14.12c.46.37.91.73,1.37,1.08l.1.09,1.44,1.08,0,0c.49.36,1,.71,1.46,1.05l.07,0,1.37.94.13.09c.44.29.87.58,1.31.85l.15.1,1.28.79.15.09,1.27.74.08,0,.09,0,.65.36.1.05.75.4.21.11.54.27.24.12.52.25.15.08.05,0,1.11.5.13.06,1.08.45.08,0,.06,0,.89.34.16.06.88.3h0l.07,0,.71.22.17.05.75.2h0l.1,0,.58.14.17,0,.68.13h.09l.55.09.18,0,.52.06h.11l.59,0h1.3l.53,0h0l.09,0,.39-.05.15,0,.45-.09h0l.47-.13.13-.05.35-.12.08,0,0,0,.43-.2.07,0,.35-.19.06,0,.05,0,.4-.28,0,0c.12-.1.23-.19.34-.3l.05,0,.12-.11,37.46-37.43Z"/><path class="cls-18" d="M475.43,200.82c-18.45-18.46-28.21-38.63-21.8-45s26.56,3.35,45,21.81,28.21,38.63,21.8,45S493.88,219.29,475.43,200.82Z"/><path class="cls-16" d="M520.25,222.81l-.4.34,0,0-.47.32-.12.07c-.13.08-.27.15-.41.22l-.09,0c-.16.08-.33.15-.51.22l-.14,0-.4.13-.16,0a4.9,4.9,0,0,1-.55.13h0c-.18,0-.36.06-.55.09l-.17,0-.46,0h-.17l-.63,0h-.86l-.53,0h-.18l-.71-.08-.14,0-.62-.1-.22,0-.67-.13-.1,0-.83-.19-.21-.06-.7-.19-.17,0-.91-.28-.22-.07L507,223l-.1,0-1.08-.41-.2-.08q-.54-.21-1.08-.45l-.17-.08c-.44-.19-.88-.38-1.33-.59l-.16-.08-1.36-.67-.25-.13-.63-.32-.31-.17-.65-.35-.27-.15-.92-.51-.14-.08-.79-.46-.21-.13c-.51-.3-1-.62-1.56-1l-.19-.12-1.58-1-.19-.12q-.81-.54-1.62-1.11l-.16-.1-1.7-1.21-.09-.07c-.6-.43-1.2-.88-1.81-1.34l0,0-1.79-1.38-.13-.11-1.7-1.37-.18-.16c-.56-.45-1.11-.92-1.67-1.4l-.16-.14c-.92-.79-1.85-1.61-2.77-2.45l-.1-.09c-.72-.66-1.44-1.34-2.17-2l-.16-.17c-.61-.58-1.22-1.17-1.83-1.78l-.34-.34c-.53-.53-1.06-1.06-1.58-1.6l-.08-.08L472,197.29l-.07-.08c-.55-.59-1.09-1.18-1.61-1.77l-.15-.16c-.5-.57-1-1.13-1.49-1.7l-.17-.2c-.49-.57-1-1.13-1.44-1.7l-.15-.19c-.49-.59-1-1.18-1.43-1.77l-.1-.12c-.51-.65-1-1.3-1.5-1.94a.76.76,0,0,1-.08-.11c-.5-.65-1-1.31-1.44-2l-.12-.16c-.51-.71-1-1.41-1.48-2.12l-.15-.22-.6-.9-.17-.25c-.23-.36-.46-.71-.68-1.07l-.12-.19-.77-1.24a.56.56,0,0,1-.05-.08c-.25-.42-.5-.83-.74-1.25a2,2,0,0,1-.11-.2c-.32-.55-.63-1.1-.92-1.65l-.05-.08c-.31-.57-.6-1.13-.88-1.69-.05-.11-.1-.22-.16-.33l-.21-.43-.17-.35-.19-.42c-.06-.12-.11-.24-.17-.35l-.18-.41-.15-.35-.18-.4c-.05-.12-.09-.24-.14-.35s-.11-.26-.16-.39l-.14-.35-.15-.38c0-.12-.09-.23-.13-.35s-.09-.25-.14-.37l-.12-.34-.13-.37-.11-.33-.12-.37c0-.1-.06-.21-.1-.32s-.07-.24-.1-.36-.07-.21-.1-.32l-.09-.35c0-.11-.06-.21-.08-.32l-.09-.34c0-.1-.05-.21-.07-.31s-.05-.22-.07-.33-.05-.21-.07-.31l-.06-.33a2.5,2.5,0,0,1-.05-.29c0-.11,0-.22-.05-.32s0-.2-.05-.3,0-.2,0-.31l0-.28,0-.31a2.45,2.45,0,0,1,0-.27c0-.1,0-.2,0-.3s0-.18,0-.27a2.81,2.81,0,0,1,0-.29v-.26a2.53,2.53,0,0,1,0-.28v-.26c0-.09,0-.18,0-.27s0-.17,0-.25l0-.26,0-.24c0-.09,0-.17,0-.26s0-.15,0-.22,0-.17,0-.25a2.25,2.25,0,0,0,.05-.22c0-.08.05-.16.07-.24l.06-.21c0-.08.05-.16.08-.24l.07-.19.09-.23a1.54,1.54,0,0,0,.08-.19,2.12,2.12,0,0,0,.11-.21l.09-.18.12-.21.1-.17.15-.21a.71.71,0,0,1,.1-.14c.05-.08.11-.15.17-.23l.09-.11c.1-.11.19-.21.3-.31l-58.71,58.66c-.1.1-.2.2-.29.31l-.09.12-.18.22a.71.71,0,0,0-.1.14l-.15.21-.09.17-.13.21-.08.18a2.12,2.12,0,0,0-.11.21,1.54,1.54,0,0,0-.08.19c0,.08-.07.15-.1.23s0,.13-.07.2-.05.15-.08.23l-.06.21-.06.24a1.74,1.74,0,0,0-.05.22l-.06.25a2.23,2.23,0,0,1,0,.23c0,.08,0,.17,0,.25l0,.24,0,.26a2,2,0,0,1,0,.25c0,.09,0,.18,0,.27a2.26,2.26,0,0,0,0,.26c0,.09,0,.18,0,.28a2.26,2.26,0,0,0,0,.26v.29c0,.09,0,.18,0,.27s0,.2,0,.3a2.45,2.45,0,0,1,0,.27l0,.31a2.7,2.7,0,0,0,0,.28c0,.11,0,.21,0,.32s0,.19,0,.29,0,.21,0,.32,0,.2.05.3,0,.21.07.32l.06.31c0,.11.05.22.07.33s.05.21.08.31,0,.23.08.35.05.21.08.31.07.23.1.35l.09.32c0,.12.07.24.11.36s.06.22.1.33l.12.36c0,.11.07.22.11.33l.12.37c0,.11.08.23.13.34s.09.25.13.37.09.23.13.35l.15.38.14.35.16.39.15.35c.05.13.11.26.17.4l.15.35c.06.14.13.27.19.41s.1.23.16.35.13.28.2.42.11.23.16.35.14.29.22.43.09.21.15.31v0c.28.56.57,1.12.87,1.69l0,.08c.29.55.6,1.1.92,1.65l0,.07a.57.57,0,0,0,.08.13c.24.42.48.83.74,1.25l.05.09.76,1.24a1,1,0,0,0,.08.11.16.16,0,0,0,0,.07c.22.36.45.71.69,1.07.05.09.11.17.16.25l.6.9a1.63,1.63,0,0,1,.11.17l0,.05c.48.71,1,1.41,1.48,2.12l.05.07.07.09c.46.65.94,1.3,1.44,2l.05.07,0,0,1.5,1.94,0,0,.06.08c.47.59.94,1.18,1.43,1.77l.07.08.09.11c.47.57.95,1.14,1.43,1.7l.09.11.08.09c.49.57,1,1.14,1.5,1.7l.08.1.06.06c.53.59,1.06,1.18,1.61,1.77l.05.06,0,0c.57.62,1.15,1.23,1.75,1.85l0,0,.06.06c.52.54,1,1.07,1.57,1.6l.25.25.1.1c.6.6,1.21,1.19,1.82,1.77a.94.94,0,0,0,.1.1l.07.07c.72.68,1.44,1.36,2.16,2l0,.05.06.05c.92.84,1.84,1.66,2.76,2.45l.07.06.1.08c.55.48,1.11.95,1.66,1.41l.18.15c.57.47,1.14.92,1.71,1.37l.13.11,1.78,1.39,0,0c.6.46,1.2.91,1.8,1.34l.09.07,1.7,1.21a.91.91,0,0,1,.16.11l1.63,1.1.18.12q.8.53,1.59,1l.18.12,1.57,1,.1.06.1.06.81.47.13.07.91.52.26.14.66.35.31.17.63.32.19.1.06,0,1.36.67.17.08c.44.21.88.4,1.32.59l.1,0,.07,0,1.08.45.2.08,1.08.41h0l.09,0,.86.3.21.07.91.28,0,0,.12,0,.7.19.22.06c.28.07.55.14.82.19h0l.08,0,.68.13.22,0,.62.1H454l.71.08h.17l.53,0h.86l.63,0H457l.46-.05.18,0,.54-.09h0l.56-.14.15,0,.41-.13.09,0,.05,0,.51-.22.08,0c.14-.07.28-.14.41-.22l.07,0,.06,0,.47-.32,0,0,.4-.34s0,0,.05-.05l.13-.12,58.71-58.66Z"/><path class="cls-19" d="M459.92,165.41a3.75,3.75,0,0,1,0-5.31l21.23-21.23a3.75,3.75,0,0,1,5.31,5.31l-21.23,21.23A3.75,3.75,0,0,1,459.92,165.41Z"/><path class="cls-19" d="M510.76,216.26a3.77,3.77,0,0,1,0-5.31L532,189.72a3.75,3.75,0,0,1,5.31,5.31l-21.24,21.23A3.75,3.75,0,0,1,510.76,216.26Z"/><path class="cls-19" d="M480.31,195.08a3.74,3.74,0,0,1,0-5.3l21.23-21.24a3.75,3.75,0,1,1,5.31,5.31l-21.23,21.23A3.75,3.75,0,0,1,480.31,195.08Z"/><path class="cls-18" d="M530.89,145.36c-18.45-18.46-28.21-38.63-21.8-45s26.56,3.35,45,21.81,28.21,38.63,21.8,45.05S549.34,163.83,530.89,145.36Z"/><path class="cls-16" d="M575.71,167.35l-.4.34,0,0-.47.32-.12.07c-.13.08-.27.15-.41.22l-.09,0c-.16.08-.33.15-.51.22l-.14,0-.4.14-.16,0a4.9,4.9,0,0,1-.55.13h0c-.18,0-.36.06-.55.09l-.17,0-.46.05H571l-.63,0h-.86l-.53,0h-.18l-.71-.08-.14,0-.62-.09-.22,0-.67-.13-.1,0-.83-.19-.21-.06-.7-.19-.17-.05-.91-.28-.22-.07-.86-.3-.1,0-1.08-.41-.2-.08q-.54-.21-1.08-.45l-.17-.08c-.44-.19-.88-.38-1.33-.59l-.16-.08-1.36-.67-.25-.13-.63-.32-.31-.17-.65-.35-.27-.15c-.3-.16-.61-.33-.91-.51l-.15-.08L553,163l-.21-.13c-.51-.3-1-.62-1.56-1l-.19-.12-1.58-1-.19-.12-1.62-1.11-.16-.1-1.7-1.21-.09-.07c-.6-.43-1.2-.88-1.81-1.34l0,0-1.79-1.38-.13-.11-1.7-1.37-.18-.16c-.56-.45-1.11-.92-1.67-1.4l-.16-.14c-.92-.79-1.85-1.61-2.77-2.45l-.1-.09c-.72-.66-1.44-1.34-2.16-2l-.17-.17c-.61-.58-1.22-1.17-1.83-1.78l-.34-.34c-.53-.53-1.06-1.06-1.57-1.6l-.09-.08-1.75-1.85-.07-.08c-.55-.59-1.09-1.18-1.61-1.77l-.15-.16c-.5-.57-1-1.13-1.49-1.7l-.17-.2c-.49-.57-1-1.13-1.44-1.7l-.15-.19c-.49-.59-1-1.18-1.43-1.77l-.1-.12c-.51-.65-1-1.3-1.5-1.94a.76.76,0,0,1-.08-.11c-.5-.65-1-1.31-1.44-2l-.12-.16c-.51-.71-1-1.41-1.48-2.12l-.15-.22-.6-.9-.17-.25c-.23-.36-.46-.71-.68-1.07l-.12-.19-.77-1.24a.56.56,0,0,1,0-.08c-.25-.42-.5-.83-.74-1.25a2,2,0,0,1-.11-.2c-.32-.55-.63-1.11-.92-1.65l-.05-.08c-.3-.57-.6-1.13-.88-1.69-.05-.11-.1-.22-.16-.33l-.21-.43-.17-.35-.19-.42c-.06-.12-.11-.24-.17-.35l-.18-.41-.15-.35-.18-.4c-.05-.12-.09-.24-.14-.35s-.11-.26-.16-.39-.1-.24-.14-.35l-.15-.38c0-.12-.09-.23-.13-.35s-.09-.25-.14-.37l-.12-.34-.13-.37c0-.11-.07-.22-.11-.33l-.12-.37c0-.1-.06-.21-.1-.32s-.07-.24-.1-.36-.07-.21-.1-.32l-.09-.35c0-.11-.06-.21-.08-.32l-.09-.34c0-.1-.05-.21-.07-.31s-.05-.22-.07-.33-.05-.21-.07-.31l-.06-.33a2.93,2.93,0,0,1-.05-.29c0-.11,0-.22-.05-.32s0-.2-.05-.3,0-.2,0-.31l0-.28,0-.31a2.45,2.45,0,0,1,0-.27c0-.1,0-.2,0-.3s0-.18,0-.27a2.81,2.81,0,0,1,0-.29v-.26a2.53,2.53,0,0,1,0-.28v-.26c0-.09,0-.18,0-.27s0-.17,0-.25l0-.26,0-.24c0-.09,0-.17,0-.26s0-.15,0-.22,0-.17.05-.25a2.25,2.25,0,0,0,.05-.22c0-.08,0-.16.07-.24l.06-.21c0-.08,0-.16.08-.24l.07-.19.09-.23a1.54,1.54,0,0,0,.08-.19,1.51,1.51,0,0,0,.11-.22l.09-.17.12-.21.1-.17.15-.21a.71.71,0,0,1,.1-.14c.05-.08.11-.15.17-.23l.09-.11c.1-.11.19-.21.3-.31l-42.94,42.89c-.11.1-.2.21-.3.32l-.09.11-.18.22-.09.15-.15.21a1.4,1.4,0,0,1-.1.16l-.12.21-.09.18-.11.22a1.42,1.42,0,0,1-.08.18l-.09.23c0,.07-.05.13-.07.2l-.08.23-.06.21c0,.08-.05.16-.07.24a1.42,1.42,0,0,1-.05.22c0,.08,0,.17-.05.25a1.85,1.85,0,0,0,0,.23c0,.08,0,.17,0,.26l0,.23,0,.27c0,.08,0,.16,0,.24s0,.19,0,.28a2.09,2.09,0,0,1,0,.25v.55a2.62,2.62,0,0,0,0,.28,2.44,2.44,0,0,0,0,.27c0,.1,0,.2,0,.3a2.64,2.64,0,0,0,0,.28l0,.3,0,.29c0,.1,0,.21,0,.31a2.89,2.89,0,0,1,0,.29l.06.32c0,.1,0,.2.05.3l.06.33.06.3c0,.11.05.22.08.34s.05.2.07.31l.09.34c0,.1,0,.21.08.32l.09.35c0,.1.06.21.1.32s.07.23.1.35.07.22.1.33l.12.36c0,.11.07.23.11.34s.09.24.13.37l.12.34c.05.12.09.24.14.37s.08.23.13.34l.15.39c0,.11.09.23.14.34s.1.26.16.39.09.24.14.35l.18.4.15.35.18.41c.06.12.11.24.16.35s.14.28.2.42.11.24.17.35l.21.44.15.3v0c.28.55.57,1.11.88,1.68l.05.09c.29.54.6,1.09.91,1.64l0,.08s.05.08.07.13l.74,1.25.05.08.77,1.24.07.12a.21.21,0,0,1,0,.06c.23.36.46.72.7,1.08l.16.24c.19.3.4.61.6.91l.11.16,0,.06c.47.7,1,1.41,1.48,2.12l0,.07.06.09q.71,1,1.44,1.95l.05.07,0,0c.48.65,1,1.29,1.5,1.94l0,.05.07.07c.46.59.94,1.18,1.43,1.77l.07.09.08.1q.7.85,1.44,1.71l.09.1.08.09,1.49,1.71.09.1.06.06c.52.59,1.06,1.18,1.61,1.76l0,.06,0,0c.58.62,1.16,1.24,1.75,1.85l0,0,.06.06,1.58,1.6.25.25.09.09,1.83,1.78.09.09a.46.46,0,0,1,.07.07c.72.69,1.44,1.36,2.17,2l.05,0a.12.12,0,0,0,.05.05c.92.84,1.85,1.66,2.77,2.45l.06.06.1.09,1.67,1.4.18.15,1.7,1.38.13.1c.6.48,1.2.94,1.79,1.39l0,0,1.81,1.35.09.06c.57.42,1.14.82,1.7,1.21l.16.11c.54.38,1.08.74,1.62,1.1l.19.13c.53.35,1.06.69,1.58,1l.19.12,1.57,1,.09.06.11.06.8.47.13.07.92.52.26.14.66.36.31.16.63.33.19.1.06,0,1.36.66.16.08,1.32.6.1,0,.08,0q.54.24,1.08.45l.2.08,1.08.42h0l.08,0,.86.3.22.07.91.29h0l.12,0,.71.2.21,0,.83.2h0l.08,0,.67.13.22,0,.62.1.11,0h0l.71.08.18,0,.53,0h.86l.63,0h.17l.46,0,.17,0,.55-.09h0l.56-.13.16-.05.4-.13.1,0,0,0,.51-.21.09-.05.41-.22.07,0,.05,0a4.87,4.87,0,0,0,.47-.32l0,0c.14-.1.27-.22.4-.33l.06-.05.13-.13,42.94-42.89Z"/><path class="cls-18" d="M552.3,123.94C538,109.63,530.43,94,535.4,89s20.59,2.6,34.89,16.91,21.88,29.95,16.91,34.93S566.6,138.26,552.3,123.94Z"/><path class="cls-16" d="M587.05,141a3.88,3.88,0,0,1-.31.26l0,0-.36.24-.1.06-.32.17-.06,0-.4.17-.11,0-.31.1-.12,0-.44.11h0l-.43.07-.13,0-.36,0h-.13l-.49,0h-.67l-.41,0h-.13l-.55-.06-.11,0-.48-.07-.17,0-.53-.11-.08,0-.63-.15-.17,0-.54-.15-.13,0-.71-.22-.17,0-.66-.23-.09,0-.83-.32-.16-.06-.83-.35-.14-.06-1-.46-.13-.07q-.52-.24-1.05-.51l-.2-.1-.49-.25-.24-.13-.5-.27-.21-.12-.71-.4-.11-.06-.61-.36-.16-.09-1.22-.74-.15-.1c-.4-.25-.81-.51-1.22-.79l-.15-.09-1.26-.86-.12-.08-1.32-.94-.07-.05c-.46-.34-.93-.68-1.4-1l0,0L561,131.72l-.1-.08-1.32-1.07-.14-.12-1.29-1.09-.13-.11c-.71-.61-1.43-1.25-2.14-1.9l-.08-.07c-.56-.51-1.12-1-1.68-1.57l-.13-.12c-.47-.45-1-.91-1.42-1.38l-.26-.27c-.41-.41-.82-.82-1.22-1.24l-.06-.06-1.36-1.43-.06-.07c-.42-.45-.84-.91-1.25-1.37l-.11-.12-1.16-1.32-.13-.15-1.11-1.32-.13-.15-1.1-1.37-.08-.1c-.4-.5-.79-1-1.16-1.5l-.07-.09c-.38-.5-.75-1-1.11-1.51l-.09-.13c-.4-.55-.78-1.1-1.15-1.64l-.12-.17c-.15-.24-.31-.47-.46-.7,0-.07-.09-.13-.13-.19l-.53-.83-.1-.15c-.2-.32-.4-.64-.59-1l0-.06c-.19-.33-.39-.65-.57-1l-.09-.15c-.25-.43-.49-.86-.71-1.28l0-.06c-.24-.44-.46-.88-.68-1.31,0-.09-.08-.17-.13-.26l-.16-.33-.13-.27-.15-.33-.13-.27c0-.11-.09-.21-.14-.32l-.12-.27-.13-.31-.12-.27-.12-.3-.11-.27c0-.1-.08-.2-.11-.3s-.07-.18-.1-.27a2.49,2.49,0,0,1-.11-.29l-.09-.26c0-.09-.07-.19-.1-.28l-.09-.26-.09-.29c0-.08,0-.16-.08-.25a2.29,2.29,0,0,1-.08-.28,2.17,2.17,0,0,1-.07-.24c0-.1,0-.19-.08-.28l-.06-.24c0-.09,0-.18-.07-.27a2,2,0,0,1-.05-.24l-.06-.26c0-.08,0-.15-.05-.23s0-.17,0-.26,0-.15,0-.23,0-.16,0-.25l0-.22,0-.24,0-.23a1.64,1.64,0,0,1,0-.23c0-.07,0-.14,0-.22s0-.15,0-.23a1.48,1.48,0,0,1,0-.21,1.55,1.55,0,0,1,0-.22v-.2a1.55,1.55,0,0,1,0-.22v-.2c0-.07,0-.14,0-.21a1.21,1.21,0,0,1,0-.19c0-.07,0-.14,0-.2l0-.19,0-.2,0-.18c0-.06,0-.12,0-.19s0-.11,0-.17,0-.12,0-.18l.05-.17.06-.18c0-.05,0-.1,0-.15l.08-.18.06-.14a.89.89,0,0,1,.08-.17s.05-.09.07-.14a1.4,1.4,0,0,1,.1-.16c0-.05,0-.09.07-.13l.11-.16.08-.12s.09-.11.14-.17l.07-.09.23-.24L518,106.35l-.23.24-.07.09-.13.17a.83.83,0,0,0-.08.12.91.91,0,0,0-.11.16l-.08.13-.09.16-.07.14-.09.17-.06.14-.07.18-.06.15-.06.18c0,.06,0,.11,0,.17l-.06.18,0,.17c0,.07,0,.13-.05.19l0,.18,0,.2a1.1,1.1,0,0,0,0,.18,1.49,1.49,0,0,0,0,.21,1.23,1.23,0,0,0,0,.19c0,.07,0,.14,0,.21a1.34,1.34,0,0,0,0,.2v.64c0,.07,0,.14,0,.21s0,.16,0,.23,0,.15,0,.22l0,.24a1.8,1.8,0,0,0,0,.22l0,.24a1.7,1.7,0,0,0,0,.22,1.87,1.87,0,0,0,0,.25,1.57,1.57,0,0,0,0,.23,2.38,2.38,0,0,0,0,.26c0,.08,0,.15,0,.23l.06.26.06.24.06.27a2.17,2.17,0,0,0,.07.24c0,.09,0,.18.07.28s.05.16.07.25l.09.27c0,.09,0,.17.07.26l.09.28.09.25c0,.1.07.2.1.29l.09.26c0,.1.07.2.11.29l.1.27.12.3.1.27.13.3.11.27c.05.1.09.21.14.31l.11.27.15.32.12.27.16.33.12.27.17.33.12.24v0c.21.43.44.87.67,1.31l0,.06.71,1.28,0,.06a.33.33,0,0,1,.06.1l.58,1,0,.06c.19.32.39.64.59,1l.06.09,0,0q.25.42.54.84l.12.19.47.7a.57.57,0,0,1,.08.13l0,0c.37.54.76,1.09,1.15,1.64l0,.06.05.07c.36.5.73,1,1.12,1.51l0,.06,0,0q.57.75,1.17,1.5l0,0,0,.07,1.11,1.37,0,.06.07.09,1.12,1.32.06.08a.46.46,0,0,1,.07.07c.38.44.76.88,1.16,1.32l.06.08,0,0c.4.46.82.92,1.25,1.37l0,.05,0,0,1.36,1.43,0,0,0,0,1.22,1.24.2.2.07.07q.7.71,1.41,1.38l.08.07.06,0c.55.54,1.11,1.06,1.67,1.57l0,0s0,0,0,0c.72.65,1.43,1.29,2.15,1.9,0,0,0,0,.05,0l.08.06,1.29,1.09.14.12,1.32,1.07.1.08,1.38,1.07,0,0c.47.36.93.7,1.4,1l.07,0c.44.32.88.64,1.32.94l.12.08c.42.3.84.58,1.26.86l.15.09c.41.28.82.54,1.22.79l.15.1,1.21.74.08,0,.08,0,.62.36.1.06.72.4.2.11.51.28.23.12.5.26.14.08,0,0,1.05.52.13.06,1,.46.07,0,.06,0,.84.35.15.06.84.32h0l.06,0,.67.23.16.05c.24.08.48.16.71.22h0l.09,0,.55.15.16,0,.64.15h.08l.52.11.17,0,.48.07h.11l.55.06h.14l.41,0h.67l.48,0h.14l.35,0,.14,0,.42-.07h0l.43-.11.12,0,.32-.1.07,0h0l.4-.17.07,0a3.07,3.07,0,0,0,.31-.17l.06,0,0,0a3.22,3.22,0,0,0,.36-.24l0,0a3.73,3.73,0,0,0,.3-.26.1.1,0,0,0,.05,0l.1-.09,17.37-17.33Z"/><path class="cls-18" d="M560.62,115.62c-14.3-14.31-21.87-29.95-16.9-34.92s20.59,2.59,34.9,16.91,21.87,30,16.9,34.92S574.93,129.94,560.62,115.62Z"/><path class="cls-17" d="M595.37,132.67a3.88,3.88,0,0,1-.31.26l0,0c-.11.09-.24.17-.36.25l-.1.06-.31.17-.07,0-.4.17-.11,0-.31.11-.12,0-.43.1h0l-.42.07-.14,0-.36,0h-.13l-.49,0h-.67l-.41,0H590l-.55-.07h-.11l-.48-.08-.17,0-.52-.1-.08,0c-.21,0-.43-.09-.64-.15l-.17,0-.54-.15-.13,0-.71-.22-.16,0c-.22-.08-.45-.15-.67-.24l-.08,0-.84-.32-.16-.07-.83-.34-.14-.06-1-.47-.13-.06q-.52-.24-1-.51l-.2-.1-.48-.26-.25-.12-.5-.28-.21-.11-.71-.4-.11-.06-.61-.36-.16-.1c-.4-.23-.81-.48-1.21-.74l-.15-.09c-.41-.25-.82-.52-1.23-.79l-.14-.09-1.26-.86-.12-.08-1.32-.94-.07,0-1.4-1,0,0q-.69-.52-1.38-1.08l-.1-.08c-.44-.35-.88-.7-1.32-1.07l-.15-.11L566.46,121l-.13-.11c-.71-.62-1.43-1.25-2.14-1.9l-.08-.07c-.56-.51-1.12-1-1.68-1.57l-.13-.12-1.41-1.38-.27-.27c-.41-.41-.82-.82-1.22-1.24l-.06-.06L558,112.88l-.06-.06c-.42-.46-.84-.91-1.25-1.37l-.11-.12L555.4,110l-.13-.16q-.57-.66-1.11-1.32l-.12-.15c-.38-.45-.75-.91-1.11-1.37l-.08-.09-1.16-1.51-.06-.08c-.39-.51-.76-1-1.12-1.51l-.09-.13c-.4-.55-.78-1.1-1.15-1.64a1.74,1.74,0,0,1-.11-.18l-.47-.69-.13-.2c-.18-.27-.36-.55-.53-.83l-.09-.14c-.21-.32-.4-.65-.6-1l0-.05-.58-1-.09-.15c-.25-.43-.48-.86-.71-1.28l0-.07-.68-1.3-.12-.26-.17-.33c0-.09-.08-.18-.13-.27l-.15-.33-.12-.27-.15-.32-.12-.27c0-.11-.09-.21-.13-.31s-.08-.18-.11-.27-.09-.21-.13-.3-.07-.19-.11-.28l-.11-.29c0-.09-.07-.18-.1-.27l-.11-.29-.09-.26c0-.1-.07-.19-.1-.29l-.09-.26-.09-.28c0-.08-.05-.17-.08-.25s0-.19-.08-.28,0-.16-.07-.25-.05-.18-.08-.27l-.06-.24-.06-.27-.06-.24-.06-.26c0-.08,0-.16,0-.24s0-.16-.05-.25a1.85,1.85,0,0,0,0-.23,2.17,2.17,0,0,0,0-.25l0-.22,0-.25,0-.22c0-.08,0-.15,0-.23s0-.15,0-.22,0-.15,0-.23,0-.14,0-.21v-.22a1.48,1.48,0,0,1,0-.21c0-.07,0-.14,0-.21v-.2c0-.07,0-.14,0-.21s0-.13,0-.19l0-.21a1.1,1.1,0,0,1,0-.18l0-.2,0-.18c0-.06,0-.13,0-.19a1,1,0,0,0,0-.17,1.33,1.33,0,0,0,.05-.19s0-.11,0-.16l.06-.18.06-.15a1.34,1.34,0,0,1,.07-.18l.06-.15a1.19,1.19,0,0,0,.08-.16s0-.1.07-.14l.1-.17.07-.12.12-.17.07-.11.14-.17.07-.09.23-.24L535.38,89a2.73,2.73,0,0,0-.23.25l-.07.08-.14.18-.07.11-.12.16-.07.13-.1.16a.61.61,0,0,1-.07.14,1.3,1.3,0,0,1-.08.17l-.06.14a1.34,1.34,0,0,0-.07.18l-.06.15-.06.19s0,.1,0,.16a1.21,1.21,0,0,1,0,.18.85.85,0,0,1,0,.17c0,.07,0,.13,0,.2l0,.17,0,.2a1.23,1.23,0,0,0,0,.19l0,.2c0,.07,0,.13,0,.19s0,.14,0,.22v.19c0,.07,0,.15,0,.22v.2a1.77,1.77,0,0,1,0,.23c0,.07,0,.14,0,.21s0,.15,0,.23,0,.14,0,.21,0,.16,0,.24l0,.22,0,.24,0,.23a517560305033.71,517560305033.71,0,0,0,.08.48,1.84,1.84,0,0,1,0,.25c0,.08,0,.16.05.24l.06.25c0,.09,0,.17,0,.25a2,2,0,0,1,.07.26l.06.25c0,.09.05.18.08.27s0,.16.07.25,0,.18.08.27l.08.26.09.28.09.26c0,.09.06.19.1.28l.09.27c0,.09.07.19.11.29a2.77,2.77,0,0,0,.1.26c0,.1.08.2.11.3l.11.27c0,.1.08.2.13.3s.07.18.11.27.09.21.13.31l.12.28.15.31.12.27.15.33c0,.09.09.18.13.27l.17.34.11.23v0l.68,1.31,0,.07c.23.42.46.84.71,1.27l0,.06.06.1.57,1,0,.06.6,1a.41.41,0,0,1,0,.09l0,0,.53.83.13.19.47.7.08.13,0,0c.37.55.75,1.09,1.15,1.65l0,0,0,.07c.36.5.73,1,1.12,1.51l0,.06,0,0,1.16,1.5,0,0,.05.06,1.11,1.37,0,.07.07.08c.36.44.74.88,1.11,1.32l.07.08.06.07,1.16,1.32.07.08,0,.05,1.25,1.37,0,0,0,0,1.36,1.43v0l0,0,1.22,1.24c.07.06.13.13.19.19l.08.07q.71.7,1.41,1.38l.08.07.05.06q.84.8,1.68,1.56l0,0s0,0,0,0c.72.65,1.43,1.28,2.14,1.89l.06.05.07.06c.43.37.86.74,1.29,1.09l.15.12,1.32,1.07.1.08c.46.37.92.72,1.38,1.07l0,0c.46.36.93.71,1.4,1l.07,0c.44.33.88.64,1.32.94l.12.09,1.26.85.14.1,1.23.79.14.09,1.22.74.08.05.08.05.62.36.1.06c.24.13.48.26.71.4l.2.11.52.27.23.13.49.25.15.08,0,0,1.05.52.13.06,1,.46.08,0,.06,0,.83.35.16.06.84.32h0l.07,0,.67.23.16.06.71.22h0l.1,0a5.44,5.44,0,0,0,.54.15l.17.05.64.15h.08l.52.11.17,0,.48.07.08,0h0l.55.06h.13l.41,0h1.29l.36,0,.14,0,.42-.07h0l.43-.1.12,0,.31-.1.08,0,0,0a2.83,2.83,0,0,0,.4-.17l.07,0,.31-.17.06,0,0,0a2.82,2.82,0,0,0,.36-.24l0,0A3.88,3.88,0,0,0,587,141l.05,0,.1-.1,8.34-8.31Z"/><rect class="cls-17" x="556.69" y="226.22" width="84.46" height="139.14" rx="4.19" ry="4.19" transform="translate(-33.73 510.14) rotate(-45)"/><ellipse class="cls-16" cx="378.91" cy="296.48" rx="25.31" ry="103.98" transform="translate(-98.66 354.77) rotate(-45)"/><path class="cls-17" d="M331.12,345.12a3.39,3.39,0,0,1,2.2-5.78l110.32-6.43a3.39,3.39,0,0,1,.4,6.76l-110.33,6.44A3.38,3.38,0,0,1,331.12,345.12Z"/><path class="cls-17" d="M331.12,345.12a3.38,3.38,0,0,1-1-2.59l6.48-110.64a3.39,3.39,0,0,1,6.77.4L336.9,342.92a3.4,3.4,0,0,1-3.58,3.19A3.34,3.34,0,0,1,331.12,345.12Z"/><path class="cls-17" d="M331.12,345.12a3.37,3.37,0,0,1,0-4.79l63.71-63.72a3.39,3.39,0,1,1,4.8,4.8l-63.72,63.71A3.37,3.37,0,0,1,331.12,345.12Z"/><ellipse class="cls-16" cx="333.5" cy="342.71" rx="5.13" ry="12.17" transform="translate(-144.65 336.2) rotate(-45)"/><path class="cls-17" d="M325.61,350.62c2.71,2.72,4.14,5.68,3.2,6.63s-3.9-.5-6.62-3.21-4.14-5.68-3.2-6.62S322.89,347.91,325.61,350.62Z"/><path class="cls-18" d="M319,347.39l.05-.05h0l.07,0h0l.06,0h0l.08,0h0l.06,0h0l.08,0h.65l.09,0h0l.09,0h0l.12,0h0l.11,0h0l.13,0h0l.12,0h0l.16.06h0l.15.07h0a1.63,1.63,0,0,1,.19.09h0l.2.09,0,0,.09,0,0,0a.31.31,0,0,1,.1.05l0,0,.13.07,0,0,.12.06,0,0,.23.14,0,0,.23.15,0,0,.24.16,0,0,.25.17h0l.27.2h0l.27.2h0l.25.21,0,0,.25.21,0,0c.14.11.27.23.41.36h0l.32.3,0,0,.27.26.05.05.23.24h0l.26.27h0l.23.26,0,0,.22.25,0,0,.21.25,0,0a1.71,1.71,0,0,1,.21.26h0l.22.29h0l.21.29,0,0a3.46,3.46,0,0,1,.22.31l0,0,.09.13,0,0a.86.86,0,0,1,.1.16l0,0,.11.19h0l.11.18,0,0,.13.24v0l.13.24,0,.05,0,.07,0,.05,0,.06,0,0,0,.06,0,.05,0,.06,0,.05,0,.06,0,.05,0,.06,0,0,0,.05,0,.05,0,.06v.05l0,.05,0,0v.05l0,.05v.15l0,0v1.11l0,0V357l0,0,0,0v0l0,0,0,0,0,0,0,0,0,.05,7.91-7.9,0-.05v0l0,0v0l0,0v0l0,0v0l0,0v-1.32l0,0v-.05l0-.05v-.05l0-.05,0,0v-.06l0-.05,0-.05,0-.05,0-.06,0-.05,0-.06,0,0,0-.06,0-.05,0-.06,0-.05,0-.06,0-.05,0-.07,0,0h0l-.12-.25v0l-.14-.24h0v0a1.74,1.74,0,0,1-.11-.18h0l-.11-.19h0l-.1-.16,0,0-.08-.13,0,0h0l-.21-.31h0v0l-.21-.28h0l-.23-.29h0l-.21-.26v0h0l-.21-.25,0,0h0c-.07-.08-.14-.17-.22-.25v0h0l-.24-.25h0l-.25-.27h0l-.24-.24,0,0,0,0-.27-.26h0l-.32-.3h0l-.41-.36h0l-.24-.21,0,0a2.43,2.43,0,0,0-.25-.2l0,0-.26-.2h0l-.27-.19h0l-.25-.18,0,0-.24-.16,0,0-.24-.15,0,0-.23-.14h0l-.12-.07h0L330,340l0,0-.1,0-.05,0-.09-.05h0a1.24,1.24,0,0,0-.2-.1h0l-.19-.09h0l-.16-.07h0l-.16-.06h0l-.13,0h0l-.13,0h0l-.1,0h0l-.12,0h0l-.1,0h0l-.09,0h-.57l-.08,0h0l-.09,0h0l-.06,0h0l-.07,0h0l-.07,0h0a.18.18,0,0,0-.07.05h0l-.06.05h0l0,0-7.9,7.9Z"/><path class="cls-18" d="M396.81,278.58c40.6,40.61,65.51,81.54,55.63,91.43,16.62-16.62.31-66.16-40.29-106.77S322,206.34,305.39,223C315.27,213.07,356.2,238,396.81,278.58Z"/><polygon class="cls-18" points="603.72 295.79 631.18 268.32 626.38 263.53 598.92 290.99 552.13 244.2 547.33 248.99 594.13 295.79 566.66 323.25 566.66 323.25 571.46 328.04 571.46 328.04 598.92 300.58 645.72 347.38 650.51 342.58 603.72 295.79"/><path class="cls-16" d="M572.1,107.51a3.39,3.39,0,0,1-2.39-5.78l12.36-12.37a3.39,3.39,0,1,1,4.8,4.8L574.5,106.52A3.38,3.38,0,0,1,572.1,107.51Z"/></g></g></g></svg>