<svg xmlns="http://www.w3.org/2000/svg" xmlns:xlink="http://www.w3.org/1999/xlink" viewBox="0 0 532 469.26"><defs><style>.cls-1,.cls-12,.cls-2{fill:#fff;}.cls-12,.cls-2{mix-blend-mode:overlay;}.cls-3{fill:url(#radial-gradient);}.cls-4{isolation:isolate;}.cls-5{fill:url(#Degradado_sin_nombre_45);}.cls-6{fill:#3bace0;}.cls-7{mask:url(#mask);}.cls-8{opacity:0.9;}.cls-9{fill:#d7e02b;}.cls-10{fill:#edf8ff;}.cls-11{fill:#ffe2bc;}.cls-12{opacity:0.2;}.cls-13{mask:url(#mask-2);}.cls-14,.cls-16{fill:#7f8083;}.cls-14{opacity:0.7;}.cls-14,.cls-15{mix-blend-mode:multiply;}.cls-15{opacity:0.4;}.cls-17{fill:#384344;}.cls-18{fill:#86a7b5;}.cls-19{fill:#e9f4f6;}.cls-20{fill:#d93c2b;}</style><radialGradient id="radial-gradient" cx="-977.15" cy="1650.34" r="221.23" gradientTransform="translate(701.95 -1688.03) rotate(-15.35) scale(1.02)" gradientUnits="userSpaceOnUse"><stop offset="0"/><stop offset="0.22" stop-color="#3d3d3d"/><stop offset="0.73" stop-color="#c7c7c7"/><stop offset="0.95" stop-color="#fff"/></radialGradient><radialGradient id="Degradado_sin_nombre_45" cx="266" cy="234.63" r="250.8" gradientUnits="userSpaceOnUse"><stop offset="0.69" stop-color="#002165"/><stop offset="1" stop-color="#000042"/></radialGradient><mask id="mask" x="25.79" y="110.43" width="302.88" height="307.49" maskUnits="userSpaceOnUse"><path class="cls-1" d="M300.56,174a150.46,150.46,0,0,0-202-41c-4.65,3-9.34,6.31-14.63,10.36A150.43,150.43,0,0,0,55.41,347.46c2.8,4,5.78,7.75,8.88,11.37L63,358.14a150.44,150.44,0,0,0,197.23,28.57q2-1.27,3.91-2.63l.56-.37.24-.18.25-.17c.18-.13.35-.27.54-.4q1.9-1.38,3.77-2.81a150.42,150.42,0,0,0,38.65-195.5l.21,1.48Q304.77,179.94,300.56,174Z"/><path class="cls-2" d="M215,115.14A150.14,150.14,0,0,0,98.56,133c-4.65,3-9.34,6.31-14.63,10.36A150.43,150.43,0,0,0,55.41,347.46c2.8,4,5.78,7.75,8.88,11.37L63,358.14a150.16,150.16,0,0,0,101.49,52.57Z"/></mask><mask id="mask-2" x="25.03" y="108.32" width="306.19" height="306.19" maskUnits="userSpaceOnUse"><path class="cls-3" d="M302.62,173A153.08,153.08,0,0,0,97.08,131.26c-4.73,3-9.5,6.42-14.89,10.53a153.11,153.11,0,0,0-29,207.73c2.85,4,5.88,7.88,9,11.56l-1.36-.7a153.09,153.09,0,0,0,200.69,29.08c1.34-.87,2.66-1.76,4-2.68l.57-.38.25-.18.25-.17c.19-.14.36-.28.55-.41q2-1.41,3.84-2.86a153.09,153.09,0,0,0,39.33-198.94l.21,1.51Q306.91,179.05,302.62,173Z"/></mask></defs><title>pngRecurso 2resultado</title><g class="cls-4"><g id="Capa_2" data-name="Capa 2"><g id="Capa_1-2" data-name="Capa 1"><ellipse class="cls-5" cx="266" cy="234.63" rx="266" ry="234.63"/><path class="cls-6" d="M323.53,222.36a149.19,149.19,0,0,0-10.3-27.47c-.62-1.27-1.26-2.54-1.93-3.8-1-2-2.14-4-3.28-5.9l.2,1.48q-3.54-6.19-7.75-12.16a150.32,150.32,0,0,0-202-41c-4.64,3-9.33,6.31-14.63,10.35a150.65,150.65,0,0,0-15.67,14.53l0,0a149.09,149.09,0,0,0-17.77,23.18s0,0,0,0l0,0v0l-.33.52-.09.15-1,1.58a1.4,1.4,0,0,1-.1.16l-1,1.64-.27.48c-.29.5-.58,1-.86,1.52s-.68,1.22-1,1.83l-.68,1.27-.12.25c-.16.29-.31.58-.46.87-.45.87-.89,1.74-1.32,2.62-.16.32-.32.64-.47,1l-.57,1.19c-.14.3-.29.6-.43.91-.42.92-.84,1.84-1.24,2.76-.15.33-.3.67-.44,1s-.38.88-.57,1.33l-.62,1.5c-.12.31-.25.61-.37.92s-.35.88-.52,1.32h0c-.13.36-.27.73-.41,1.09a.14.14,0,0,0,0,.06l-.45,1.2-.36,1h0l-.24.68q-.72,2-1.38,4l-.55,1.75a.65.65,0,0,0,0,.13c-.21.66-.41,1.33-.61,2,0,.06,0,.11,0,.16l0,.08a.24.24,0,0,1,0,.09h0L33.41,220c0,.19-.11.38-.16.57-.17.6-.33,1.19-.49,1.78s-.33,1.26-.49,1.89-.35,1.42-.52,2.13-.27,1.16-.41,1.75c-.19.88-.38,1.76-.56,2.65-.12.55-.23,1.11-.34,1.67-.15.76-.29,1.53-.43,2.3l-.3,1.77q-.18,1.06-.33,2.13c-.09.52-.16,1-.23,1.55,0,.24-.07.49-.1.73-.08.58-.16,1.15-.23,1.74s-.17,1.37-.24,2.05-.12,1.09-.17,1.64l-.06.56c0,.21,0,.41-.05.62-.05.44-.08.87-.12,1.31l-.15,2s0,.06,0,.08Q28,251.93,27.9,253c0,.58-.06,1.16-.09,1.74v0l0,.76c0,.46,0,.92,0,1.37,0,.17,0,.32,0,.49,0,.61,0,1.23,0,1.84s0,1.38,0,2.07A149.61,149.61,0,0,0,55.31,348c.7,1,1.42,2,2.14,2.94,1.08,1.46,2.19,2.89,3.31,4.29S63,358,64.2,359.37l-1.33-.69q4.82,5.7,10.09,10.81c1.51,1.47,3,2.89,4.59,4.28,1,.92,2.09,1.83,3.14,2.72s2.13,1.77,3.21,2.63c1.62,1.29,3.26,2.55,4.92,3.76,1.11.81,2.22,1.6,3.35,2.38.56.39,1.12.78,1.7,1.16,2.27,1.52,4.57,3,6.91,4.37q4.39,2.59,8.92,4.89c1.21.6,2.43,1.2,3.65,1.78l1.84.85q2.76,1.26,5.58,2.41a151.44,151.44,0,0,0,52.59,11.09c1.47.05,2.94.07,4.41.07,1.85,0,3.69,0,5.53-.11a149.44,149.44,0,0,0,22.36-2.5c1.22-.23,2.45-.48,3.67-.75a5.78,5.78,0,0,0,.57-.12q1.69-.36,3.39-.78c1-.23,1.92-.48,2.87-.73.75-.2,1.5-.4,2.25-.62,1-.27,2-.56,3-.86l2.18-.68a149.86,149.86,0,0,0,29.34-13l2.42-1.43,2.4-1.48c.8-.5,1.59-1,2.39-1.54q2-1.28,3.9-2.62l.56-.38.24-.17.25-.18.55-.4c1.27-.92,2.53-1.85,3.77-2.81q3.79-2.9,7.35-6l1.37-1.2c.49-.43,1-.86,1.44-1.3s.92-.84,1.38-1.27l.94-.89c.27-.25.55-.51.82-.78s.76-.73,1.14-1.11l1.41-1.4h0c.45-.45.88-.9,1.31-1.35.14-.13.26-.26.39-.4.4-.41.79-.83,1.18-1.25l1.41-1.52,1.38-1.54c.46-.52.91-1,1.36-1.57q2-2.34,3.93-4.75l1.26-1.62c.42-.54.83-1.09,1.24-1.63l1-1.34c.11-.15.21-.3.32-.44l1.09-1.53c.39-.56.78-1.11,1.16-1.67s.77-1.13,1.14-1.7.73-1.09,1.09-1.65l.06-.1c.36-.55.71-1.11,1.06-1.66s.72-1.15,1.07-1.73l1-1.63c.07-.13.15-.26.23-.39l.75-1.31.3-.52.79-1.4c.33-.59.65-1.19,1-1.78l.95-1.81c.62-1.18,1.22-2.38,1.8-3.58.29-.61.58-1.21.86-1.82s.57-1.22.85-1.83.51-1.13.75-1.7c0-.05.05-.12.08-.17l.78-1.81c.5-1.19,1-2.38,1.45-3.58a2,2,0,0,1,.1-.26c.23-.59.45-1.17.67-1.76s.35-.94.52-1.4.34-.94.5-1.41c.06-.15.12-.32.17-.48s.11-.32.16-.49c.22-.62.44-1.26.64-1.89s.42-1.27.62-1.9c0,0,0,0,0,0,.19-.64.39-1.27.58-1.91s.38-1.27.56-1.92c.38-1.34.75-2.68,1.1-4,.11-.44.23-.89.34-1.34.39-1.56.74-3.13,1.08-4.7.11-.52.22-1,.32-1.58.4-2,.76-3.92,1.07-5.9.1-.66.21-1.31.3-2s.19-1.32.28-2c.18-1.32.35-2.65.48-4,.29-2.65.51-5.33.65-8v0A150.14,150.14,0,0,0,323.53,222.36Z"/><g class="cls-7"><g class="cls-8"><path class="cls-9" d="M200.11,329.26c-.06-.31-.12-.61-.17-.91-.1-.48-.19-.93-.26-1.34,0-.08,0-.15-.05-.22,0-.27-.1-.51-.14-.73a1.55,1.55,0,0,0-.05-.23c-.05-.31-.1-.53-.12-.63s0,0,0,0v0s.58-2,1.38-4,1.36-4,1.36-4-4.55-2.23-9.92-4.23l-6.19-2.17-3.49-1.22-2.77.81c-1.89.56-2.94.87-3.52.15-.28.08-1.17-1.45-2.14-3.84a19.82,19.82,0,0,0-1.84-3.92,13.75,13.75,0,0,0-4.45.41l-4.51,1.33c-.3.09-1.11-1.46-2.05-3.86a39.22,39.22,0,0,0-1.91-3.91l-5.82,1.72c-5.21.64-6,.86-8.87.82l-3.4-.77-3.36,3.66-3.6,2.85-4.38,1.3c-5,1.47-4.23,2.13-6.38-2.58-.73-1.59-1.57-3.13-1.76-3.07-.43-.76-1.41-.47-2.43-.18l-1.86.55-.47-1.65c-.22-.83-.57-2.51-.9-4.2l-.45-2.55-1.71-.4-1.71-.38L110,294.27a15.13,15.13,0,0,1-2.95,2.65c-.92.27-7.22-3.22-7.47-4.05s1.6-10.3,1.91-11.29l6.6-1.95c7-2.05,6.17-1.81,9.59.75,2.1,2.07,2.11,2.07,4.15,1.46,2.45-.72,2.67.1,0-4.45a19.64,19.64,0,0,1-2.12-3.85,48.24,48.24,0,0,1,3-5.34c3.16-6.3,3.08-5.37,1.09-9.26-.39-.78-.36-1.68.55-3.75,1.2-2.13,1.28-2.15,3-2.68l1.81-.53-.79-3.34a20,20,0,0,1-.83-4.22,81.62,81.62,0,0,0,8.11-9.55c4.47-4.89,8.16-9.56,8.44-9.64.18-.95-1-1.49-9.52-7.93-5.61-4.59-10.2-7.7-10.43-7.64-.58-.72-18,.85-19.81,1.38-.6.17-.42,1,.79,5.12s1.54,4.9,2.42,5.55c.64.7,1.2,1.43,1.2,1.43.49,1.64.24,9.76-.23,9.9-.28.08-2.83-1.85-5.5-3.74a29.18,29.18,0,0,0-6.12-3.56,18.25,18.25,0,0,1-4.76-.39c-2.4.71-3.81.24-5.86-.95a5,5,0,0,1-2.61-1.91c-.16-.84.62-2.86,1.35-5.75,1.61-5.85,1-4.77,8.8-6.18l4.82-1.42A12,12,0,0,0,97.06,206L95.31,203l.1-3.61a20.74,20.74,0,0,1,.31-3.66c-.13-.86,1-1.2,2.3-1.58,1.76-.51,2.38-.7,2.78.08l0,0a5.45,5.45,0,0,1,.25,1,.43.43,0,0,0,0,.12s0,0,0,.07.05.22.07.35v0c0,.14,0,.28.08.43.14.88.29,2,.41,3.07.24,2.61.76,5.14,1,5.08a51.24,51.24,0,0,0,8.56.17l7.76-1.41,2.29-4.25.57-1.06c1.27-3.95,2.37-7,2.37-7s-7.26-4.11-15.76-7.86c-8.75-4.58-16-7.79-16.58-8.52-.33.1-.7-.69-.55-.73s2.71-7.07,5.81-15.12c3.34-7.25,5.82-14.23,5.88-14.25-.12-.87-2-.3-14.25,2.4l-8.51,1.63-12,10,0,0L56.55,168h0l-1.45,1.2,1.45-1.2a152.17,152.17,0,0,0-21.07,37.5l1.16.43.8.3.25.09.25.1h0l1.85.71.74.28.16.07.17.05.27.1,0,0,.34.12.11,0,.19,0a.62.62,0,0,0,.26,0c.63.71.56.73-.17.94h-.09c-.14,0-.43.08-.84.16l-.4.06-.22.05-.5.08-.18,0-.19,0-.8.14-.33,0-.22,0-.34.06-1.11.18h0l-.32,0-.3.05-1.31.22-.94.16-.11,0q-2.05,5.86-3.64,11.89A153.75,153.75,0,0,0,25.79,246l2,1.22.25.16a2.26,2.26,0,0,0,.26.16c2.74,1.73,5.42,3.54,5.54,4l-.87.26c-1.62.47-1.44,1.31.55,3.41,1.16,1.44,2.36,2.88,2.56,2.82l2-.6c.88-1.15,1.58-1.36,2.23-.66a6.78,6.78,0,0,1,1.95,1.42l.31.26.31.27c.7.61,1.47,1.3,2.25,2l4,3.28,1.55,6.69,1.8,7.52,12.94,10.48,13,10.48,3-.88c1.64-.49,3.24-1,3.79-.22.3-.09,2.23,1.12,4.18,2.34l3.85,3.33,9.94,2.44,10.15,3.25,2.22-1.54,2.47-.73,2.82,3.64c1.38,1.38,2.86,2.73,3.44,3.45l4.4-1.3,3.8-1.12,1,3.29c1,3.29.95,3.29.33,7.06a5.68,5.68,0,0,0-.63,3.76c.27.81,3.54,5.21,7.69,11.14l7.17,9.51,4.59,1.33c3.39.78,4.34.5,4.58,1.32s1.37,9.43,3,20.59l1.11,8.51,0,.27,0,.26,1.28,9.9,2.92,9.87,2.9,9.86,4.93,3.38.37.27h0l.39.26.67.46c.79.57,1.58,1.14,2.31,1.69l.81.61.56.42,1,.73.29.22h0l.43.33.92.69.22.16.21.14a.81.81,0,0,0,.22.12.6.6,0,0,0,.2-.23l.13-.24c.09-.17.18-.39.28-.64l.08-.2c0-.07.05-.13.07-.2l.08-.21.09-.28c.17-.48.33-1,.47-1.51,0-.1.06-.19.08-.29l.06-.23c0-.07,0-.14.05-.22a5.15,5.15,0,0,0,.13-.61,3.39,3.39,0,0,0,.07-.49,1.47,1.47,0,0,0,0-.28.67.67,0,0,0,0-.26h0l0-.05-.18-.19-.79-.83-.22-.21-.47-.47c-.32-.32-.68-.66-1-1a9.39,9.39,0,0,1-2.51-1.94,9.77,9.77,0,0,1,1.6-3.15l1.37-4-.73-2.47c-.07-.23-.14-.46-.22-.68-.15-.44-.31-.87-.48-1.27l-.15-.34c-.09-.22-.19-.42-.29-.62l-.13-.24-.13-.23a4.72,4.72,0,0,0-.36-.57c-1-1.5-1-1.5-.63-2.49.1-.54,1.81-4.69,4.27-10.41,0-.09.07-.18.11-.27l.11-.26c6.16-14.4,16.59-38.08,17.72-40.31l1.09-3-.81-5.12C200.43,331,200.27,330.1,200.11,329.26ZM326.22,222.15a152.23,152.23,0,0,0-15.91-38.31l.21,1.51c-2.42-4.2-5-8.33-7.9-12.37a153.25,153.25,0,0,0-27.14-29.37l-1.68,2-2.13,2.59c-3,4.47-6.2,8.09-6.72,9.13l-1.13,1.23-3.46-2.56c-1.6-.42-3.2-1.73-3.44-2.55l3.5-1c4.09-.31,3.92-.26,4.3-1.26.53-.16,1.58-3.74,2-6q.07-.43.12-.78a2.71,2.71,0,0,0,0-.86.23.23,0,0,0-.08-.12h-.07a107.76,107.76,0,0,1-11.64.76c-6.41.1-12.12,0-12.59.14a38.44,38.44,0,0,0-7.12,4.77c-4.92,2.36-6.71,3.78-7,4.77s-7.2,21.79-7.42,23.64c-.13.93,1.27,7.67,1.82,8.4l2.15-.63,1.84-.54a13.12,13.12,0,0,1,3.84-2,11.7,11.7,0,0,0,1.84,2.14c1.64,2.2,1.73,2.17,5.9-.85l2.74-1.71-.65-3.37-.67-3.39-1.78-1.26c-.95-.61-1.78-1.26-1.78-1.26s4-11.92,4.28-12.88c.55-.16,4.32,2.3,4.32,2.3.24.82-.73,2-1.73,4.08a10.64,10.64,0,0,0-2,3.27c.24.81,3.31,4.38,4.06,5.06.28-.09,2-1.49,3.83-2.92l3.59-2,1.29.52a5.52,5.52,0,0,1,1.39,1.38c-.07,0-2.45,2.5-5.4,5.17l-5.52,4.3.11,1.76c0,.88,0,1.8,0,2.68l-6.11,1.8-5.51,2.52L230.84,188a7,7,0,0,0-2-1.2c-.62.19-2.72,2.6-2.48,3.41,0,0,.57.73,1.19,1.44a21,21,0,0,0,1.46,2.25c.24.82-.74,2.91-2,5.08-1.92,4.14-2.46,4.3-3.82,5.59-1.48.44-2.28.67-3.82,3.81a15.18,15.18,0,0,0-2.17,3.31c.18.85,1,1.51,2.06,2.09,2.4,2,2.49,1.94,2.08,4.74l-.32,1.89-2.87.85-4.57,1.34c-2.39-.19-2.39-.19,1.16,5,3.16,4.53,4.56,6.57,5.28,7.45a3.51,3.51,0,0,0,.45.47.65.65,0,0,0,.19.11h.18l0,0a6.85,6.85,0,0,0,.59-.93l.24-.42,1.51-2.75h0c.74-1.35,1.6-2.91,2.52-4.48,2.3-5.14,4.6-8.51,4.81-8.56L232,218c1.35.5,1.49.46,2.94-1.75l1.29-3.07,2.53,1c5.94,2.72,6.59,2.52,7.76,4.87,1.89,3.91,2.57,4.6,2.86,4.51s1.88-4.13,2.13-6c.12-.94-.44-1.66-4.33-5-2.4-2-4.51-4-4.51-4-.24-.82,0-.9.11-1.81.65-.2.9-.27,8,4.79,3.48,2.54,3.85,3.33,5,5.68.72,1.58,1.48,3.14,1.82,3.93s1.4,1.38,3.92,2.42c.29.07.6.16.9.26l.26.09.52.2c.93.38,1.74.81,2.12.93l.09,0h.1l.06,0c.56-.13,3.07-.43,1.95-3.53.88-1.9,4.5,1.63,4.71,1.56a36.35,36.35,0,0,1,3.75,2.47l-6.49,1.91-6.73,1.1-1.87-.34a9.43,9.43,0,0,0-2.59-1,14.25,14.25,0,0,0-2.1,2.41,7,7,0,0,1-1.78,3.2c-.23.07-2.59-.12-5.21-.25l-4.8-.36-.73-2.48c-.49-1.63-.62-1.59-2.45-2.85l-2-1.21-5.8,2.61-5.8,2.61-8,13.1L211.85,258l3.17,9.79c1.84,5.71,3.51,10.59,3.89,11.37.12,0,2.33,1.1,4.79,2.16,2.71,1.88,5.27,2.92,6.06,3.58,1.25.52,1.34.5,10.19-1.22l8.7-2.57,4.74,2.19a19.27,19.27,0,0,1,4.68,1.29,7,7,0,0,1-.93,2.07L256,288.74l3.5,2.55a44.27,44.27,0,0,1,5.91,4.51l2.16,1.16,1.45,4.93,1.22,4.11-1,2.08L268.5,311l9.55,14.16c4.8,6.93,8.88,12.51,9.74,13.85l.13.2s0,0,0,0l.53-.15a23.49,23.49,0,0,1,5.32-.68l5.9-1.74c.38-.11,5.59-13.89,7.89-20.45.15-.43.29-.83.41-1.19h0c.1-.28.18-.53.26-.76s.18-.54.24-.75c-.07-.88-.28-2.6-.6-4.29-.73-3.37-.76-4.25-.48-5.23,4.1-5.68,4.06-4.77,1.53-11.17-1.26-3.21-1.71-4-2.7-4.57A5.2,5.2,0,0,1,304.6,286s2-7.74,4.46-17.4c2.42-8,4.41-15.2,4.65-17.06a2.1,2.1,0,0,0,0-.4l-4.06,1.2-4.85,1.43c-.37,1-2.47-.18-6.65-1.62-2.88-1.84-3-1.81-9.94-9.59L281,234l-.83-3.33c-.39-1.67-.4-2.57-.06-2.67.6-1.07,2.49-1.62,3.25-1,.27-.08,5.21,5.62,10.79,12s10.29,11.26,10.56,11.19c.57.71,2.38-.71,5.57-3.44,2.81-1.73,5.18-4.21,5.6-4.33.71-1.1,3.34-9,3.34-9-.25-.81-1.86-2.13-3.5-2.54l-3.47-2.55L310,229.9a5.84,5.84,0,0,1-2.49,1.64c-1.07-.59-6.31-6.19-6.32-7.08.14,0,13.56-1.4,22.3-2.1Zm-43-18.3a22.71,22.71,0,0,1-5.75.8c-8.24,1.54-8.09,1.49-9.9,4.71a21.91,21.91,0,0,1-2,2.39c-.35.1-1.83-2.15-2.07-3s.43-2.81,1.36-4.87l1.37-4.87,2.37,2c1.82,1.26,2.36,1.11,3.27.83,1.91-.56,2.28-.67,1.79-2.32s-.41-1.66.54-1.94c2.23-.66,3.28-.07,6.24,2.63C282.16,202.37,283.38,203.79,283.21,203.85Zm30-8.85c-.19.06-.65,1.09-1.31,1.28-1.12.33-1.19.35-1.9-1.22-1.35-3.18-1.16-3.23.48-3.72l.84-.25.6-.18.69,1.59a7.07,7.07,0,0,1,.64,2.39C313.23,195,313.22,195,313.19,195Zm11.13,111.5c0-2.26,0-4.95-.09-7.41l0-.95h0c0-.33,0-.65,0-1h0c-.08-2.78-.18-4.92-.25-5.19-.18-.59-1.5-1.29-2.52-1.56l-.29-.06-.24,0a1.39,1.39,0,0,0-.47,0c-.43.13-5.73,7.94-5.89,8.89a28.41,28.41,0,0,0,0,4.49l0,.41,0,.58a21.34,21.34,0,0,0,.5,4.18c.09,0,2.22,1.14,4.62,2.21l.29.08h0l.25.08.26.06c.84.25,1.52.45,2,.59,1.06.26,1.51.25,1.56-.31A24.86,24.86,0,0,0,324.32,306.5Zm-193.7-20.11c-.47.15-9.76-.7-9.85.24-.45.13.08,4.44.43,4.34.15-.05,2.38.19,4.88.34,2.85.06,4.53-.44,4.55-1.34C131.25,289.78,131.23,287.11,130.62,286.39Zm90.18-86.48-.49-2.55-3.41-1.66c-3.16-1.76-3.54-1.65-5.16-3.85-1-1.49-2.13-2.94-2.36-2.87-.53-.75-1,.29-1.85,2.32l-1.19,3,1.94,1.21a42,42,0,0,1,3.55,2.53c1.58.42,1.83,1.25,1.39,4.06a5.87,5.87,0,0,0,0,2.68c.39.79,1.27.53,3.95-.27,1.94-.56,3.7-1.09,3.69-2C221.08,202.5,221.13,201.59,220.8,199.91Zm-47-63c-.11-.86,1.13-2.13,2.32-4.26s2.09-4.2,1.85-5-15.71-7.87-16.72-7.58-51.44,22.33-51.75,23.31c-.67.19-8,21.12-7.74,21.94s5.25,4.71,5.81,4.55a9.46,9.46,0,0,0,3.39-1.89,30.87,30.87,0,0,1,3.21-2.74c.48-.14,8.78,3.67,9.43,4.38l0,0a.31.31,0,0,1,0,.09,1.17,1.17,0,0,1,.12.2q.11.16.27.48l.22.42.56,1.06c0,.1.1.2.15.3l.52,1,.37.73c.28.55.59,1.14.92,1.77l.32.63c.43.83.88,1.7,1.34,2.57l.85,1.76q.19.36.36.72l.91,1.84q.18.34.33.66a3.78,3.78,0,0,0,.19.36c.11.22.21.44.32.65l.19.38c.12.25.25.49.37.72s.23.45.33.66.22.43.3.6l.27.51c.27.51.47.87.58,1.06a.53.53,0,0,0,.1.13s0,.06,0,.06h0l.09.07.07.07.1.1.12.11.11.11.8.81.41.42.22.23.24.24.24.25.25.25.81.82.28.29c1,1,2,2,3.16,3.11,5.87,5.41,6.56,6.11,7.62,5.8l4-1.2,2.92-.86.67-5.56.42-6.38,6.64-4.64c3.56-2.84,7-5.64,7.73-5.85,1-1.19,1.48-1.34,3.63-11.8,1.43-5.79,2.73-10.64,2.68-11.51.19-.06-.61-4.29-1.5-8.5S173.69,136.93,173.82,136.89Zm15.09,35.78c-.42.12-10.26,6.59-10.73,6.73-.17,0,1.77,2.16,4.46,4.95,3.13,2.65,4.67,4,5.06,3.86.88-1.15,7.77-11.23,7.77-11.23C195.23,176.16,190.17,173.18,188.91,172.67Z"/><path class="cls-10" d="M222.68,186l2.15-.64,1.67-6.5-.63-3.9,1.47-9.2s-.13-7.55,1.31-8,5.15-5.61,5.15-5.61l9.95-3.52,7.53-1.05,8.5-1.34,6.09-.63.81-.37c.19-1.06.23-1.83,0-1.76a107.76,107.76,0,0,1-11.64.76c-6.41.1-12.12,0-12.59.14a38.8,38.8,0,0,0-7.12,4.77c-4.92,2.35-6.71,3.78-7,4.77s-7.21,21.79-7.42,23.64C220.73,178.47,222.14,185.21,222.68,186Z"/><path class="cls-1" d="M124.17,190.86s-1.1,3-2.37,7l-.57,1.06A52.74,52.74,0,0,0,116,198s-12.34-1-14.1-1.69a1.6,1.6,0,0,0-.67-.06c0-.15,0-.29-.08-.43v0c0-.13,0-.24-.07-.35s0,0,0-.07a.43.43,0,0,1,0-.12,5.45,5.45,0,0,0-.25-1l0,0c-.4-.78-1-.59-2.78-.08-1.27.38-2.43.72-2.3,1.58a20.74,20.74,0,0,0-.31,3.66s-13.39-3.8-15-3.91-7.19,2.9-8.64,3.32,0,8.44-1.49,8.87S57.66,210,57.66,210l-6.61,7.1s-5.11-1.31-8.82-2l-.25,0-.24-.05a10.3,10.3,0,0,0-3.09-.28c-.67.2-2.8,2-4.86,3.91h0l-.41.37-.37.36c-1.16,1.06-2.22,2.08-2.93,2.76q1.58-6,3.64-11.89l.11,0,.94-.16,1.31-.22.3-.05.32,0h0l1.11-.18.34-.06.22,0,.33,0,.8-.14.19,0,.18,0,.5-.08.22-.05L41,209c.41-.08.7-.12.84-.16h.09c.73-.21.8-.23.17-.94a.62.62,0,0,1-.26,0l-.19,0-.11,0-.34-.12,0,0-.27-.1-.17-.05-.16-.07-.74-.28L38,206.44h0l-.25-.1-.25-.09-.8-.3-1.16-.43A152.17,152.17,0,0,1,56.55,168h0l11.59-9.6,0,0,12-10,8.51-1.63c12.2-2.7,14.13-3.27,14.25-2.4-.06,0-2.54,7-5.88,14.25-3.1,8.05-5.65,15.07-5.81,15.12s.22.83.55.73c.54.73,7.83,3.94,16.58,8.52C116.91,186.75,124.17,190.86,124.17,190.86Z"/><path class="cls-10" d="M187.7,188.21c.88-1.15,7.78-11.23,7.78-11.23-.25-.82-5.31-3.8-6.57-4.31-.42.12-10.26,6.59-10.73,6.73-.17,0,1.76,2.16,4.46,4.94C185.78,187,187.32,188.33,187.7,188.21Z"/><path class="cls-1" d="M170.61,177.16c1-1.18,1.48-1.33,3.63-11.79,1.43-5.79,2.73-10.64,2.68-11.51.19-.06-.61-4.29-1.5-8.5s-1.73-8.43-1.6-8.47c-.11-.86,1.13-2.13,2.32-4.26s2.09-4.2,1.85-5-15.71-7.88-16.72-7.58-51.44,22.32-51.75,23.31c-.67.19-8,21.12-7.74,21.94s5.25,4.71,5.81,4.55a9.28,9.28,0,0,0,3.39-1.89,30.87,30.87,0,0,1,3.21-2.74c.48-.14,8.78,3.67,9.42,4.38.11,0,2.44,4.64,4.88,9.28,2.67,5.47,5,10.15,5.15,10.11s3.37,3.47,6.94,6.9c5.86,5.4,6.55,6.1,7.61,5.79l4-1.2,2.92-.86.66-5.56.43-6.38,6.64-4.64C166.44,180.18,169.87,177.38,170.61,177.16Z"/><path class="cls-9" d="M312.59,192.5l-.69-1.59-.6.18-.84.25c-1.64.49-1.83.54-.48,3.72.71,1.57.78,1.55,1.9,1.22.66-.19,1.12-1.22,1.31-1.28,0,0,0,0,0-.11A7.07,7.07,0,0,0,312.59,192.5Z"/><path class="cls-11" d="M313.73,251.17l-4.06,1.2,4-.8A2.12,2.12,0,0,0,313.73,251.17Z"/><path class="cls-12" d="M169.19,396l-.14-5.8-3.65-8.85-2.2-14.53-6-17.65c.24.82,1.37,9.43,3,20.59l2.46,18.93,2.91,9.88,2.91,9.86,6.38,4.38c3.55,2.53,6.77,5.15,6.94,5.1.47-.13,2-5.07,1.79-5.89,0,0-1.3-1.4-2.77-2.76a9.39,9.39,0,0,1-2.51-1.94,9.77,9.77,0,0,1,1.6-3.15l1.37-4-.73-2.47a16.68,16.68,0,0,0-1.4-3.39l-3,3.73Z"/><path class="cls-11" d="M220.78,235.67a36.41,36.41,0,0,0,2.38-4.13l-3.2,3.55C220.42,235.64,220.6,235.72,220.78,235.67Z"/><path class="cls-9" d="M265.51,225.16c.42-.13.46-.14-.7-3.37l-2.39,2.12C263.89,224.4,265.28,225.23,265.51,225.16Z"/><path class="cls-12" d="M185.94,310.77c-.83,1-1.46,2.21-.76,2.85C186.61,315,188.85,319,190,321s2.22,5.77,4.14,7c.93.57,3.53.93,6,1.33-.44-2.31-.8-4.13-.8-4.13s.58-2,1.38-4,1.37-4,1.37-4-4.57-2.23-9.93-4.23Z"/></g></g><g class="cls-13"><path class="cls-14" d="M326.22,222.15a152.23,152.23,0,0,0-15.91-38.31l.21,1.51c-2.42-4.2-5-8.33-7.9-12.37A152.91,152.91,0,0,0,97.08,131.26c-4.73,3-9.5,6.42-14.89,10.54A152.24,152.24,0,0,0,56.55,168h0a152.17,152.17,0,0,0-21.07,37.5c-.62,1.57-1.2,3.15-1.76,4.75q-2.05,5.86-3.64,11.89A153,153,0,0,0,53.16,349.51c2.86,4,5.89,7.9,9.05,11.57l-1.36-.7A152.93,152.93,0,0,0,177.12,414.5q3,0,6-.09a152.17,152.17,0,0,0,78.39-25c1.34-.86,2.66-1.75,4-2.67l.57-.38.24-.18.26-.17c.18-.14.36-.28.55-.41q2-1.41,3.84-2.86a152.27,152.27,0,0,0,51.57-70.9q.94-2.69,1.77-5.38A153.38,153.38,0,0,0,326.22,222.15Z"/></g><g class="cls-15"><path class="cls-16" d="M177.77,412.14a150.39,150.39,0,0,1-115.1-53.29l-.85-1,1.31.68c-2.83-3.35-5.53-6.83-8-10.37a150.72,150.72,0,0,1-5-166.65l.47.23a145.53,145.53,0,0,0,16.87,137c2.67,3.76,5.56,7.47,8.62,11l.88,1-1.31-.68A145.73,145.73,0,0,0,265.88,356.8c1.26-.82,2.54-1.68,3.79-2.55l.26-.18.28-.19.24-.17.24-.16.26-.2.26-.19c1.24-.89,2.47-1.81,3.66-2.72A146,146,0,0,0,328.1,269l.51.08A150.46,150.46,0,0,1,269.53,380.9c-1.24,1-2.51,1.9-3.78,2.81l-.26.19a3.15,3.15,0,0,1-.29.22l-.24.17-.25.17-.29.21-.27.17c-1.29.9-2.61,1.79-3.91,2.64A150,150,0,0,1,177.77,412.14Z"/><path class="cls-16" d="M328.36,269l-.52-.08a145.37,145.37,0,0,1-7,21.34,139,139,0,0,1-6.36,13.4q-2.7,5-5.79,9.81c-.17.25-.33.5-.49.75A145,145,0,0,1,287.79,339a146.49,146.49,0,0,1-13.08,11.23c-1.19.91-2.42,1.83-3.65,2.71l-.26.2-.27.2-.11.07-.12.09-.13.09-.11.08-.27.18-.27.18c-1.25.87-2.52,1.73-3.78,2.54a144.77,144.77,0,0,1-79.62,23.82c-1.18,0-2.35,0-3.52-.05A142.58,142.58,0,0,1,165,378.86c-1.26-.17-2.52-.37-3.76-.59A145,145,0,0,1,76.75,331l1.29.66-1.77-2c-3-3.54-5.94-7.23-8.59-11A145.19,145.19,0,0,1,42.23,215.13a147,147,0,0,1,8.6-33.31l-.46-.23-.47-.23a150.71,150.71,0,0,0-12.46,24.89c-.46,1.2-.92,2.41-1.36,3.62q-1.69,4.71-3.07,9.53a150.71,150.71,0,0,0-5.22,27.79,152.25,152.25,0,0,0-.61,17.24,150.1,150.1,0,0,0,27.71,83.88c2.25,3.18,4.67,6.33,7.2,9.38L60.76,357l1.71,2a150.59,150.59,0,0,0,111.67,53.33c1.21,0,2.42,0,3.63,0,1.93,0,3.87,0,5.79-.11a150.25,150.25,0,0,0,76.82-24.6c1.31-.84,2.63-1.73,3.92-2.63l.26-.17.31-.21.12-.09.12-.08.12-.09.12-.09a3.3,3.3,0,0,0,.3-.22l.25-.18c1.28-.92,2.55-1.87,3.79-2.82a150.56,150.56,0,0,0,50.82-69.82c1.4-4,2.65-8.07,3.72-12.2a152,152,0,0,0,4.65-30ZM320,311.15l-.49,1.41c-.17.46-.35.93-.52,1.4s-.44,1.17-.67,1.76a2,2,0,0,0-.1.26c-.47,1.2-1,2.39-1.45,3.58l-.78,1.81c0,.05-.05.12-.08.17-.24.57-.5,1.14-.75,1.7s-.56,1.23-.85,1.83-.57,1.21-.86,1.82c-.59,1.2-1.18,2.4-1.8,3.58l-.95,1.81c-.32.59-.64,1.19-1,1.78l-.79,1.4-.3.52-.75,1.31c-.08.13-.16.26-.23.39l-1,1.63c-.35.58-.71,1.15-1.07,1.73s-.7,1.11-1.06,1.66l-.06.1c-.36.56-.72,1.11-1.09,1.65s-.75,1.13-1.14,1.7-.77,1.11-1.16,1.67L300,349.35c-.11.14-.21.29-.32.44l-1,1.34c-.41.54-.82,1.09-1.24,1.63l-1.26,1.62q-1.9,2.42-3.93,4.75c-.45.53-.9,1.05-1.36,1.57l-1.38,1.54-1.41,1.52c-.39.42-.78.84-1.18,1.25-.13.14-.25.27-.39.4-.43.45-.86.9-1.31,1.35h0l-1.41,1.4q-.57.57-1.14,1.11c-.27.27-.55.53-.82.78l-.94.89c-.46.43-.91.85-1.38,1.27s-.95.87-1.44,1.3l-1.37,1.2q-3.56,3.07-7.35,6c-1.24,1-2.5,1.89-3.77,2.81l-.55.4-.25.18-.24.17-.56.38q-1.94,1.35-3.9,2.62c-.8.52-1.59,1-2.39,1.54l-2.4,1.48-2.42,1.43a149.86,149.86,0,0,1-29.34,13l-2.18.68c-1,.3-2,.59-3,.86-.75.22-1.5.42-2.25.62-.95.25-1.91.5-2.87.73q-1.69.42-3.39.78a5.78,5.78,0,0,1-.57.12c-1.22.27-2.45.52-3.67.75a149.44,149.44,0,0,1-22.36,2.5c-1.84.08-3.68.11-5.53.11-1.47,0-2.94,0-4.41-.07a151.44,151.44,0,0,1-52.59-11.09q-2.82-1.16-5.58-2.41l-1.84-.85c-1.22-.58-2.44-1.17-3.65-1.78q-4.53-2.3-8.92-4.89c-2.34-1.39-4.65-2.85-6.91-4.37-.58-.38-1.14-.77-1.7-1.16-1.13-.78-2.24-1.57-3.35-2.38-1.66-1.21-3.3-2.47-4.92-3.76-1.08-.86-2.15-1.73-3.21-2.63s-2.1-1.79-3.14-2.72C76,372.38,74.47,371,73,369.49q-5.26-5.12-10.09-10.81l1.33.69c-1.16-1.36-2.31-2.73-3.44-4.14s-2.23-2.83-3.31-4.29C56.73,350,56,349,55.31,348a149.61,149.61,0,0,1-27.64-86.76c0-.69,0-1.38,0-2.07s0-1.23,0-1.84c0-.17,0-.32,0-.49,0-.45,0-.91,0-1.37l0-.76v0c0-.58.05-1.16.09-1.74s.08-1.37.12-2.07c0,0,0,0,0-.08l.15-2c0-.44.07-.87.12-1.31,0-.21,0-.41.05-.62l.06-.56c.05-.55.11-1.09.17-1.64s.16-1.37.24-2.05.15-1.16.23-1.74c0-.24.06-.49.1-.73.07-.52.14-1,.23-1.55q.15-1.06.33-2.13l.3-1.77c.14-.77.28-1.54.43-2.3.11-.56.22-1.12.34-1.67.18-.89.37-1.77.56-2.65.14-.59.27-1.17.41-1.75s.34-1.42.52-2.13.33-1.26.49-1.89.32-1.18.49-1.78c0-.19.11-.38.16-.57l.38-1.31h0s0,0,0-.09l0-.08c0-.05,0-.1,0-.16.2-.66.4-1.33.61-2a.65.65,0,0,1,0-.13l.55-1.75q.66-2,1.38-4l.24-.68h0l.36-1,.45-1.2a.14.14,0,0,1,0-.06l.42-1.09c.17-.44.34-.88.52-1.32s.25-.61.37-.92l.62-1.5c.19-.45.37-.89.57-1.33s.29-.67.44-1c.4-.92.82-1.84,1.24-2.76.14-.31.29-.61.43-.91l.57-1.19c.15-.33.31-.65.47-1,.43-.88.87-1.75,1.32-2.62.15-.29.3-.58.46-.87l.12-.25.68-1.27c.33-.61.67-1.22,1-1.83s.57-1,.86-1.52l.27-.48,1-1.64a1.4,1.4,0,0,0,.1-.16l1-1.58.09-.15.33-.54v0A145.8,145.8,0,0,0,67.25,318.92q4.09,5.76,8.63,11l-1.29-.68a145.47,145.47,0,0,0,86.74,49.53c1.25.22,2.51.42,3.77.59a144.71,144.71,0,0,0,17.28,1.48c1.24,0,2.49,0,3.74,0A145.26,145.26,0,0,0,266,357c1.28-.82,2.54-1.67,3.8-2.55l.55-.36.23-.17.24-.17.53-.39c1.23-.89,2.46-1.8,3.66-2.73a145.46,145.46,0,0,0,32.54-34.44q3.78-5.61,7-11.52a146,146,0,0,0,13.77-35.61q-.21,4-.64,8c-.14,1.33-.3,2.65-.48,4-.09.66-.18,1.32-.28,2s-.2,1.31-.3,2c-.32,2-.68,3.94-1.07,5.9-.1.53-.21,1.06-.32,1.58-.34,1.57-.7,3.12-1.08,4.68h0c-.11.45-.23.9-.34,1.35-.35,1.36-.72,2.7-1.1,4-.18.65-.37,1.29-.56,1.92s-.39,1.27-.58,1.91c0,0,0,0,0,0-.2.63-.41,1.26-.62,1.9s-.42,1.27-.64,1.89c-.05.17-.11.33-.16.49Z"/></g><path class="cls-17" d="M320.8,155.22l14.68,14.68a1.71,1.71,0,0,1-2.43,2.42l-14.67-14.68a1.71,1.71,0,0,1,2.42-2.42Z"/><path class="cls-17" d="M335.23,140.79l14.68,14.68a1.71,1.71,0,1,1-2.43,2.42l-14.67-14.67a1.71,1.71,0,1,1,2.42-2.43Z"/><rect class="cls-18" x="280.58" y="89.17" width="42.71" height="70.36" rx="2.12" ry="2.12" transform="translate(0.51 249.92) rotate(-45)"/><polygon class="cls-19" points="299.51 124.34 285.62 138.23 288.04 140.66 301.93 126.77 325.59 150.43 328.02 148.01 304.35 124.34 318.24 110.46 318.24 110.46 315.82 108.03 315.82 108.03 301.93 121.92 278.27 98.26 275.84 100.68 299.51 124.34"/><path class="cls-17" d="M393.53,203.94l-14.67-14.67a1.71,1.71,0,0,1,2.42-2.43L396,201.52a1.71,1.71,0,1,1-2.42,2.42Z"/><path class="cls-17" d="M379.1,218.37l-14.67-14.68a1.71,1.71,0,1,1,2.42-2.42l14.68,14.67a1.72,1.72,0,1,1-2.43,2.43Z"/><path class="cls-18" d="M330.82,205.93c-7.42-7.42-11.13-15.73-8.31-18.56s11.14.89,18.55,8.31,11.13,15.73,8.31,18.56S338.23,213.35,330.82,205.93Z"/><path class="cls-18" d="M349.28,214.32l-.17.15h0l-.2.15-.06,0-.17.1,0,0-.22.1-.06,0-.17.07-.07,0-.24.07h0l-.24.05h-.07l-.2,0h-.07l-.26,0h-.66l-.3,0H346l-.26,0-.09,0-.28,0h0L345,215l-.08,0-.3-.07-.07,0-.38-.1-.08,0-.36-.11-.05,0-.44-.15-.09,0-.44-.17-.07,0-.55-.23-.07,0-.56-.25-.1,0-.26-.13-.13-.06-.26-.14-.11,0-.38-.2-.06,0-.32-.17-.09,0-.64-.37-.08-.05-.64-.4-.08-.05-.66-.43-.06,0c-.24-.16-.47-.31-.7-.48l0,0-.73-.53h0l-.73-.55-.05,0-.69-.55-.08-.06-.67-.56-.07-.06c-.37-.31-.74-.64-1.12-1l0,0-.87-.81-.07-.07-.73-.71-.14-.14-.63-.64,0,0c-.24-.24-.48-.49-.71-.74l0,0-.64-.72-.06-.06-.59-.69-.07-.08q-.3-.35-.57-.69l-.07-.08-.56-.71,0,0-.6-.79,0-.05-.57-.79-.05-.07-.58-.86-.06-.09-.23-.37a.61.61,0,0,0-.07-.1c-.09-.15-.18-.29-.26-.44l-.05-.08-.3-.51,0,0-.29-.51,0-.08-.36-.68v0l-.34-.7-.06-.13a1.42,1.42,0,0,1-.08-.18l-.07-.15s-.05-.11-.07-.17l-.06-.14c0-.06-.05-.12-.07-.17l-.06-.15-.06-.16-.06-.15-.06-.16s0-.1-.05-.14l-.06-.16c0-.05,0-.1,0-.14l-.06-.16c0-.05,0-.09,0-.14l-.05-.15a.74.74,0,0,0,0-.14s0-.1,0-.15l0-.14a.83.83,0,0,1,0-.15s0-.08,0-.13l0-.14,0-.14,0-.14s0-.09,0-.13l0-.14a.69.69,0,0,0,0-.13.59.59,0,0,0,0-.13s0-.09,0-.13,0-.09,0-.13,0-.08,0-.12,0-.09,0-.13,0-.08,0-.12a.53.53,0,0,0,0-.13v-.48a.45.45,0,0,1,0-.11v-.12a.34.34,0,0,0,0-.1s0-.08,0-.12a.34.34,0,0,1,0-.1.5.5,0,0,1,0-.12s0-.06,0-.1l0-.11a.29.29,0,0,1,0-.09s0-.07,0-.11l0-.09,0-.1,0-.09a1,1,0,0,1,0-.1l0-.09.05-.1,0-.08a.41.41,0,0,0,.05-.09l.05-.08a.41.41,0,0,1,.05-.09l.05-.07.06-.09,0-.06a.86.86,0,0,1,.07-.1l.05-.05.12-.14L303.57,206.3l-.13.13,0,0-.08.1,0,.06a.86.86,0,0,0-.07.1.43.43,0,0,0,0,.07l-.06.09a.59.59,0,0,0,0,.08l-.05.09,0,.08a1,1,0,0,0,0,.1l0,.08a.42.42,0,0,0,0,.1l0,.09,0,.1,0,.1,0,.1a.3.3,0,0,1,0,.1s0,.07,0,.11,0,.07,0,.1a.43.43,0,0,1,0,.11.41.41,0,0,1,0,.11s0,.07,0,.11,0,.07,0,.11,0,.08,0,.12v.23a.2.2,0,0,0,0,.11v.24a.53.53,0,0,0,0,.13.49.49,0,0,0,0,.12.53.53,0,0,0,0,.13.49.49,0,0,0,0,.12s0,.09,0,.14,0,.08,0,.12,0,.09,0,.14,0,.08,0,.13l0,.14a.69.69,0,0,0,0,.13l0,.14,0,.13,0,.15,0,.13a.83.83,0,0,1,0,.15l0,.13s0,.1,0,.15,0,.1,0,.14,0,.1.05.16,0,.09,0,.14,0,.1,0,.15,0,.1.05.14l.06.16a.88.88,0,0,0,.05.15l.06.16.05.14a1.22,1.22,0,0,0,.07.17l.05.14a1.22,1.22,0,0,1,.07.17l.06.15a.89.89,0,0,1,.08.17l.06.14a1.42,1.42,0,0,1,.08.18l.06.13h0q.15.34.33.69l0,0c.11.22.23.44.36.67v0l0,.06c.09.17.19.34.29.51l0,0q.14.25.3.51l0,.05,0,0,.27.44.06.1.24.37,0,.07,0,0,.58.87,0,0,0,0c.18.27.37.53.57.8l0,0h0l.59.79,0,0,0,0,.57.72,0,0,0,0,.57.69,0,0,0,0,.6.69,0,0,0,0,.64.71,0,0h0l.7.75h0l0,0,.64.65.1.1,0,0c.24.25.48.48.73.72l0,0,0,0,.87.81,0,0,0,0c.37.34.75.66,1.12,1l0,0,0,0,.67.56.07.06.69.55.06,0,.72.55h0l.73.53,0,0,.69.47.07.05.66.43.08,0,.64.4.08,0,.64.37,0,0,0,0,.33.18.06,0,.37.2.11.06.27.13.13.07.26.12.08,0h0l.56.25.07,0,.54.23,0,0h0l.44.17.08,0,.45.15h0l.36.11.09,0,.38.1h0l0,0,.29.06.09,0,.34.07h.05l.28,0h.09l.26,0h.06l.29,0h.66l.27,0h.07l.2,0,.07,0,.23-.05h0l.24-.07.06,0,.18-.06,0,0h0l.22-.1,0,0,.18-.1h0l0,0,.21-.14v0a1.19,1.19,0,0,0,.18-.15l0,0,.06-.05,18.95-18.93Z"/><path class="cls-19" d="M350,186.8c-9.33-9.34-14.27-19.54-11-22.78s13.43,1.69,22.76,11,14.27,19.53,11,22.78S359.29,196.13,350,186.8Z"/><path class="cls-17" d="M372.62,197.92l-.2.17h0l-.24.16-.06,0-.21.11,0,0-.26.11-.07,0-.2.06-.08,0-.28.06h0l-.28,0h-.09l-.23,0h-1.2l-.35,0h-.08l-.31-.05-.11,0-.34-.07h-.05l-.42-.1-.11,0-.35-.09-.09,0-.46-.14-.11,0-.43-.15-.06,0-.54-.2-.1,0-.55-.22-.09,0-.66-.3-.09,0-.68-.34-.13-.07-.32-.16a.8.8,0,0,0-.16-.08l-.33-.18-.13-.08-.46-.26-.08,0-.39-.23-.11-.06-.79-.48-.1-.07-.8-.51-.09-.06-.82-.56-.08-.05-.86-.62-.05,0-.91-.68h0l-.9-.7-.07-.05-.86-.7-.09-.08-.84-.71-.09-.07c-.46-.4-.93-.81-1.4-1.24l0-.05c-.36-.33-.73-.67-1.09-1l-.09-.08-.92-.9-.17-.17-.8-.81,0,0-.89-.94,0,0-.82-.89-.07-.08-.76-.87-.08-.09-.73-.87-.08-.09-.72-.9-.05-.06-.76-1,0,0-.73-1-.06-.08q-.39-.54-.75-1.08l-.07-.11-.31-.45a.57.57,0,0,0-.08-.13l-.35-.54-.06-.1-.38-.62,0,0-.37-.64-.06-.1-.47-.83,0,0-.44-.86-.09-.16c0-.08-.07-.15-.1-.22l-.09-.18a2,2,0,0,0-.1-.21,1.42,1.42,0,0,0-.08-.18l-.09-.21c0-.06-.05-.12-.08-.17l-.09-.21c0-.06-.05-.11-.07-.17a1.67,1.67,0,0,1-.08-.2,1.34,1.34,0,0,1-.07-.18c0-.06-.05-.13-.08-.19l-.06-.17c0-.07-.05-.13-.07-.19l-.06-.17c0-.07-.05-.13-.07-.19a1.09,1.09,0,0,1-.05-.17l-.06-.18a1.09,1.09,0,0,1,0-.17l-.06-.18a1,1,0,0,0-.05-.16c0-.06,0-.12,0-.18s0-.1-.05-.16a1,1,0,0,0,0-.17.94.94,0,0,0,0-.16l0-.17,0-.15a1,1,0,0,1,0-.17c0-.05,0-.1,0-.15l0-.16c0-.05,0-.1,0-.15s0-.1,0-.15,0-.1,0-.15,0-.1,0-.15a.71.71,0,0,1,0-.14.76.76,0,0,1,0-.15s0-.09,0-.14v-.55a.66.66,0,0,0,0-.14.49.49,0,0,0,0-.12c0-.05,0-.09,0-.14s0-.08,0-.12a.51.51,0,0,0,0-.13.36.36,0,0,0,0-.11l0-.13,0-.11,0-.12,0-.11s0-.07,0-.11a.3.3,0,0,1,0-.1s0-.08,0-.12a.36.36,0,0,0,0-.09l.06-.11,0-.09.07-.11,0-.08.08-.11,0-.07.09-.11,0-.06.15-.16-29.68,29.66a1.1,1.1,0,0,0-.15.16l-.05.06L309,194l0,.07-.07.11a.56.56,0,0,1,0,.08l-.06.11-.05.09a.54.54,0,0,0-.05.11.3.3,0,0,0,0,.1.37.37,0,0,0,0,.11.42.42,0,0,1,0,.1.56.56,0,0,1,0,.12l0,.1,0,.13,0,.11a.5.5,0,0,1,0,.12,10.13,10.13,0,0,0,0,.25s0,.08,0,.12,0,.09,0,.13a.53.53,0,0,0,0,.13.57.57,0,0,0,0,.13.53.53,0,0,1,0,.13v.28a.66.66,0,0,0,0,.14v.14c0,.05,0,.1,0,.15s0,.09,0,.14,0,.1,0,.15,0,.1,0,.15a.78.78,0,0,1,0,.16l0,.14a1,1,0,0,0,0,.17l0,.15,0,.16,0,.16,0,.16a.75.75,0,0,0,0,.16,1.16,1.16,0,0,0,0,.18c0,.05,0,.1,0,.16s0,.11.05.17,0,.11,0,.16l.06.18c0,.06,0,.12.05.17l.06.18.06.17.06.19.06.17.07.19a.87.87,0,0,0,.07.17c0,.07.05.13.07.2a1.22,1.22,0,0,1,.07.17,1.67,1.67,0,0,1,.08.2l.08.18a1.19,1.19,0,0,1,.08.2,1.42,1.42,0,0,1,.08.18,1.86,1.86,0,0,0,.1.2,1.42,1.42,0,0,0,.08.18,2,2,0,0,0,.1.21l.08.18c0,.07.07.15.11.22l.07.15v0l.44.85,0,0,.46.83,0,0,0,.07.37.63,0,0,.39.63,0,.06,0,0c.11.18.23.36.35.54a.57.57,0,0,0,.08.13l.3.46.06.08,0,0c.24.35.49.71.75,1.07l0,0,0,0,.73,1,0,0v0l.76,1,0,0,0,0,.73.89,0,0,.05.06.72.86.05.05,0,.05.75.86.05.05,0,0c.26.3.53.6.81.89l0,0h0c.29.32.58.63.88.94h0l0,0,.8.81.13.13,0,0q.46.47.93.9l0,.05,0,0,1.1,1,0,0,0,0c.46.43.93.84,1.4,1.24l0,0,.05.05.84.7.09.08.87.7.06.05.9.7h0l.91.68.05,0,.86.61.08.05.82.56.1.06c.26.18.53.35.8.52l.09.06.79.48.05,0,.06,0,.4.24.07,0,.46.26.13.07.34.18.15.08.32.17.1,0h0l.69.34.08,0,.67.3,0,0,0,0,.54.23.1,0,.55.21h0l0,0,.44.15.1,0,.47.15h0l.06,0,.36.1.11,0,.41.09h.05l.34.06.11,0,.32.05h.07l.36,0h.09l.26,0h.84l.24,0,.09,0,.27,0h0l.28-.07.08,0,.21-.07,0,0h0l.25-.1,0,0,.2-.11a.05.05,0,0,0,0,0h0l.23-.16,0,0,.21-.17,0,0,.06-.07,29.69-29.66Z"/><path class="cls-20" d="M342.11,168.89a1.9,1.9,0,0,1,0-2.68l10.74-10.74a1.9,1.9,0,1,1,2.69,2.68L344.8,168.89A1.91,1.91,0,0,1,342.11,168.89Z"/><path class="cls-20" d="M367.83,194.6a1.88,1.88,0,0,1,0-2.68l10.73-10.74a1.9,1.9,0,0,1,2.69,2.69L370.51,194.6A1.88,1.88,0,0,1,367.83,194.6Z"/><path class="cls-20" d="M352.42,183.9a1.91,1.91,0,0,1,0-2.69l10.74-10.74a1.9,1.9,0,0,1,2.69,2.69L355.11,183.9A1.91,1.91,0,0,1,352.42,183.9Z"/><path class="cls-19" d="M378,158.75c-9.33-9.33-14.26-19.53-11-22.78s13.43,1.7,22.76,11,14.26,19.53,11,22.77S387.33,168.09,378,158.75Z"/><path class="cls-17" d="M400.67,169.87l-.2.17,0,0-.24.16-.07,0-.2.11,0,0-.26.11-.07,0-.21.07-.08,0-.28.07h0l-.27,0h-.09l-.24,0h-.84l-.26,0h-.09l-.36,0h-.07l-.31-.05-.11,0-.35-.06h-.05l-.41-.1-.11,0-.36-.1-.08,0-.46-.15-.11,0L394,170l-.05,0-.54-.21-.11,0-.54-.23-.09,0-.67-.3-.08,0-.69-.33-.13-.07-.31-.17-.16-.08-.33-.18-.14-.07-.46-.26-.07,0-.4-.23-.11-.07-.79-.48-.09-.06-.8-.52-.1-.06-.82-.56-.08,0-.86-.61,0,0-.92-.67v0c-.3-.22-.61-.46-.91-.7l-.06,0c-.29-.23-.58-.46-.86-.7l-.1-.07-.84-.71-.08-.07-1.4-1.24-.05,0c-.37-.33-.73-.68-1.1-1l-.08-.08-.93-.91-.17-.17-.79-.81,0,0-.88-.93,0,0c-.27-.3-.55-.6-.81-.9l-.08-.08-.75-.86-.09-.1c-.24-.29-.49-.57-.72-.86l-.08-.1-.73-.89,0-.06-.77-1,0-.05c-.25-.33-.5-.66-.73-1l-.06-.08c-.26-.36-.51-.72-.75-1.07a1,1,0,0,0-.08-.11l-.3-.46-.08-.12-.35-.55-.06-.09-.39-.63,0,0c-.13-.21-.26-.42-.38-.63l-.06-.1c-.16-.28-.31-.56-.46-.84l0,0c-.16-.29-.31-.57-.45-.85l-.08-.17c0-.07-.07-.15-.11-.22s-.05-.12-.08-.17l-.1-.22a1.42,1.42,0,0,1-.08-.18l-.1-.2-.07-.18-.09-.2-.08-.18a1.54,1.54,0,0,0-.08-.19,1.34,1.34,0,0,0-.07-.18c0-.07-.05-.13-.07-.19l-.07-.18c0-.06-.05-.12-.07-.19l-.06-.17-.06-.19-.06-.16-.06-.19c0-.05,0-.11-.05-.16a1.21,1.21,0,0,1-.05-.18,1.09,1.09,0,0,1,0-.17l-.05-.17c0-.06,0-.11,0-.16a1.16,1.16,0,0,1,0-.18.83.83,0,0,1,0-.15c0-.06,0-.12,0-.17l0-.16,0-.16,0-.15a1,1,0,0,1,0-.16l0-.15a.88.88,0,0,0,0-.16c0-.05,0-.1,0-.14s0-.11,0-.16,0-.09,0-.14a.76.76,0,0,0,0-.15v-.13a.76.76,0,0,1,0-.15v-.13a.76.76,0,0,1,0-.15v-.12a.61.61,0,0,1,0-.14.57.57,0,0,1,0-.13s0-.09,0-.13,0-.08,0-.12a.59.59,0,0,1,0-.13.5.5,0,0,1,0-.12l0-.12a.36.36,0,0,1,0-.11l0-.12a.36.36,0,0,1,0-.11.56.56,0,0,1,0-.12l0-.1a1.17,1.17,0,0,1,.05-.11.42.42,0,0,1,0-.1,1.17,1.17,0,0,0,.05-.11l0-.09.06-.1.05-.09.07-.1a.35.35,0,0,0,.05-.08l.09-.11.05-.06L367,136l-21.72,21.69-.15.16,0,.06L345,158l-.05.08a.61.61,0,0,0-.07.1.41.41,0,0,0-.05.09l-.07.1,0,.09-.06.11a.42.42,0,0,1,0,.1s0,.07,0,.11l0,.1s0,.08,0,.12l0,.11,0,.12,0,.11,0,.13a.52.52,0,0,1,0,.11.59.59,0,0,1,0,.13s0,.08,0,.12,0,.09,0,.13a.53.53,0,0,1,0,.13v.14a.49.49,0,0,0,0,.12v.43s0,.09,0,.13a.76.76,0,0,0,0,.15.61.61,0,0,0,0,.14c0,.05,0,.11,0,.16s0,.09,0,.14,0,.11,0,.16,0,.1,0,.15l0,.16,0,.15,0,.16,0,.16a1,1,0,0,0,0,.17l0,.16c0,.05,0,.11.05.17a1.24,1.24,0,0,0,0,.16,1.21,1.21,0,0,0,.05.18s0,.1,0,.16l.06.18a1,1,0,0,0,.05.16l.06.19s0,.11,0,.17l.07.18.06.17a1.07,1.07,0,0,0,.07.19l.06.18c0,.06,0,.13.08.19l.07.18c0,.06.05.13.08.19a1.34,1.34,0,0,1,.07.18l.09.2.08.18.09.21a1.3,1.3,0,0,1,.08.17,2.14,2.14,0,0,1,.1.22l.09.17a1.51,1.51,0,0,0,.11.22s0,.1.07.16h0l.44.85,0,0c.15.28.31.56.47.84l0,0a.43.43,0,0,0,0,.07c.12.21.24.42.37.63l0,0q.18.31.39.63l0,.06,0,0,.35.55a.83.83,0,0,1,.08.12l.31.46.06.08v0l.75,1.07,0,0,0,0,.73,1,0,0v0l.76,1,0,0,0,0,.72.89,0,.05,0,0,.73.86,0,0,0,.05c.25.29.5.58.76.86l0,.05,0,0,.82.9,0,0h0l.88.93h0l0,0c.26.28.53.55.8.81l.12.13,0,.05.92.9.05,0,0,0c.36.35.73.69,1.09,1l0,0,0,0c.46.42.93.84,1.39,1.24l0,0,.05,0,.84.71.09.07.86.7.07,0c.3.24.6.48.9.7l0,0,.91.68,0,0,.86.61.08.06.82.55.09.07.8.51.1.06c.26.17.53.33.79.48l.05,0,.05,0,.41.23.07,0,.46.26.13.07.34.18.15.08.32.17.1.05,0,0,.68.33.09,0c.22.11.44.21.67.3l.05,0h0l.55.23.1,0,.54.21h0l0,0,.43.15.11,0,.46.15h.09l.35.1.11,0,.42.1h0l.34.07.11,0,.31,0h.08l.35.05h.09l.27,0h.84l.23,0H377l.28,0h0l.28-.07.08,0,.2-.07h.07l.26-.11,0,0,.21-.11,0,0,0,0a1.43,1.43,0,0,0,.24-.16l0,0,.2-.17,0,0,.07-.07,21.71-21.69Z"/><path class="cls-19" d="M388.83,147.92c-7.24-7.24-11.06-15.14-8.55-17.66s10.41,1.32,17.65,8.55S409,154,406.47,156.47,396.06,155.16,388.83,147.92Z"/><path class="cls-17" d="M406.4,156.54l-.15.13,0,0-.19.12,0,0-.16.09h0l-.2.09-.05,0-.16,0-.06,0-.22,0h0l-.21,0h-.07l-.18,0H404l-.21,0h-.07l-.27,0h-.06l-.24,0H403l-.26-.06h0l-.32-.08-.09,0-.27-.08-.07,0-.36-.11-.08,0-.34-.11,0,0-.42-.16-.08,0-.43-.18-.06,0-.52-.23-.07,0-.53-.26-.1-.05-.24-.13-.13-.07-.25-.13-.11-.06-.35-.2-.06,0a2.48,2.48,0,0,1-.31-.18l-.08,0-.61-.38-.08-.05-.62-.39-.07-.05-.64-.44-.06,0-.67-.47,0,0-.71-.52h0l-.7-.55-.06,0-.66-.54-.07-.06-.66-.55-.06,0-1.09-1,0,0-.85-.79-.06-.07-.72-.69-.13-.14-.62-.63,0,0-.69-.72,0,0-.63-.7-.05-.06-.59-.67-.07-.08-.56-.66-.06-.08-.56-.69,0,0-.59-.76,0,0-.57-.77,0-.06-.58-.83L383,141c-.08-.12-.16-.23-.23-.35a.61.61,0,0,1-.07-.1l-.27-.42,0-.07-.3-.49,0,0-.29-.49,0-.08c-.13-.22-.25-.43-.36-.65l0,0c-.12-.22-.23-.44-.34-.66l-.07-.13a1.3,1.3,0,0,0-.08-.17.91.91,0,0,0-.07-.14l-.07-.16a.91.91,0,0,0-.07-.14,1.11,1.11,0,0,0-.07-.16l-.06-.14a1,1,0,0,0-.07-.15s0-.1-.05-.14l-.07-.15c0-.05,0-.1-.05-.14l-.06-.15s0-.09-.05-.13a.88.88,0,0,1-.05-.15,1.12,1.12,0,0,1,0-.13.88.88,0,0,1-.05-.15s0-.09-.05-.13,0-.1,0-.14,0-.09,0-.13a.74.74,0,0,1,0-.14.5.5,0,0,1,0-.13.65.65,0,0,0,0-.13l0-.13,0-.13,0-.12,0-.13a.5.5,0,0,1,0-.12l0-.13s0-.08,0-.12,0-.08,0-.13,0-.07,0-.11,0-.08,0-.12a.45.45,0,0,1,0-.11s0-.08,0-.12a.37.37,0,0,0,0-.11v-.12s0-.07,0-.1v-.33a.34.34,0,0,1,0-.1v-.11s0-.06,0-.09,0-.07,0-.11,0-.06,0-.09,0-.07,0-.1,0-.06,0-.09l0-.1a.19.19,0,0,1,0-.08.3.3,0,0,1,0-.1l0-.08a.32.32,0,0,1,0-.09s0,0,0-.08a.36.36,0,0,0,0-.09l0-.07a.36.36,0,0,0,0-.09.16.16,0,0,0,0-.07l.05-.08a.21.21,0,0,1,0-.06.41.41,0,0,1,0-.09l0,0,.07-.09s0,0,0,0a.69.69,0,0,1,.11-.13L371.5,139l-.11.12s0,0,0,0l-.07.09,0,.06-.06.08,0,.06a.41.41,0,0,0,0,.09.43.43,0,0,0,0,.07.59.59,0,0,0,0,.08l0,.07,0,.09a.31.31,0,0,0,0,.08.36.36,0,0,0,0,.09.29.29,0,0,1,0,.09l0,.09a.29.29,0,0,1,0,.09.29.29,0,0,1,0,.09s0,.06,0,.09,0,.07,0,.1,0,.07,0,.1,0,.07,0,.1,0,.06,0,.1a.34.34,0,0,1,0,.1v.43a.45.45,0,0,0,0,.11v.11a.41.41,0,0,1,0,.11.49.49,0,0,1,0,.12s0,.07,0,.11,0,.08,0,.12,0,.08,0,.12,0,.08,0,.12,0,.08,0,.12a.59.59,0,0,1,0,.13l0,.12,0,.13,0,.12,0,.14,0,.12c0,.05,0,.09,0,.14a.56.56,0,0,0,0,.12.57.57,0,0,0,0,.14.5.5,0,0,0,0,.13c0,.05,0,.1,0,.14s0,.09,0,.13a.88.88,0,0,0,.05.15l0,.13.06.15s0,.09.05.13l.06.15.05.14a1,1,0,0,0,.07.15.78.78,0,0,0,.05.14c0,.05.05.1.07.16l.06.13c0,.06.05.11.07.16a.61.61,0,0,0,.07.14c0,.06,0,.11.07.17a.83.83,0,0,1,.07.13c0,.06.05.12.08.17l.06.12h0c.1.22.22.44.34.66l0,0c.11.21.23.43.36.64v0l0,.05.29.49,0,0,.3.49,0,.05,0,0,.27.42.06.1.24.36,0,.06,0,0c.18.28.38.55.58.83l0,0,0,0c.19.26.37.51.57.77l0,0h0c.19.26.39.51.59.77h0l0,0,.56.7,0,0,0,0,.56.67,0,0,0,0,.59.66,0,0,0,0,.63.69,0,0h0l.69.73h0l0,0,.62.63.09.09,0,0,.72.7,0,0,0,0,.85.79,0,0,0,0c.36.33.73.65,1.09,1l0,0,0,0,.65.55.08.05.66.55.05,0,.7.54h0l.7.53,0,0,.67.48.06,0,.64.43.07.05.62.4.07,0,.62.38,0,0,0,0,.31.18,0,0,.36.2.11.06.25.14.12.06.25.13.08,0h0l.53.26.07,0,.52.24h0l0,0,.43.17.08,0,.42.16h0l.34.12.08,0,.36.12h.06l.28.08.08,0,.33.08h0l.26,0h.09l.24,0h.06l.27,0h1.18l.21,0h0l.22-.05.06,0,.16-.05h.05l.2-.08,0,0,.15-.09h0l0,0a1.22,1.22,0,0,0,.19-.12h0l.16-.13,0,0,.05,0,8.78-8.77A.23.23,0,0,1,406.4,156.54Z"/><path class="cls-19" d="M393,143.71c-7.24-7.24-11.06-15.14-8.55-17.66s10.41,1.32,17.65,8.56,11.06,15.14,8.54,17.66S400.27,151,393,143.71Z"/><path class="cls-18" d="M410.61,152.33l-.16.14h0l-.19.12-.05,0-.15.09h0l-.2.09-.05,0-.16,0-.06,0-.22.05h0l-.21,0h-1.18l-.28,0h-.05l-.24,0h-.09l-.26,0h0l-.33-.08-.08,0-.28-.08-.06,0-.36-.11-.08,0-.34-.12,0,0-.42-.16-.08,0-.43-.18-.06,0-.52-.23-.07,0-.53-.26-.1-.05-.25-.13-.12-.06-.25-.14-.11-.06-.36-.2-.05,0-.31-.18-.08-.05-.62-.38-.07,0-.62-.4-.07-.05-.64-.43-.06-.05-.67-.47,0,0-.7-.52h0l-.7-.55-.05,0q-.33-.25-.66-.54l-.08-.06-.65-.55-.06,0c-.37-.31-.73-.63-1.09-1l0,0-.85-.79-.06-.07c-.24-.22-.48-.46-.72-.69l-.13-.14c-.21-.2-.42-.41-.62-.62l0,0-.69-.72,0,0-.63-.7-.06-.06c-.19-.22-.39-.44-.58-.67l-.07-.07-.56-.67-.06-.08-.56-.69,0-.05-.59-.76,0,0c-.2-.26-.38-.51-.57-.77l0-.06c-.2-.28-.4-.56-.58-.83l-.06-.09-.24-.35-.06-.1-.27-.42-.05-.07-.3-.49,0,0-.29-.49,0-.08c-.13-.22-.25-.43-.36-.65l0,0c-.12-.22-.24-.44-.34-.66a.83.83,0,0,1-.07-.13l-.08-.17s0-.09-.07-.14l-.07-.16-.07-.14-.07-.16-.06-.14-.07-.15-.06-.14-.06-.15-.05-.14-.06-.15s0-.09,0-.13l-.06-.15c0-.05,0-.09,0-.13a.88.88,0,0,1-.05-.15s0-.08-.05-.13,0-.09,0-.14a.65.65,0,0,1,0-.13.74.74,0,0,1,0-.14.5.5,0,0,1,0-.13l0-.13,0-.13,0-.13,0-.12,0-.13,0-.12a.51.51,0,0,0,0-.13s0-.08,0-.12,0-.08,0-.12,0-.08,0-.12,0-.08,0-.12,0-.07,0-.11a.49.49,0,0,0,0-.12.41.41,0,0,0,0-.11v-.12a.34.34,0,0,1,0-.1V128a.34.34,0,0,0,0-.1s0-.07,0-.1,0-.07,0-.11,0-.06,0-.09,0-.07,0-.1,0-.06,0-.09a.3.3,0,0,0,0-.1.19.19,0,0,0,0-.08l0-.1a.19.19,0,0,0,0-.08l0-.09,0-.08,0-.09,0-.07,0-.09,0-.06a.41.41,0,0,1,.05-.09l0-.06.06-.09,0,0,.07-.09,0,0,.12-.13-4.22,4.2a.69.69,0,0,0-.11.13s0,0,0,0l-.07.09a.1.1,0,0,1,0,.05.41.41,0,0,0-.05.09.21.21,0,0,0,0,.06.56.56,0,0,1-.05.08.16.16,0,0,1,0,.07.36.36,0,0,1,0,.09l0,.07a.36.36,0,0,1,0,.09.24.24,0,0,1,0,.08l0,.09,0,.08a.36.36,0,0,0,0,.1.24.24,0,0,0,0,.08.44.44,0,0,0,0,.1.29.29,0,0,0,0,.09s0,.07,0,.1a.28.28,0,0,1,0,.09s0,.07,0,.11a.28.28,0,0,1,0,.09v.11a.34.34,0,0,0,0,.1v.33a.34.34,0,0,1,0,.1.49.49,0,0,0,0,.12V133s0,.08,0,.12a.45.45,0,0,0,0,.11s0,.08,0,.12a.5.5,0,0,1,0,.12s0,.08,0,.12a.5.5,0,0,1,0,.12l0,.13a.5.5,0,0,0,0,.12l0,.13,0,.12,0,.13,0,.13a.65.65,0,0,1,0,.13s0,.09,0,.13,0,.09,0,.14l0,.13a.78.78,0,0,0,.05.14.65.65,0,0,0,0,.13c0,.05,0,.1,0,.15s0,.08.05.13a.88.88,0,0,0,.05.15s0,.09.05.13l.06.15a.78.78,0,0,1,.05.14l.07.15a.78.78,0,0,1,.05.14,1,1,0,0,1,.07.15l.06.14c0,.05,0,.11.08.16l.06.14a1.19,1.19,0,0,0,.08.16l.06.14a1.3,1.3,0,0,1,.08.17l.06.12h0c.11.22.22.44.34.66l0,0c.11.22.23.43.36.65l0,0,0,0,.29.49,0,0c.09.16.19.33.3.49l0,0,0,0,.27.42.07.1c.07.12.15.23.23.35l.05.07v0l.58.83,0,0,0,0c.18.26.37.51.56.77l0,0h0l.59.76v0l0,0,.56.69,0,0,0,0,.57.67,0,0,0,0c.19.23.39.45.59.67l0,0,0,0,.63.7,0,0h0l.69.72h0l0,0,.62.62.1.1,0,0,.72.69,0,0,0,0,.84.79,0,0,0,0,1.09,1,0,0,0,0,.66.55.07.06c.22.19.44.37.67.54l.05,0,.7.55h0l.71.52,0,0,.67.47.06.05.64.43.07,0,.62.4.08,0,.61.38,0,0,0,0,.31.18.06,0,.36.2.1.06.26.14.12.06.24.13.08,0h0l.54.26.06,0,.52.23,0,0h0l.42.18.08,0,.42.16h0l.34.11.08,0,.36.11h.07l.27.08.09,0,.32.08h0l.26.06h.09l.24,0h.06l.27,0h.93l.18,0h.07l.21,0h0l.22,0,.06,0,.16-.05h0l.2-.09h0l.16-.09h0l0,0,.18-.12h0l.15-.14,0,0,.05,0,4.21-4.2Z"/><rect class="cls-18" x="391.05" y="199.64" width="42.71" height="70.36" rx="2.12" ry="2.12" transform="translate(-45.25 360.39) rotate(-45)"/><ellipse class="cls-17" cx="301.15" cy="235.17" rx="12.8" ry="52.58" transform="translate(-78.09 281.83) rotate(-45)"/><path class="cls-18" d="M277,259.77a1.72,1.72,0,0,1,1.11-2.93l55.79-3.25a1.71,1.71,0,1,1,.2,3.42l-55.79,3.26A1.74,1.74,0,0,1,277,259.77Z"/><path class="cls-18" d="M277,259.77a1.75,1.75,0,0,1-.5-1.32l3.28-55.94a1.71,1.71,0,0,1,3.42.2l-3.27,55.94a1.73,1.73,0,0,1-1.82,1.62A1.78,1.78,0,0,1,277,259.77Z"/><path class="cls-18" d="M277,259.77a1.72,1.72,0,0,1,0-2.43l32.22-32.22a1.72,1.72,0,0,1,2.43,2.43l-32.22,32.22A1.72,1.72,0,0,1,277,259.77Z"/><ellipse class="cls-17" cx="278.19" cy="258.55" rx="2.59" ry="6.16" transform="translate(-101.34 272.43) rotate(-45)"/><path class="cls-18" d="M274.19,262.55c1.38,1.37,2.1,2.87,1.63,3.35s-2-.25-3.35-1.62-2.1-2.88-1.62-3.35S272.82,261.18,274.19,262.55Z"/><path class="cls-19" d="M270.86,260.91l0,0h0l0,0h0l0,0h0l0,0h.55l.06,0h0l.06,0h0l.07,0h0l.07,0h0l.08,0h0l.08,0h0l.1,0h0l.1.05h0l.05,0h0l.05,0h0l.07,0h0l.06,0h0l.12.07h0l.12.07h0l.12.09h0l.13.09h0l.14.1h0l.13.1h0l.13.1h0l.12.11h0l.2.18h0l.16.15h0l.14.13,0,0,.12.12h0l.13.14h0l.12.13h0l.12.13h0l.1.13h0a1.47,1.47,0,0,0,.1.13h0l.11.15h0l.1.14h0l.11.16v0l0,.06v0l0,.08v0l.06.09h0l.06.1h0l.06.12h0l.06.13v0l0,0v0l0,0v.08l0,0v.89h0v.06h0v0h0v0h0v0h0v0h0l0,0h0l0,0,4-4,0,0h0l0,0h0v0h0v0h0v0h0v-.06h0v-.06h0v-.85l0,0v-.08l0,0v0l0,0v0h0l-.06-.12h0a.75.75,0,0,0-.07-.12h0a.41.41,0,0,0,0-.09h0l-.06-.09h0a.56.56,0,0,0,0-.08v0l0-.07h0a.91.91,0,0,0-.11-.16h0l-.1-.15h0l-.11-.14h0l-.11-.13h0l-.1-.12h0l-.11-.12h0l-.12-.13h0l-.13-.14h0l-.12-.12h0l-.14-.13h0l-.16-.15h0l-.2-.19h0l-.12-.1h0l-.13-.1h0l-.13-.1h0l-.13-.1h0l-.13-.09h0l-.12-.08h0l-.12-.08h0l-.12-.08h0l-.06,0h0l-.07,0h0l-.05,0h0l-.05,0h0l-.1-.05h0l-.1,0h0l-.08,0h0l-.08,0h0l-.06,0h0l-.06,0h-.77l0,0h0l0,0h0l-4,4Z"/><path class="cls-19" d="M310.2,226.12c20.53,20.53,33.13,41.23,28.13,46.23,8.4-8.4.16-33.45-20.37-54S272.37,189.59,264,198C269,193,289.67,205.59,310.2,226.12Z"/><polygon class="cls-19" points="414.83 234.82 428.72 220.93 426.29 218.51 412.4 232.39 388.74 208.73 386.32 211.16 409.98 234.82 396.09 248.71 396.09 248.71 398.52 251.13 398.52 251.13 412.4 237.24 436.07 260.91 438.49 258.48 414.83 234.82"/><path class="cls-17" d="M398.84,139.61a1.69,1.69,0,0,1-1.21-.5,1.71,1.71,0,0,1,0-2.42l6.25-6.26a1.72,1.72,0,1,1,2.43,2.43l-6.26,6.25A1.67,1.67,0,0,1,398.84,139.61Z"/></g></g></g></svg>