<svg xmlns="http://www.w3.org/2000/svg" xmlns:xlink="http://www.w3.org/1999/xlink" viewBox="0 0 350 310.83"><defs><style>.cls-1,.cls-12,.cls-2{fill:#fff;}.cls-12,.cls-2{mix-blend-mode:overlay;}.cls-3{fill:url(#radial-gradient);}.cls-4{isolation:isolate;}.cls-5{fill:url(#Degradado_sin_nombre_45);}.cls-6{fill:#3bace0;}.cls-7{mask:url(#mask);}.cls-8{opacity:0.9;}.cls-9{fill:#d7e02b;}.cls-10{fill:#edf8ff;}.cls-11{fill:#ffe2bc;}.cls-12{opacity:0.2;}.cls-13{mask:url(#mask-2);}.cls-14,.cls-16{fill:#7f8083;}.cls-14{opacity:0.7;}.cls-14,.cls-15{mix-blend-mode:multiply;}.cls-15{opacity:0.4;}.cls-17{fill:#384344;}.cls-18{fill:#86a7b5;}.cls-19{fill:#e9f4f6;}.cls-20{fill:#d93c2b;}.cls-21{fill:none;}.cls-22{fill:#3d8bf2;}.cls-23{fill:#d94141;}.cls-24{fill:#0fa65f;}.cls-25{fill:#f2c744;}</style><radialGradient id="radial-gradient" cx="-1017.23" cy="1582.1" r="163.7" gradientTransform="translate(698.3 -1713.41) rotate(-15.35) scale(1.02)" gradientUnits="userSpaceOnUse"><stop offset="0"/><stop offset="0.22" stop-color="#3d3d3d"/><stop offset="0.73" stop-color="#c7c7c7"/><stop offset="0.95" stop-color="#fff"/></radialGradient><radialGradient id="Degradado_sin_nombre_45" cx="155.41" cy="155.41" r="155.41" gradientUnits="userSpaceOnUse"><stop offset="0.69" stop-color="#002165"/><stop offset="1" stop-color="#000042"/></radialGradient><mask id="mask" x="6.49" y="50.76" width="224.11" height="227.52" maskUnits="userSpaceOnUse"><path class="cls-1" d="M209.8,97.77A111.32,111.32,0,0,0,60.33,67.44c-3.44,2.21-6.91,4.67-10.83,7.66A111.33,111.33,0,0,0,28.4,226.15q3.12,4.41,6.58,8.41l-1-.51a111.31,111.31,0,0,0,145.94,21.14c1-.63,1.93-1.28,2.89-1.94.13-.1.28-.18.41-.28l.18-.13.19-.13c.13-.09.26-.2.4-.29.94-.68,1.87-1.38,2.79-2.08a111.32,111.32,0,0,0,28.6-144.67l.15,1.1C213.79,103.72,211.88,100.71,209.8,97.77Z"/><path class="cls-2" d="M146.52,54.24a111.13,111.13,0,0,0-86.19,13.2c-3.44,2.21-6.91,4.67-10.83,7.66A111.33,111.33,0,0,0,28.4,226.15q3.12,4.41,6.58,8.41l-1-.51A111.1,111.1,0,0,0,109.08,273Z"/></mask><mask id="mask-2" x="5.92" y="49.2" width="226.57" height="226.56" maskUnits="userSpaceOnUse"><path class="cls-3" d="M211.33,97A113.29,113.29,0,0,0,59.23,66.17c-3.5,2.25-7,4.75-11,7.8a113.29,113.29,0,0,0-21.47,153.7q3.18,4.49,6.69,8.56l-1-.52a113.27,113.27,0,0,0,148.5,21.51c1-.64,2-1.3,2.94-2l.42-.29.19-.13.18-.13.41-.3c1-.69,1.91-1.4,2.84-2.12A113.26,113.26,0,0,0,217,105.08l.16,1.12Q214.49,101.54,211.33,97Z"/></mask></defs><title>pngRecurso 5resultado</title><g class="cls-4"><g id="Capa_2" data-name="Capa 2"><g id="Capa_1-2" data-name="Capa 1"><circle class="cls-5" cx="155.41" cy="155.41" r="155.41"/><path class="cls-6" d="M226.8,133.58a111.39,111.39,0,0,0-7.62-20.33c-.46-.94-.94-1.88-1.43-2.81-.78-1.46-1.59-2.92-2.43-4.36l.15,1.09c-1.75-3-3.66-6.06-5.74-9A111.2,111.2,0,0,0,60.26,67.84c-3.44,2.21-6.91,4.67-10.83,7.66A109.9,109.9,0,0,0,37.84,86.25h0a111,111,0,0,0-13.15,17.15s0,0,0,0a0,0,0,0,0,0,0h0c-.08.12-.17.25-.24.38l-.07.11c-.24.39-.48.78-.71,1.17l-.07.12c-.24.41-.48.81-.71,1.22l-.21.35L22,107.93l-.75,1.36-.5.94-.09.18-.34.65-1,1.93-.35.72-.42.88c-.1.23-.21.45-.32.68-.31.68-.62,1.36-.91,2-.12.25-.23.49-.33.74l-.42,1c-.15.37-.3.74-.46,1.11l-.27.68-.39,1h0l-.31.81a.08.08,0,0,0,0,0c-.12.3-.23.59-.34.89s-.18.48-.26.72h0l-.18.51q-.54,1.49-1,3c-.14.43-.28.87-.41,1.3l0,.1c-.16.48-.3,1-.45,1.46l0,.13a.14.14,0,0,0,0,.06.14.14,0,0,1,0,.06h0l-.28,1-.12.42-.36,1.32-.36,1.4c-.13.52-.26,1-.38,1.57s-.2.86-.31,1.3c-.14.65-.28,1.3-.41,2-.09.41-.17.82-.25,1.23-.11.57-.22,1.14-.32,1.71s-.15.87-.22,1.31-.18,1.05-.25,1.57-.12.76-.17,1.15c0,.18-.05.36-.08.54-.05.43-.11.85-.16,1.28s-.13,1-.18,1.53-.09.8-.13,1.21c0,.14,0,.27,0,.41s0,.31,0,.46l-.09,1c0,.48-.07,1-.11,1.46v.07c0,.51-.07,1-.1,1.53L8,157.5v0c0,.19,0,.38,0,.56,0,.34,0,.68,0,1,0,.12,0,.23,0,.35,0,.46,0,.92,0,1.37s0,1,0,1.53a110.79,110.79,0,0,0,20.46,64.2c.52.73,1.05,1.46,1.58,2.18.8,1.07,1.62,2.13,2.45,3.17S34.05,234,34.91,235l-1-.51q3.57,4.22,7.47,8c1.11,1.08,2.25,2.14,3.39,3.17.77.68,1.55,1.35,2.33,2s1.57,1.31,2.37,2q1.8,1.42,3.64,2.78c.82.6,1.65,1.18,2.48,1.76.42.29.83.58,1.26.85,1.68,1.13,3.38,2.21,5.12,3.24q3.24,1.92,6.6,3.62c.89.45,1.79.89,2.69,1.31l1.36.64c1.37.62,2.74,1.21,4.13,1.77a111.8,111.8,0,0,0,38.92,8.22c1.08,0,2.17,0,3.26,0,1.37,0,2.73,0,4.1-.07a111.51,111.51,0,0,0,16.54-1.86c.9-.17,1.81-.35,2.71-.55l.43-.09c.83-.18,1.67-.37,2.51-.58s1.42-.35,2.12-.54,1.11-.29,1.66-.45c.74-.2,1.46-.42,2.2-.64l1.61-.51a110.92,110.92,0,0,0,21.71-9.63l1.79-1.06,1.78-1.1,1.76-1.14c1-.63,1.93-1.27,2.89-1.94.14-.09.28-.18.41-.28l.18-.13a1.18,1.18,0,0,0,.18-.13l.41-.29c.94-.68,1.87-1.38,2.79-2.08q2.81-2.15,5.44-4.42l1-.89c.37-.32.72-.64,1.07-1s.68-.62,1-.94.47-.43.7-.66l.6-.57c.29-.27.57-.55.85-.83l1-1h0c.33-.33.65-.67,1-1l.28-.29q.45-.46.87-.93c.36-.37.7-.74,1-1.12l1-1.14,1-1.16c1-1.16,2-2.33,2.9-3.52l.94-1.2c.31-.4.61-.81.91-1.21l.74-1c.08-.11.15-.22.23-.32l.81-1.14.86-1.23.85-1.26c.27-.4.53-.81.8-1.22l.05-.07.78-1.23.79-1.28.72-1.21.18-.29.55-1c.08-.13.15-.26.22-.39.2-.35.4-.69.59-1s.48-.87.71-1.31.48-.89.71-1.34c.46-.88.9-1.76,1.33-2.65l.64-1.35c.21-.45.42-.9.62-1.35s.38-.84.56-1.26l.06-.13.57-1.34c.38-.88.73-1.76,1.08-2.64,0-.07,0-.14.07-.2.17-.43.33-.87.5-1.3s.26-.69.38-1,.26-.69.38-1l.12-.35.12-.36c.16-.47.32-.94.47-1.41s.31-.93.46-1.4c0,0,0,0,0,0,.14-.47.29-.94.43-1.41s.28-.94.41-1.42c.29-1,.56-2,.81-3,.09-.33.17-.66.26-1,.28-1.16.55-2.32.79-3.48q.13-.58.24-1.17c.3-1.44.57-2.9.8-4.36.07-.49.15-1,.22-1.46l.21-1.47c.13-1,.25-2,.35-2.94q.31-3,.48-5.92v0A111.39,111.39,0,0,0,226.8,133.58Z"/><g class="cls-7"><g class="cls-8"><path class="cls-9" d="M135.47,212.68c0-.23-.08-.45-.13-.67s-.13-.69-.19-1l0-.17c0-.2-.07-.37-.11-.53s0-.12,0-.18c0-.23-.08-.39-.09-.46s0,0,0,0v0s.43-1.45,1-2.94,1-2.95,1-2.95-3.37-1.65-7.34-3.14L125,199l-2.57-.91-2,.61c-1.4.41-2.18.64-2.61.11-.21.06-.87-1.08-1.59-2.84a14.5,14.5,0,0,0-1.36-2.91,10.24,10.24,0,0,0-3.29.31l-3.33,1c-.23.07-.83-1.08-1.52-2.86a26.68,26.68,0,0,0-1.42-2.88l-4.3,1.26a39.83,39.83,0,0,1-6.56.61l-2.52-.57-2.49,2.72-2.66,2.1-3.24,1c-3.7,1.09-3.13,1.58-4.72-1.91a7.55,7.55,0,0,0-1.31-2.27c-.31-.56-1-.35-1.79-.13l-1.38.41-.35-1.22c-.16-.62-.42-1.86-.67-3.11l-.33-1.89-1.26-.29L70.39,185l-1.6,1.8a11,11,0,0,1-2.19,2c-.67.2-5.34-2.38-5.52-3s1.18-7.63,1.41-8.36L67.38,176c5.15-1.52,4.56-1.34,7.09.55C76,178.05,76,178,77.54,177.6c1.81-.54,2,.07,0-3.3a14.88,14.88,0,0,1-1.57-2.85,37.06,37.06,0,0,1,2.19-3.95c2.34-4.66,2.27-4,.81-6.85-.3-.58-.28-1.25.4-2.77.89-1.58,1-1.6,2.26-2l1.34-.39L82.35,153a15.5,15.5,0,0,1-.62-3.12,59.18,59.18,0,0,0,6-7.06c3.3-3.62,6-7.08,6.24-7.14.14-.7-.75-1.1-7-5.86a60.42,60.42,0,0,0-7.72-5.66c-.43-.53-13.34.63-14.65,1-.45.13-.31.75.58,3.79s1.14,3.63,1.79,4.11c.47.52.89,1.06.89,1.06.35,1.21.17,7.22-.17,7.32a31.76,31.76,0,0,1-4.07-2.76,22,22,0,0,0-4.53-2.64,13.36,13.36,0,0,1-3.52-.29,4.76,4.76,0,0,1-4.34-.7,3.78,3.78,0,0,1-1.94-1.41c-.11-.63.47-2.12,1-4.26,1.2-4.33.74-3.52,6.52-4.57l3.56-1a8.45,8.45,0,0,0-1.12-2.32l-1.3-2.26.08-2.67a15.3,15.3,0,0,1,.23-2.71c-.1-.64.76-.89,1.7-1.17,1.3-.38,1.76-.52,2.06.06h0a4.9,4.9,0,0,1,.19.75.24.24,0,0,0,0,.09v0c0,.08,0,.17,0,.26v0l.06.32c.1.65.21,1.46.3,2.27a12.87,12.87,0,0,0,.71,3.76,37.63,37.63,0,0,0,6.34.12l5.74-1,1.69-3.15.43-.78c.94-2.92,1.75-5.15,1.75-5.15s-5.37-3-11.66-5.81c-6.48-3.39-11.87-5.77-12.27-6.3-.24.07-.52-.52-.4-.55s2-5.23,4.29-11.19c2.47-5.36,4.31-10.53,4.36-10.54-.1-.64-1.53-.22-10.55,1.78l-6.3,1.2-8.91,7.39h0l-8.57,7.1h0l-1.07.89,1.07-.89a113,113,0,0,0-15.59,27.75l.86.32.6.22.18.07.19.07h0l1.37.53.55.21.12,0,.12,0,.2.07h0l.25.09.08,0,.14,0,.2,0c.46.52.41.54-.13.69h0s0,0,0,0l-.62.11-.29,0-.17,0-.37.07-.13,0-.14,0L16,124l-.25,0-.16,0-.25,0-.82.14h0l-.24,0-.22,0-1,.16-.7.12h-.08c-1,2.9-1.91,5.84-2.69,8.8a113.18,113.18,0,0,0-3.17,17.62c.46.28,1,.59,1.47.91l.19.12.19.11a22.52,22.52,0,0,1,4.1,2.93l-.64.19c-1.2.35-1.07,1,.4,2.53a10.43,10.43,0,0,0,1.9,2.08l1.51-.44c.65-.85,1.17-1,1.65-.49.12,0,.68.4,1.44,1l.23.19.23.2,1.67,1.48,3,2.43L25,169.29l1.32,5.56,9.59,7.76,9.57,7.76,2.22-.66c1.22-.36,2.4-.7,2.81-.16a15.53,15.53,0,0,1,3.09,1.73l2.85,2.47,7.36,1.8L71.27,198l1.64-1.15,1.82-.53,2.1,2.69c1,1,2.11,2,2.54,2.55l3.26-1,2.81-.83.72,2.44c.71,2.43.7,2.43.24,5.22a4.26,4.26,0,0,0-.47,2.78c.2.6,2.62,3.86,5.69,8.24l5.31,7,3.39,1c2.51.58,3.22.37,3.4,1s1,7,2.18,15.23l.82,6.29,0,.21,0,.19,1,7.32,2.15,7.31,2.15,7.29,3.65,2.51.27.19h0l.29.2.49.33c.59.43,1.17.85,1.71,1.26l.6.44.41.31.71.54.22.17h0l.33.24c.26.21.49.38.67.51l.17.12.15.11c.09.06.15.09.16.08a.39.39,0,0,0,.16-.16l.09-.18.21-.48.06-.14,0-.15.06-.16a1.59,1.59,0,0,1,.07-.2c.12-.36.24-.75.34-1.12a.79.79,0,0,0,.06-.22.94.94,0,0,0,0-.16,1,1,0,0,0,0-.17,2.84,2.84,0,0,0,.1-.45,1.81,1.81,0,0,0,0-.36.82.82,0,0,0,0-.21.5.5,0,0,0,0-.19h0l0,0-.12-.14-.59-.62-.16-.16-.35-.34c-.24-.24-.51-.49-.78-.74a7,7,0,0,1-1.86-1.44,7.32,7.32,0,0,1,1.19-2.33l1-2.95-.54-1.82c0-.17-.1-.34-.16-.51s-.23-.64-.36-.93c0-.09-.07-.17-.11-.26l-.21-.45L120,261l-.09-.18a4.18,4.18,0,0,0-.27-.41c-.72-1.11-.72-1.11-.47-1.85.07-.4,1.35-3.47,3.16-7.7l.08-.2a1.08,1.08,0,0,0,.08-.19c4.56-10.65,12.28-28.18,13.12-29.83l.8-2.23-.59-3.79C135.71,214,135.59,213.3,135.47,212.68Zm93.32-79.25A112.24,112.24,0,0,0,217,105.08l.16,1.12c-1.79-3.12-3.73-6.17-5.85-9.16a113.3,113.3,0,0,0-20.08-21.73L190,76.82l-1.58,1.92c-2.24,3.31-4.58,6-5,6.76l-.84.91-2.55-1.89a4.07,4.07,0,0,1-2.55-1.89l2.59-.77c3-.23,2.9-.2,3.18-.94.39-.11,1.17-2.76,1.45-4.41,0-.21.07-.41.09-.58a1.88,1.88,0,0,0,0-.64.19.19,0,0,0,0-.09h-.05a82,82,0,0,1-8.62.56c-4.74.08-9,0-9.31.11a28.11,28.11,0,0,0-5.27,3.53c-3.64,1.74-5,2.79-5.21,3.52s-5.32,16.13-5.48,17.5a25.59,25.59,0,0,0,1.35,6.21l1.58-.46,1.36-.4a9.91,9.91,0,0,1,2.85-1.51,7.94,7.94,0,0,0,1.36,1.58c1.21,1.64,1.27,1.62,4.36-.62l2-1.26-.48-2.5L164.75,99,163.43,98c-.71-.45-1.32-.93-1.32-.93s3-8.82,3.16-9.53c.41-.12,3.2,1.7,3.2,1.7.18.61-.53,1.48-1.27,3a7.75,7.75,0,0,0-1.46,2.41,21.16,21.16,0,0,0,3,3.75c.2-.06,1.46-1.1,2.83-2.16l2.66-1.45.95.38a4.24,4.24,0,0,1,1,1c-.05,0-1.81,1.86-4,3.83l-4.08,3.18.08,1.3c0,.66,0,1.34,0,2l-4.52,1.33-4.08,1.87-1.41-1.57a5.08,5.08,0,0,0-1.5-.88c-.45.13-2,1.92-1.83,2.52,0,0,.42.54.88,1.07a15.68,15.68,0,0,0,1.08,1.66c.18.61-.54,2.15-1.51,3.75-1.42,3.07-1.82,3.19-2.82,4.15-1.1.32-1.69.49-2.83,2.82a10.65,10.65,0,0,0-1.6,2.44c.12.63.74,1.12,1.51,1.55,1.78,1.46,1.85,1.43,1.55,3.51l-.24,1.39-2.13.63-3.37,1c-1.77-.15-1.77-.15.85,3.72,2.34,3.35,3.38,4.86,3.91,5.51a3,3,0,0,0,.33.35.53.53,0,0,0,.14.08h.13l0,0a5,5,0,0,0,.43-.69l.18-.31c.29-.53.68-1.23,1.11-2h0c.54-1,1.18-2.15,1.87-3.31a29.63,29.63,0,0,1,3.55-6.34l1.14-.34c1,.38,1.1.35,2.17-1.29l1-2.27,1.88.77c4.39,2,4.87,1.86,5.74,3.6,1.4,2.89,1.9,3.4,2.11,3.34a15.24,15.24,0,0,0,1.58-4.43c.09-.69-.33-1.22-3.21-3.68-1.77-1.47-3.33-3-3.33-3-.18-.61,0-.67.08-1.34.48-.15.67-.2,5.92,3.54,2.57,1.88,2.85,2.47,3.68,4.2.53,1.17,1.09,2.33,1.34,2.91s1,1,2.9,1.8c.22.05.45.11.67.18l.19.07.39.15c.68.28,1.28.6,1.56.69l.07,0h.12c.41-.1,2.27-.32,1.44-2.62.65-1.4,3.33,1.21,3.49,1.16a28.29,28.29,0,0,1,2.77,1.83l-4.8,1.41-5,.81-1.38-.25a7,7,0,0,0-1.92-.76A10.21,10.21,0,0,0,177,139a5.28,5.28,0,0,1-1.32,2.37c-.17.05-1.92-.09-3.86-.19l-3.55-.27-.54-1.83c-.36-1.21-.45-1.18-1.81-2.11l-1.45-.9L160.16,138l-4.29,1.93-6,9.7-5.76,10.29,2.35,7.25c1.36,4.22,2.59,7.83,2.87,8.4.09,0,1.73.82,3.55,1.61,2,1.39,3.9,2.15,4.48,2.64.93.39,1,.37,7.54-.9l6.44-1.9,3.51,1.62a14.07,14.07,0,0,1,3.46,1,5.29,5.29,0,0,1-.69,1.52l-.83,1.57,2.59,1.89a33.61,33.61,0,0,1,4.37,3.33l1.59.86,1.08,3.65.9,3-.74,1.54-.56,2.15,7.07,10.48c3.56,5.13,6.57,9.25,7.21,10.25l.1.15h0l.39-.11a17.9,17.9,0,0,1,3.95-.5l4.36-1.29c.28-.08,4.14-10.27,5.84-15.13l.3-.88h0l.19-.57.18-.55c0-.65-.21-1.92-.44-3.17-.54-2.5-.57-3.15-.36-3.88,3-4.2,3-3.52,1.13-8.26-.93-2.37-1.26-2.94-2-3.38a3.91,3.91,0,0,1-1.21-1.63s1.51-5.74,3.3-12.88c1.79-5.95,3.26-11.25,3.44-12.63a.73.73,0,0,0,0-.29l-3,.88L213,156.84c-.27.74-1.83-.13-4.92-1.19-2.13-1.37-2.21-1.34-7.35-7.1l-5.38-6.35-.61-2.46c-.29-1.24-.31-1.9-.05-2,.45-.79,1.84-1.2,2.41-.71.19-.06,3.85,4.16,8,8.9s7.61,8.34,7.81,8.28c.43.53,1.76-.52,4.12-2.54,2.08-1.28,3.83-3.11,4.15-3.21.52-.81,2.46-6.68,2.46-6.68a4.08,4.08,0,0,0-2.58-1.89L218.42,138l-1.61,1.13a4.19,4.19,0,0,1-1.84,1.21c-.79-.43-4.67-4.58-4.68-5.23.11,0,10-1,16.51-1.56ZM197,119.88a16.28,16.28,0,0,1-4.26.59c-6.1,1.14-6,1.11-7.32,3.49a16.15,16.15,0,0,1-1.52,1.77c-.26.07-1.35-1.59-1.53-2.19s.32-2.09,1-3.61l1-3.61,1.76,1.46c1.34.94,1.74.82,2.42.62,1.41-.42,1.68-.5,1.32-1.72s-.3-1.23.4-1.43c1.65-.49,2.42-.06,4.61,1.94A17.43,17.43,0,0,1,197,119.88Zm22.17-6.54c-.13,0-.47.8-1,1-.83.24-.89.25-1.41-.91-1-2.35-.86-2.39.36-2.75l.62-.19.44-.13.51,1.17a5.69,5.69,0,0,1,.48,1.77S219.17,113.33,219.14,113.34Zm8.24,82.5c0-1.67,0-3.66-.07-5.48,0-.24,0-.47,0-.71h0c0-.25,0-.49,0-.72h0c-.06-2-.13-3.64-.19-3.84-.13-.43-1.1-.95-1.86-1.15l-.21,0-.18,0a1,1,0,0,0-.35,0,41.73,41.73,0,0,0-4.36,6.58,21.34,21.34,0,0,0,0,3.32c0,.11,0,.21,0,.31s0,.28,0,.43a16.16,16.16,0,0,0,.37,3.09c.07,0,1.65.84,3.43,1.63l.21.06h0l.18.06.19,0,1.51.43c.78.2,1.12.18,1.16-.23A18.24,18.24,0,0,0,227.38,195.84ZM84.05,181c-.34.11-7.22-.52-7.29.17-.33.1.06,3.29.32,3.22s1.77.14,3.62.25c2.1,0,3.34-.32,3.36-1C84.52,183.47,84.5,181.49,84.05,181Zm66.73-64-.36-1.89-2.53-1.23c-2.33-1.3-2.62-1.22-3.81-2.84-.76-1.11-1.58-2.18-1.75-2.13-.39-.55-.75.22-1.37,1.72l-.88,2.25,1.44.89a30.38,30.38,0,0,1,2.62,1.88c1.18.31,1.36.92,1,3a4.35,4.35,0,0,0,0,2c.29.58.94.39,2.93-.2,1.43-.41,2.73-.8,2.73-1.46C151,118.89,151,118.21,150.78,117ZM116,70.34c-.08-.64.84-1.58,1.72-3.16s1.54-3.1,1.36-3.71-11.62-5.83-12.37-5.61S68.67,74.38,68.44,75.11c-.5.14-5.9,15.63-5.72,16.24S66.6,94.83,67,94.71a6.9,6.9,0,0,0,2.51-1.4,25.66,25.66,0,0,1,2.37-2,38.61,38.61,0,0,1,7,3.24l0,0,0,.06.08.15.2.36.17.31c.11.21.24.47.41.78a2.4,2.4,0,0,0,.11.23l.38.74.28.54L81.25,99c.08.15.15.3.24.46l1,1.9.64,1.31c.09.18.18.35.26.53l.68,1.36.24.49c0,.11.1.19.14.27l.23.47.15.29.27.53c.08.17.17.34.25.49l.22.44.2.38c.2.38.35.65.43.78l.07.1s0,0,0,0h0l.07.06.05,0,.07.07.09.08.08.08c.14.14.35.34.59.6l.31.31.16.17.18.18.18.18.18.19.6.61.21.21c.71.71,1.51,1.51,2.34,2.3,4.34,4,4.85,4.52,5.63,4.29l3-.88,2.15-.64.5-4.11.31-4.72,4.91-3.44a56,56,0,0,1,5.72-4.33c.71-.88,1.1-1,2.69-8.73,1.06-4.28,2-7.87,2-8.52a46.43,46.43,0,0,0-1.11-6.29C116.54,73.49,115.92,70.37,116,70.34Zm11.16,26.47c-.31.09-7.59,4.88-7.93,5a28.68,28.68,0,0,0,3.29,3.66c2.32,2,3.46,3,3.75,2.86.65-.85,5.75-8.31,5.75-8.31C131.86,99.4,128.12,97.19,127.18,96.81Z"/><path class="cls-10" d="M152.17,106.64l1.59-.47,1.24-4.81-.46-2.89,1.08-6.8s-.09-5.59,1-5.91,3.81-4.14,3.81-4.14L167.76,79l5.58-.78,6.29-1,4.5-.46.6-.27c.14-.8.17-1.36,0-1.31a82,82,0,0,1-8.62.56c-4.74.08-9,0-9.31.11a28.11,28.11,0,0,0-5.27,3.53c-3.64,1.74-5,2.79-5.2,3.52s-5.34,16.13-5.49,17.5A26.13,26.13,0,0,0,152.17,106.64Z"/><path class="cls-1" d="M79.28,110.27s-.81,2.23-1.75,5.15l-.43.78c-1.79-.42-3.85-.67-3.85-.67s-9.13-.76-10.43-1.24a1,1,0,0,0-.5-.05l-.06-.32v0c0-.09,0-.18,0-.26v0a.24.24,0,0,1,0-.09,4.9,4.9,0,0,0-.19-.75h0c-.3-.58-.76-.44-2.06-.06-.94.28-1.8.53-1.7,1.17a15.3,15.3,0,0,0-.23,2.71s-9.91-2.81-11.09-2.9-5.32,2.15-6.39,2.46-.05,6.25-1.11,6.56-9.34,1.78-9.34,1.78l-4.9,5.26s-3.78-1-6.52-1.48l-.19,0a1,1,0,0,0-.17,0A7.74,7.74,0,0,0,16,128a21.43,21.43,0,0,0-3.6,2.9h0l-.3.27-.28.27c-.85.79-1.64,1.54-2.16,2,.78-3,1.67-5.9,2.69-8.8h.08l.7-.12,1-.16.22,0,.24,0h0l.82-.14.25,0,.16,0,.25,0,.59-.1.14,0,.13,0,.37-.07.17,0,.29,0,.62-.11s0,0,0,0h0c.54-.15.59-.17.13-.69l-.2,0-.14,0-.08,0-.25-.09h0l-.2-.07-.12,0-.12,0-.55-.21-1.37-.53h0l-.19-.07-.18-.07-.6-.22-.86-.32A113,113,0,0,1,29.24,93.37h0l8.57-7.1h0l8.91-7.39,6.3-1.2c9-2,10.45-2.42,10.55-1.78-.05,0-1.89,5.18-4.36,10.54C57,92.38,55.06,97.57,55,97.61s.16.62.4.55c.4.53,5.79,2.91,12.27,6.3C73.91,107.23,79.28,110.27,79.28,110.27Z"/><path class="cls-10" d="M126.29,108.31c.65-.85,5.75-8.31,5.75-8.31-.18-.61-3.92-2.81-4.86-3.19-.31.09-7.59,4.88-7.93,5a28.68,28.68,0,0,0,3.29,3.66C124.87,107.42,126,108.4,126.29,108.31Z"/><path class="cls-1" d="M113.64,100.14c.72-.88,1.1-1,2.69-8.73,1.06-4.28,2-7.87,2-8.52a46.43,46.43,0,0,0-1.11-6.29c-.66-3.11-1.28-6.23-1.18-6.26-.08-.64.84-1.58,1.72-3.16s1.54-3.1,1.36-3.71-11.62-5.83-12.37-5.61S68.67,74.38,68.44,75.11c-.49.14-5.9,15.63-5.72,16.24S66.6,94.83,67,94.71a6.9,6.9,0,0,0,2.51-1.4,27.51,27.51,0,0,1,2.37-2,38.61,38.61,0,0,1,7,3.24c.08,0,1.8,3.44,3.6,6.87,2,4,3.72,7.51,3.82,7.48s2.49,2.57,5.13,5.11c4.34,4,4.85,4.51,5.64,4.28l3-.88,2.15-.64.5-4.11.31-4.73,4.91-3.43A56,56,0,0,1,113.64,100.14Z"/><path class="cls-9" d="M218.7,111.48l-.51-1.17-.44.13-.62.19c-1.22.36-1.36.4-.36,2.75.52,1.16.58,1.15,1.41.91.49-.15.83-.91,1-1s0,0,0-.09A5.69,5.69,0,0,0,218.7,111.48Z"/><path class="cls-11" d="M219.54,154.9l-3,.88,3-.59A1,1,0,0,0,219.54,154.9Z"/><path class="cls-12" d="M112.6,262.06l-.11-4.29-2.7-6.54-1.63-10.76-4.44-13.05c.17.6,1,7,2.18,15.23l1.83,14,2.15,7.31,2.15,7.29,4.72,3.24c2.63,1.88,5,3.82,5.13,3.78.35-.1,1.52-3.75,1.33-4.36,0,0-1-1-2-2a7,7,0,0,1-1.86-1.44,7.32,7.32,0,0,1,1.19-2.33l1-2.95-.54-1.82a12.37,12.37,0,0,0-1-2.51l-2.24,2.76Z"/><path class="cls-11" d="M150.76,143.43a25.39,25.39,0,0,0,1.77-3.06L150.16,143C150.5,143.41,150.63,143.47,150.76,143.43Z"/><path class="cls-9" d="M183.87,135.65c.31-.09.34-.1-.53-2.49l-1.76,1.57C182.67,135.09,183.69,135.7,183.87,135.65Z"/><path class="cls-12" d="M125,199c-.62.76-1.08,1.63-.57,2.11,1.07,1,2.72,3.95,3.54,5.44s1.65,4.26,3.07,5.14a17.43,17.43,0,0,0,4.44,1c-.32-1.71-.59-3.05-.59-3.05s.43-1.45,1-2.95,1-2.94,1-2.94-3.37-1.66-7.34-3.13Z"/></g></g><g class="cls-13"><path class="cls-14" d="M228.79,133.43A112.24,112.24,0,0,0,217,105.08l.16,1.12c-1.79-3.12-3.73-6.17-5.85-9.16A113.14,113.14,0,0,0,59.23,66.17c-3.5,2.25-7,4.75-11,7.8a112.76,112.76,0,0,0-19,19.39h0a113,113,0,0,0-15.59,27.75c-.45,1.16-.89,2.33-1.3,3.51-1,2.9-1.91,5.84-2.69,8.8a113.3,113.3,0,0,0,17.08,94.24q3.18,4.49,6.69,8.55l-1-.51a113.18,113.18,0,0,0,86,40c1.49,0,3,0,4.46-.07a112.62,112.62,0,0,0,58-18.47c1-.64,2-1.3,2.94-2l.42-.29.18-.13.19-.13.41-.3c1-.7,1.91-1.4,2.84-2.12a112.64,112.64,0,0,0,38.16-52.46c.47-1.32.9-2.65,1.31-4A113.49,113.49,0,0,0,228.79,133.43Z"/></g><g class="cls-15"><path class="cls-16" d="M118.94,274a111.31,111.31,0,0,1-85.17-39.43l-.63-.75,1,.5c-2.1-2.48-4.1-5.05-5.95-7.67a111.51,111.51,0,0,1-3.68-123.32l.34.18A107.67,107.67,0,0,0,37.32,204.91c2,2.79,4.11,5.53,6.37,8.15l.66.76-1-.5a107.83,107.83,0,0,0,140.76,19.74c.93-.61,1.88-1.24,2.8-1.89l.2-.13.2-.14.18-.12.18-.13.19-.14.19-.15c.92-.65,1.83-1.33,2.71-2a108,108,0,0,0,39.38-60.25l.39.06a111.32,111.32,0,0,1-43.72,82.73c-.91.7-1.86,1.41-2.8,2.08l-.19.15-.21.15-.18.13-.18.13-.22.15-.2.13c-1,.67-1.93,1.32-2.9,1.95A110.91,110.91,0,0,1,118.94,274Z"/><path class="cls-16" d="M230.37,168.11l-.39-.06a106.88,106.88,0,0,1-9.85,25.71q-2,3.7-4.29,7.26l-.36.55a106.84,106.84,0,0,1-15.13,18.32,109.54,109.54,0,0,1-9.67,8.3c-.89.68-1.8,1.36-2.71,2l-.19.14-.2.15-.08.05-.09.07-.09.07-.09.05-.2.14-.2.13c-.92.65-1.86,1.28-2.79,1.88a107.15,107.15,0,0,1-58.92,17.62q-1.31,0-2.61,0a107.84,107.84,0,0,1-13-1.09c-.93-.14-1.86-.28-2.79-.45a107.25,107.25,0,0,1-62.53-35l1,.49-1.3-1.51c-2.25-2.62-4.4-5.36-6.36-8.14a107.44,107.44,0,0,1-18.83-76.57A108.58,108.58,0,0,1,25,103.58l-.35-.17-.35-.17a111.55,111.55,0,0,0-9.21,18.42c-.35.89-.68,1.78-1,2.68-.84,2.32-1.59,4.68-2.28,7a112.25,112.25,0,0,0-4.31,33.32A111.13,111.13,0,0,0,28,226.78c1.66,2.35,3.45,4.68,5.33,6.94l-1-.51,1.26,1.49a111.46,111.46,0,0,0,82.64,39.47c.89,0,1.79,0,2.68,0,1.43,0,2.86,0,4.29-.08a111.23,111.23,0,0,0,56.84-18.2c1-.63,1.94-1.29,2.9-1.95l.19-.13.23-.15.09-.07.09-.06.09-.06.09-.07.22-.16.18-.14c.95-.68,1.89-1.38,2.81-2.09a111.34,111.34,0,0,0,37.6-51.65q1.56-4.44,2.75-9a111.64,111.64,0,0,0,3.44-22.19Zm-6.19,31.17c-.12.35-.24.7-.37,1s-.25.7-.38,1-.33.87-.5,1.3c0,.06-.05.13-.07.2q-.53,1.32-1.08,2.64l-.57,1.34-.06.13c-.18.42-.37.84-.56,1.26s-.41.9-.62,1.35l-.64,1.35c-.43.89-.87,1.77-1.33,2.65-.23.45-.47.89-.71,1.34s-.47.87-.71,1.31-.39.69-.59,1c-.07.13-.14.26-.22.39l-.55,1-.18.29-.72,1.21-.79,1.28-.78,1.23-.05.07c-.27.41-.53.82-.8,1.22l-.85,1.26-.86,1.23-.81,1.14c-.08.1-.15.21-.23.32l-.74,1c-.3.4-.6.81-.91,1.21l-.94,1.2c-.94,1.19-1.9,2.36-2.9,3.52l-1,1.16-1,1.14c-.35.38-.69.75-1,1.12s-.57.62-.87.93l-.28.29c-.32.33-.64.67-1,1h0l-1,1c-.28.28-.56.56-.85.83l-.6.57c-.23.23-.47.44-.7.66s-.67.63-1,.94-.7.64-1.07,1l-1,.89q-2.64,2.28-5.44,4.42c-.92.7-1.85,1.4-2.79,2.08l-.41.29a1.18,1.18,0,0,1-.18.13l-.18.13c-.13.1-.27.19-.41.28-1,.67-1.92,1.31-2.89,1.94l-1.76,1.14-1.78,1.1-1.79,1.06a110.92,110.92,0,0,1-21.71,9.63l-1.61.51c-.74.22-1.46.44-2.2.64-.55.16-1.11.31-1.66.45s-1.41.37-2.12.54-1.68.4-2.51.58l-.43.09c-.9.2-1.81.38-2.71.55A111.51,111.51,0,0,1,123,273.74c-1.37.05-2.73.07-4.1.07-1.09,0-2.18,0-3.26,0a111.8,111.8,0,0,1-38.92-8.22c-1.39-.56-2.76-1.15-4.13-1.77l-1.36-.64c-.9-.42-1.8-.86-2.69-1.31q-3.36-1.69-6.6-3.62-2.61-1.54-5.12-3.24c-.43-.27-.84-.56-1.26-.85-.83-.58-1.66-1.16-2.48-1.76q-1.84-1.35-3.64-2.78-1.2-1-2.37-2c-.78-.66-1.56-1.33-2.33-2-1.14-1-2.28-2.09-3.39-3.17q-3.9-3.78-7.47-8l1,.51q-1.29-1.5-2.55-3.06c-.83-1-1.65-2.1-2.45-3.17-.53-.72-1.06-1.45-1.58-2.18a110.79,110.79,0,0,1-20.46-64.2c0-.51,0-1,0-1.53s0-.91,0-1.37c0-.12,0-.23,0-.35,0-.34,0-.68,0-1,0-.18,0-.37,0-.56v0L8,156.22c0-.51.06-1,.1-1.53v-.07c0-.49.07-1,.11-1.46l.09-1c0-.15,0-.3,0-.46s0-.27,0-.41c0-.41.08-.81.13-1.21s.11-1,.18-1.53.11-.85.16-1.28c0-.18,0-.36.08-.54,0-.39.11-.77.17-1.15s.16-1.05.25-1.57.14-.88.22-1.31.21-1.14.32-1.71c.08-.41.16-.82.25-1.23.13-.66.27-1.31.41-2,.11-.44.2-.87.31-1.3s.25-1.05.38-1.57l.36-1.4.36-1.32.12-.42.28-1h0s0,0,0-.06a.14.14,0,0,1,0-.06l0-.13c.15-.48.29-1,.45-1.46l0-.1c.13-.43.27-.87.41-1.3q.48-1.48,1-3l.18-.51h0c.08-.24.17-.48.26-.72s.22-.59.34-.89a.08.08,0,0,1,0,0l.31-.81.39-1,.27-.68c.16-.37.31-.74.46-1.11l.42-1c.1-.25.21-.49.33-.74.29-.68.6-1.36.91-2,.11-.23.22-.45.32-.68l.42-.88.35-.72,1-1.93.34-.65.09-.18.5-.94.75-1.36.63-1.12.21-.35c.23-.41.47-.81.71-1.22l.07-.12c.23-.39.47-.78.71-1.17l.07-.11.24-.39h0A107.89,107.89,0,0,0,37.16,205q3,4.28,6.39,8.16l-1-.5a107.65,107.65,0,0,0,64.18,36.65c.93.16,1.86.31,2.8.44a109.24,109.24,0,0,0,12.78,1.09c.92,0,1.85,0,2.77,0a107.56,107.56,0,0,0,59.13-17.68c.94-.61,1.88-1.24,2.81-1.89l.4-.27.17-.13.18-.12.39-.29c.91-.66,1.82-1.33,2.71-2A108.1,108.1,0,0,0,215,203q2.79-4.16,5.18-8.52a106.73,106.73,0,0,0,5.06-10.58,107.89,107.89,0,0,0,5.13-15.77q-.15,3-.47,5.9c-.11,1-.22,2-.35,2.94l-.21,1.47c-.07.48-.15,1-.22,1.46-.24,1.46-.5,2.92-.8,4.36q-.1.58-.24,1.17c-.24,1.16-.51,2.31-.79,3.46h0c-.09.33-.17.67-.26,1-.25,1-.52,2-.81,3-.13.48-.27,1-.41,1.42s-.29.94-.43,1.41c0,0,0,0,0,0-.15.47-.3.93-.46,1.4s-.31.94-.47,1.41l-.12.36C224.27,199.05,224.22,199.17,224.18,199.28Z"/></g><path class="cls-17" d="M239.91,78.6,252.27,91a1.44,1.44,0,0,1-2,2L237.86,80.64a1.45,1.45,0,1,1,2-2Z"/><path class="cls-17" d="M252.06,66.44,264.42,78.8a1.45,1.45,0,0,1-2,2L250,68.48a1.43,1.43,0,0,1,0-2A1.45,1.45,0,0,1,252.06,66.44Z"/><rect class="cls-18" x="206.02" y="22.95" width="35.97" height="59.27" rx="1.78" ry="1.78" transform="translate(28.43 173.8) rotate(-45)"/><polygon class="cls-19" points="221.97 52.59 210.27 64.28 212.31 66.33 224.01 54.63 243.94 74.56 245.98 72.52 226.05 52.59 237.75 40.89 237.75 40.89 235.71 38.85 235.71 38.85 224.01 50.54 204.07 30.61 202.03 32.65 221.97 52.59"/><path class="cls-17" d="M301.17,119.64l-12.36-12.37a1.43,1.43,0,0,1,0-2,1.45,1.45,0,0,1,2,0l12.36,12.36a1.45,1.45,0,1,1-2,2Z"/><path class="cls-17" d="M289,131.79l-12.37-12.36a1.45,1.45,0,1,1,2.05-2l12.36,12.36a1.44,1.44,0,0,1-2,2Z"/><path class="cls-18" d="M248.34,121.31c-6.24-6.25-9.37-13.25-7-15.63s9.37.75,15.62,7,9.38,13.25,7,15.63S254.59,127.56,248.34,121.31Z"/><path class="cls-18" d="M263.9,128.38l-.15.12,0,0-.17.12,0,0-.15.09h0a1.63,1.63,0,0,1-.19.09l0,0-.15,0-.05,0-.2.06h0l-.19,0h-.06l-.17,0h-.06l-.22,0h-.86l-.21,0h-.08l-.24,0h0l-.28-.06-.08,0-.25-.05-.05,0-.32-.08-.08,0-.3-.09h0l-.37-.13-.07,0-.38-.14-.06,0-.46-.19-.06,0-.47-.22-.08,0-.22-.1-.11-.06-.22-.11-.1,0-.31-.17-.05,0-.27-.15-.08,0-.54-.32-.06,0-.55-.33-.06,0-.56-.37,0,0-.59-.41,0,0-.62-.44h0l-.61-.46,0,0-.59-.46-.06,0-.57-.47-.05,0-.95-.82,0,0c-.25-.22-.49-.44-.73-.68l-.06,0-.62-.6-.12-.12-.53-.54,0,0-.59-.63,0,0-.55-.6,0-.06-.51-.58,0-.07c-.17-.19-.33-.38-.48-.58l-.06-.06-.48-.61,0,0-.5-.66,0,0-.48-.67,0-.06-.49-.72,0-.08-.2-.31-.06-.09-.22-.36,0-.07-.26-.43v0l-.24-.44,0-.07-.3-.57v0l-.29-.59a1.17,1.17,0,0,0-.05-.11l-.07-.15,0-.12-.06-.15-.06-.12-.06-.15s0-.08,0-.12l-.06-.14,0-.12-.06-.13a.65.65,0,0,0,0-.13,1.12,1.12,0,0,0,0-.13.56.56,0,0,0,0-.12.65.65,0,0,0,0-.13.56.56,0,0,0,0-.12l0-.13a.49.49,0,0,1,0-.11l0-.13a.61.61,0,0,1,0-.11.93.93,0,0,1,0-.13.43.43,0,0,1,0-.11l0-.12,0-.12a.5.5,0,0,0,0-.12.36.36,0,0,1,0-.1.5.5,0,0,1,0-.12s0-.07,0-.11,0-.08,0-.11,0-.07,0-.11,0-.07,0-.11a.41.41,0,0,1,0-.11.34.34,0,0,1,0-.1.41.41,0,0,1,0-.11.34.34,0,0,0,0-.1v-.4a.31.31,0,0,1,0-.1v-.1a.28.28,0,0,0,0-.09s0-.06,0-.1,0-.05,0-.08,0-.07,0-.1,0,0,0-.08,0-.06,0-.09,0-.06,0-.09,0-.06,0-.09,0-.05,0-.07l0-.09,0-.08,0-.08,0-.07,0-.08,0-.07.05-.08,0-.07,0-.07,0-.06.06-.08a.1.1,0,0,1,0,0l.06-.08,0,0a1.14,1.14,0,0,1,.11-.11l-16,15.94-.11.12,0,0a.27.27,0,0,0-.07.08l0,0,0,.08a.21.21,0,0,0,0,.06l-.05.08,0,.06a.3.3,0,0,0,0,.08l0,.07a.3.3,0,0,0,0,.08l0,.07,0,.09,0,.07a.29.29,0,0,0,0,.09l0,.08a.29.29,0,0,1,0,.09s0,0,0,.08a.29.29,0,0,1,0,.09s0,.06,0,.08,0,.07,0,.1a3225414726931.38,3225414726931.38,0,0,0,0,.18v.09a.38.38,0,0,0,0,.1v.1a.31.31,0,0,0,0,.1v.2a.34.34,0,0,1,0,.1v.11a.31.31,0,0,1,0,.1s0,.07,0,.11,0,.07,0,.1,0,.07,0,.11,0,.07,0,.11,0,.07,0,.11,0,.07,0,.11,0,.08,0,.12,0,.07,0,.11l0,.12a.52.52,0,0,0,0,.11l0,.12,0,.11,0,.13,0,.11,0,.13a.56.56,0,0,1,0,.12.56.56,0,0,0,0,.12l0,.12s0,.09.05.13a.56.56,0,0,0,0,.12s0,.09,0,.14l.05.12a.69.69,0,0,0,.05.13s0,.08,0,.13l.06.13s0,.09,0,.13l.06.14a.61.61,0,0,0,.05.12l.06.15a.61.61,0,0,1,0,.12,1,1,0,0,1,.07.15l0,.1h0c.08.2.18.39.28.59v0l.3.57,0,0,0,.05.24.43,0,0c.08.14.16.28.25.42l0,0,0,0,.23.37,0,.08a3.28,3.28,0,0,0,.2.31l0,.06,0,0,.49.73v0l0,0c.15.22.31.45.48.67v0h0l.5.66v0l0,0,.47.6,0,0,0,0,.48.59,0,0,0,0c.16.2.33.39.5.58l0,0,0,0c.17.2.36.4.54.6l0,0h0l.6.62h0l0,0,.54.54.08.09,0,0,.62.6,0,0,0,0,.73.68h0l0,0c.31.28.63.56.94.82l0,0,0,0,.56.47.07,0,.58.46,0,0,.61.46h0l.62.45,0,0,.59.4.05,0,.56.37.07,0,.54.34.07,0,.54.32,0,0,0,0,.27.15.05,0,.32.17.09.05.22.11.11.06.22.1.07,0h0l.47.22.06,0,.45.19,0,0h0l.37.14.07,0,.38.12h0l.3.1.08,0,.32.08H244l.24.06h.08l.29.06h0l.24,0H245l.22,0h.05l.25,0H246l.23,0h.06l.16,0h.06l.2,0h0l.2-.06.06,0,.14-.05h.05l.19-.08,0,0,.15-.08,0,0h0l.18-.12v0a1.58,1.58,0,0,0,.15-.12l0,0,0-.05L264,128.31Z"/><path class="cls-19" d="M264.46,105.2c-7.86-7.87-12-16.46-9.28-19.19s11.31,1.42,19.17,9.29,12,16.45,9.29,19.19S272.32,113.06,264.46,105.2Z"/><path class="cls-17" d="M283.56,114.56l-.17.14,0,0-.2.13-.05,0-.18.1,0,0-.22.09-.06,0-.18,0-.06,0-.24.06h0l-.24,0h-.07l-.2,0h-.34s0,0,0,0h-.32l-.23,0h-.07l-.31,0h-.06l-.26,0-.09,0-.29,0h-.05l-.34-.08-.1,0-.3-.08-.07,0-.39-.12-.09,0-.36-.13-.05,0-.46-.17-.08,0-.46-.2-.08,0-.56-.25-.07,0-.58-.28-.11-.06-.26-.13-.14-.07-.27-.15-.12-.07-.39-.21-.06,0-.33-.2-.09,0-.67-.41-.08,0-.67-.43-.08,0-.7-.47-.06,0-.73-.51,0,0-.76-.57h0l-.76-.59-.05,0c-.25-.19-.49-.39-.73-.59l-.08-.06-.71-.6-.07-.06-1.18-1,0,0-.92-.86-.07-.07-.78-.76-.15-.14-.67-.69,0,0c-.26-.26-.5-.53-.75-.79l0,0-.69-.76-.06-.06-.63-.73-.08-.08c-.2-.25-.41-.49-.61-.73l-.06-.08-.61-.75,0-.06-.65-.82,0,0-.61-.83-.05-.07q-.33-.45-.63-.9l-.07-.1-.25-.38-.07-.11-.3-.45-.05-.08-.32-.53,0,0c-.11-.17-.22-.35-.32-.53l-.05-.08-.39-.71,0,0c-.13-.24-.25-.48-.37-.72a.91.91,0,0,1-.07-.14l-.09-.19-.07-.14-.09-.18a1,1,0,0,0-.07-.15l-.07-.18a1,1,0,0,1-.07-.15s-.05-.11-.07-.17l-.07-.15-.06-.16-.06-.15c0-.06-.05-.11-.07-.16s0-.1,0-.15l-.06-.16a1.21,1.21,0,0,1-.05-.14l-.06-.16s0-.1,0-.14a1,1,0,0,1,0-.16s0-.09-.05-.14,0-.1,0-.15a.74.74,0,0,1,0-.14,1,1,0,0,1,0-.14s0-.1,0-.14l0-.15,0-.13a.74.74,0,0,1,0-.14s0-.09,0-.13l0-.14s0-.08,0-.13a526368323137.23,526368323137.23,0,0,0,0-.26s0-.09,0-.13,0-.08,0-.12,0-.09,0-.13a.49.49,0,0,0,0-.12v-.13s0-.07,0-.11v-.46a.49.49,0,0,0,0-.12s0-.07,0-.1,0-.08,0-.12a.34.34,0,0,0,0-.1.43.43,0,0,0,0-.11s0-.06,0-.1,0-.07,0-.1a.29.29,0,0,0,0-.09l0-.11,0-.09,0-.1,0-.08a1,1,0,0,0,0-.1.59.59,0,0,1,0-.08l0-.09,0-.07a.36.36,0,0,1,0-.09l0-.07a.7.7,0,0,1,.06-.09l.05-.07.07-.09,0,0a.8.8,0,0,1,.13-.13l-25,25a1.49,1.49,0,0,0-.12.14.1.1,0,0,0,0,.05l-.08.09,0,.06-.06.09,0,.07-.06.09a.3.3,0,0,1,0,.08l0,.09,0,.08a.3.3,0,0,0,0,.1s0,0,0,.08a.42.42,0,0,0,0,.1.29.29,0,0,0,0,.09l0,.1a.3.3,0,0,0,0,.1l0,.1s0,.07,0,.1a.43.43,0,0,0,0,.11.34.34,0,0,0,0,.1s0,.07,0,.11V113a.41.41,0,0,0,0,.11.37.37,0,0,1,0,.11v.23a.62.62,0,0,0,0,.13v.11s0,.09,0,.13a.49.49,0,0,0,0,.12s0,.08,0,.13,0,.08,0,.12a.59.59,0,0,1,0,.13s0,.08,0,.12,0,.09,0,.14a.51.51,0,0,1,0,.13l0,.14,0,.13,0,.14,0,.13a.83.83,0,0,0,0,.15l0,.13s0,.1,0,.15,0,.09,0,.14,0,.1.05.15a.74.74,0,0,0,0,.14s0,.1.05.15l0,.15a.88.88,0,0,0,.05.15.88.88,0,0,1,.05.15l.06.16.06.14.06.17.06.14a.87.87,0,0,0,.07.17l.06.15c0,.06.05.11.07.17a1,1,0,0,1,.07.15.89.89,0,0,0,.08.17,1,1,0,0,0,.07.15,1.42,1.42,0,0,0,.08.18l.07.15.09.19.07.13h0l.37.71,0,0c.13.23.26.47.4.7v0l0,.06.31.53,0,0,.33.53,0,0,0,0,.29.46.07.1c.08.13.17.26.26.39l0,.07,0,0c.2.3.41.6.63.91l0,0,0,0,.61.84,0,0h0l.64.83v0l0,0,.61.76,0,0,0,.05.61.72,0,0,0,0,.64.72,0,0,0,0,.68.75,0,0h0l.74.78h0l0,0c.22.23.44.46.67.68l.1.11,0,0,.78.75,0,0,0,0c.31.3.62.58.92.86l0,0,0,0c.39.36.78.71,1.18,1l0,0,0,0,.71.6.07.06.73.59,0,0,.76.59h0c.26.2.51.39.77.57l0,0,.72.52.07,0c.23.17.46.32.69.47l.08.06.67.43.08.05.67.41,0,0,0,0,.34.2.06,0,.39.22.11.06.28.15.13.07.27.14.08,0,0,0,.57.28.07,0,.57.26,0,0h0l.46.19.09,0,.45.17h0l.37.13.09,0,.39.12h0l.05,0,.3.08.09,0,.35.09h0l.29.06.09,0,.27,0h.06l.3,0h1l.19,0h.08l.23,0h0l.23-.06.07,0a.85.85,0,0,0,.17-.06h.06a.85.85,0,0,0,.22-.09l0,0,.17-.09,0,0h0l.2-.14h0l.17-.14,0,0,.06-.06,25-25Z"/><path class="cls-20" d="M257.86,90.11a1.59,1.59,0,0,1,0-2.26l9-9a1.6,1.6,0,0,1,2.26,2.27l-9,9A1.59,1.59,0,0,1,257.86,90.11Z"/><path class="cls-20" d="M279.51,111.77a1.61,1.61,0,0,1,0-2.26l9.05-9.05a1.6,1.6,0,0,1,2.26,2.27l-9,9A1.6,1.6,0,0,1,279.51,111.77Z"/><path class="cls-20" d="M266.54,102.75a1.61,1.61,0,0,1,0-2.26l9-9a1.6,1.6,0,1,1,2.26,2.27l-9.05,9A1.59,1.59,0,0,1,266.54,102.75Z"/><path class="cls-19" d="M288.09,81.57c-7.86-7.86-12-16.45-9.29-19.19s11.31,1.43,19.17,9.3,12,16.45,9.29,19.18S296,89.44,288.09,81.57Z"/><path class="cls-17" d="M307.18,90.94l-.17.14h0l-.2.14-.05,0-.17.09,0,0a1.45,1.45,0,0,1-.22.09l-.06,0-.17.06-.07,0-.23.06h0l-.23,0h-.08l-.19,0h-1l-.3,0h-.06l-.27,0-.09,0-.29-.06h0l-.35-.08-.09,0-.3-.08-.07,0-.39-.13-.09,0-.37-.12-.05,0-.45-.17-.09,0-.46-.19-.07,0-.57-.26-.07,0-.57-.28-.11-.06-.27-.14-.13-.07-.28-.15-.11-.06-.39-.22-.07,0-.33-.2-.09,0-.67-.41-.08,0-.67-.43-.08-.06-.69-.47-.07,0-.72-.52,0,0c-.26-.18-.51-.37-.77-.57h0l-.76-.59-.05,0-.73-.59-.07-.06-.71-.6-.07-.06c-.4-.34-.79-.69-1.18-1l-.05,0c-.3-.28-.61-.56-.92-.86l-.07-.07c-.26-.24-.52-.5-.78-.75l-.14-.15-.67-.68,0,0-.74-.78,0,0-.68-.75-.06-.07-.64-.72-.07-.09-.61-.72-.07-.09-.61-.75,0,0-.64-.83,0,0c-.22-.28-.42-.56-.62-.84l0-.06c-.22-.31-.43-.61-.63-.91l-.06-.09-.26-.39-.07-.1-.29-.46-.05-.08-.33-.53,0,0-.31-.53,0-.09-.4-.7,0,0-.37-.71a1,1,0,0,0-.07-.15l-.09-.18-.07-.15a1.42,1.42,0,0,1-.08-.18,1,1,0,0,1-.07-.15,1.3,1.3,0,0,1-.08-.17,1,1,0,0,0-.07-.15c0-.06,0-.11-.07-.17l-.06-.15a1.22,1.22,0,0,1-.07-.17l-.06-.15-.06-.16-.06-.14-.06-.16a.88.88,0,0,0,0-.15.88.88,0,0,1-.05-.15s0-.1-.05-.15,0-.1-.05-.15,0-.09,0-.14,0-.1-.05-.15,0-.09,0-.14,0-.1,0-.15l0-.13a.83.83,0,0,1,0-.15l0-.13,0-.14,0-.13,0-.14a.51.51,0,0,0,0-.13s0-.09,0-.14,0-.08,0-.12a.51.51,0,0,0,0-.13s0-.09,0-.13,0-.08,0-.12a.49.49,0,0,1,0-.12s0-.09,0-.13V65a.62.62,0,0,1,0-.13v-.23a.41.41,0,0,0,0-.11.41.41,0,0,1,0-.11v-.11s0-.07,0-.11a.34.34,0,0,1,0-.1.36.36,0,0,1,0-.11s0-.07,0-.1l0-.1a.3.3,0,0,1,0-.1l0-.1a.29.29,0,0,1,0-.09.42.42,0,0,1,0-.1s0-.06,0-.08a.3.3,0,0,1,0-.1l0-.08a.41.41,0,0,1,.05-.09l0-.08.06-.09a.25.25,0,0,1,0-.07l.06-.09,0-.06.08-.09a.1.1,0,0,1,0,0l.12-.14L260.51,80.65l-.13.14,0,0-.08.09,0,.06-.06.09-.05.07a.41.41,0,0,1-.05.09.3.3,0,0,1,0,.08l0,.09a.3.3,0,0,1,0,.08.69.69,0,0,1,0,.1l0,.08,0,.1,0,.09a.36.36,0,0,1,0,.1.36.36,0,0,0,0,.1l0,.1s0,.07,0,.1a.43.43,0,0,0,0,.11.34.34,0,0,0,0,.1s0,.08,0,.11a.41.41,0,0,1,0,.11v.11s0,.08,0,.11v.36a.37.37,0,0,1,0,.11.57.57,0,0,0,0,.13.49.49,0,0,0,0,.12.62.62,0,0,0,0,.13s0,.08,0,.12,0,.09,0,.13,0,.08,0,.13,0,.09,0,.13a.59.59,0,0,1,0,.13l0,.14,0,.13,0,.14,0,.13a.83.83,0,0,0,0,.15l0,.13s0,.1,0,.15,0,.09,0,.14l.05.15a.74.74,0,0,0,0,.14s0,.1,0,.15a6181264102389.77,6181264102389.77,0,0,1,.1.3s0,.1.05.15l.06.16.06.14.06.17.06.15a1.11,1.11,0,0,0,.07.16l.06.15c0,.06,0,.11.07.17l.07.15a.89.89,0,0,0,.08.17A1,1,0,0,0,261,88a1.42,1.42,0,0,0,.08.18l.07.15.09.19.06.13h0l.37.71,0,0,.39.7,0,0,0,.06.32.53,0,0,.33.53,0,0,0,0,.29.46.07.11.26.38,0,.07,0,0c.2.3.41.6.63.91l0,0,0,0,.61.83,0,0h0l.64.83v0l0,0,.61.76,0,0,0,0,.61.72,0,0,0,0,.64.72,0,0,0,0,.68.75,0,0h0l.75.78h0l0,0c.22.23.44.46.67.68l.1.11,0,0,.78.76,0,0,0,0c.31.3.61.58.92.86l0,0,0,0,1.17,1,0,0,.05,0,.7.6.08.06.73.59.05,0,.76.59h0c.25.2.51.39.77.58l0,0,.72.52.07,0,.69.46.08.06.67.43.08,0,.67.41,0,0,.05,0,.34.2.05,0,.4.22.11.06.28.15.13.07.27.14a.2.2,0,0,0,.08,0l0,0,.58.28.07,0,.57.26,0,0h0l.46.19.09,0,.45.17h.05l.37.13.09,0,.39.12h0l.05,0,.3.08.09,0,.35.09h0l.29,0,.09,0,.27,0h.06l.3,0h1l.19,0h.08l.23,0h0l.24-.06.07,0,.17,0,0,0h0a1,1,0,0,0,.22-.09l0,0,.18-.09h0l0,0,.2-.13,0,0,.17-.14,0,0,.06-.06,18.29-18.27Z"/><path class="cls-19" d="M297.21,72.45c-6.1-6.1-9.32-12.76-7.2-14.88s8.77,1.11,14.86,7.21,9.32,12.75,7.2,14.87S303.3,78.54,297.21,72.45Z"/><path class="cls-17" d="M312,79.71l-.13.11h0l-.15.11,0,0-.14.07,0,0-.17.07h0l-.13.05h-.05l-.19,0h0l-.18,0h-.06l-.15,0H310l-.18,0h-.05l-.24,0h0l-.21,0h-.07l-.22,0h0l-.27-.07h-.07l-.23-.07h-.06l-.3-.1-.07,0-.28-.1h0l-.35-.14-.07,0-.36-.15-.05,0-.44-.19-.06,0-.44-.22-.09,0-.2-.11-.11-.06-.21-.11-.09,0-.3-.17-.05,0-.26-.15-.07,0-.52-.31-.06,0-.52-.34-.06,0-.54-.37-.05,0-.56-.4,0,0c-.2-.15-.4-.29-.6-.45h0l-.59-.46,0,0c-.19-.14-.38-.3-.56-.45l-.06,0-.56-.46-.05-.05c-.3-.26-.61-.53-.91-.81l0,0L298,73.2l-.06,0-.6-.59-.11-.11-.52-.53,0,0c-.2-.2-.39-.41-.58-.61l0,0-.54-.58,0,0c-.17-.19-.33-.38-.5-.56l-.05-.07-.48-.56-.05-.07c-.16-.19-.32-.38-.47-.58l0,0-.5-.64,0,0c-.17-.21-.33-.43-.48-.64l0,0-.49-.7-.05-.08c-.06-.1-.13-.2-.2-.3l-.05-.08-.23-.35,0-.06-.25-.41,0,0-.24-.41,0-.07-.3-.54,0,0-.29-.56-.05-.11-.07-.14a.61.61,0,0,1,0-.12.83.83,0,0,1-.07-.13.61.61,0,0,1,0-.12l-.06-.13-.06-.12a.5.5,0,0,0-.05-.13l-.05-.12a.5.5,0,0,1-.05-.13l-.05-.11s0-.09,0-.13,0-.07,0-.11,0-.08-.05-.13a.76.76,0,0,0,0-.11s0-.08,0-.12a.49.49,0,0,0,0-.11l0-.12a.49.49,0,0,1,0-.11l0-.12,0-.1,0-.12a.36.36,0,0,0,0-.1l0-.11a.43.43,0,0,1,0-.11l0-.11s0-.06,0-.1,0-.07,0-.11,0-.06,0-.09,0-.08,0-.11,0-.06,0-.1,0-.07,0-.1a.28.28,0,0,1,0-.09.38.38,0,0,1,0-.1.34.34,0,0,1,0-.1.28.28,0,0,0,0-.09v-.45s0-.06,0-.09v-.08a.28.28,0,0,0,0-.09.22.22,0,0,0,0-.08s0-.06,0-.08,0,0,0-.08,0-.05,0-.08,0,0,0-.07l0-.08a.14.14,0,0,1,0-.07.24.24,0,0,1,0-.08l0-.07,0-.07s0,0,0-.06a.43.43,0,0,1,0-.07l0-.06a.43.43,0,0,1,0-.07l0-.06.05-.07,0,0,.06-.08,0,0a.52.52,0,0,1,.1-.11L282.61,65l-.1.11,0,0-.06.08,0,0-.05.07,0,0,0,.07,0,.06,0,.07,0,.06,0,.08a.14.14,0,0,0,0,.06l0,.08s0,.05,0,.07a.19.19,0,0,0,0,.08s0,0,0,.07,0,0,0,.08,0,0,0,.08,0,0,0,.08a.22.22,0,0,0,0,.08.28.28,0,0,0,0,.09.22.22,0,0,0,0,.08v.09a.25.25,0,0,0,0,.08V67s0,.06,0,.09v.1a.28.28,0,0,1,0,.09s0,.06,0,.1,0,.06,0,.09,0,.07,0,.11,0,.06,0,.09a.43.43,0,0,0,0,.11s0,.06,0,.1a.36.36,0,0,1,0,.1.44.44,0,0,1,0,.1l0,.11s0,.07,0,.11l0,.11,0,.1,0,.12,0,.11a.49.49,0,0,0,0,.11l0,.11a.56.56,0,0,0,0,.12l0,.11,0,.12a.56.56,0,0,0,0,.12s0,.08,0,.12a.76.76,0,0,1,0,.11,1.12,1.12,0,0,1,.05.13,1.17,1.17,0,0,0,.05.11c0,.05,0,.09.05.13l0,.12.06.13a.61.61,0,0,0,.05.12l.06.13.05.12s.05.09.07.14l.05.11.07.14a.54.54,0,0,1,.05.11h0c.09.19.18.37.29.56v0l.3.54,0,0,0,0,.25.41v0l.26.41,0,0,0,0,.22.35.06.09c.06.1.13.19.2.29l0,.06v0c.16.23.33.46.49.7l0,0,0,0c.16.21.31.43.48.65v0h0l.5.64v0l0,0,.48.59,0,0,0,0c.15.19.31.37.47.56l0,0,0,0,.49.56,0,0,0,0c.17.2.35.39.53.59h0c.19.21.39.41.58.61h0l0,0,.52.53.08.08,0,0c.2.2.4.4.61.59l0,0,0,0,.72.67v0h0c.3.28.61.55.91.81l0,0,0,0,.55.46.06.05.56.46,0,0,.59.46h0l.6.44,0,0,.56.4.05,0,.54.36.06,0,.53.34.06,0,.52.31,0,0,0,0,.27.16,0,0,.3.17.09.05.22.12.1,0,.21.11.06,0h0l.45.22.05,0,.44.19,0,0h0l.35.15.07,0,.35.14h0l.28.1.08,0,.3.09H301l.23.07.08,0,.27.06h0l.22,0,.08,0,.2,0h.05l.23,0h1l.18,0h0l.19-.05h.05l.13,0h.05l.17-.07,0,0,.13-.07h0l.16-.11h0a.69.69,0,0,0,.13-.11l0,0,0,0,7.4-7.38Z"/><path class="cls-19" d="M300.75,68.9c-6.09-6.1-9.31-12.76-7.2-14.87s8.77,1.1,14.87,7.2,9.31,12.76,7.2,14.88S306.84,75,300.75,68.9Z"/><path class="cls-18" d="M315.55,76.16a.69.69,0,0,1-.13.11v0l-.16.1,0,0-.13.08h0l-.17.07,0,0-.14,0-.05,0-.18,0h0l-.18,0h-1l-.23,0H313l-.2,0h-.08l-.22,0h0l-.27-.06-.07,0-.24-.06-.05,0-.3-.09-.07,0-.29-.09,0,0-.36-.13-.07,0-.35-.15-.06,0-.43-.2-.06,0-.45-.22-.08,0-.21-.11-.1,0-.22-.12-.09,0-.3-.17-.05,0-.25-.15-.07,0-.52-.32-.06,0-.53-.34-.06,0c-.18-.11-.35-.24-.53-.36l-.06,0-.56-.4,0,0-.59-.44h0c-.2-.15-.4-.3-.59-.46l0,0-.56-.46-.06,0-.55-.46-.05,0c-.31-.26-.61-.53-.92-.81l0,0c-.24-.21-.48-.44-.72-.66l0-.06-.61-.59-.11-.11-.52-.53,0,0-.58-.61,0,0-.53-.58-.05-.06-.49-.56-.06-.06-.47-.57-.05-.06-.47-.58,0,0-.49-.65,0,0-.48-.65,0,0c-.17-.23-.34-.47-.49-.7l-.05-.07-.2-.3-.05-.08c-.08-.12-.16-.24-.23-.36l0-.06-.25-.41,0,0c-.08-.14-.17-.28-.24-.42l0-.06-.31-.55v0l-.29-.55-.06-.11a1,1,0,0,0-.07-.15l-.05-.11a.91.91,0,0,0-.07-.14.61.61,0,0,0-.05-.12l-.06-.13-.05-.12-.06-.13a.37.37,0,0,0-.05-.11.5.5,0,0,0-.05-.13s0-.08,0-.12a.61.61,0,0,1-.05-.12l0-.12s0-.08,0-.12a.76.76,0,0,1,0-.11.56.56,0,0,1,0-.12.76.76,0,0,1,0-.11s0-.08,0-.12l0-.11s0-.08,0-.12l0-.11,0-.11,0-.11,0-.11a.36.36,0,0,0,0-.1.52.52,0,0,1,0-.11.44.44,0,0,1,0-.1l0-.11s0-.07,0-.1,0-.07,0-.11,0-.06,0-.09,0-.07,0-.1a.31.31,0,0,0,0-.1.34.34,0,0,0,0-.1.28.28,0,0,0,0-.09v-.1a.28.28,0,0,0,0-.09v-.27s0-.06,0-.09V55.6s0-.05,0-.08,0-.06,0-.09a.17.17,0,0,1,0-.07s0-.06,0-.09,0-.05,0-.07,0-.06,0-.09,0,0,0-.07l0-.08a.64.64,0,0,0,0-.07l0-.07a.64.64,0,0,1,0-.07l0-.08,0-.06,0-.07,0-.06a.16.16,0,0,0,0-.07l0,0a.43.43,0,0,1,0-.07l0,0,.06-.07s0,0,0,0l.09-.1L290,57.56l-.1.11,0,0-.06.07,0,0,0,.07,0,.05,0,.07,0,.06,0,.07,0,.06,0,.08a.14.14,0,0,0,0,.06l0,.08s0,0,0,.07a.24.24,0,0,0,0,.08s0,.05,0,.07,0,.06,0,.08,0,.05,0,.08a.22.22,0,0,0,0,.08.25.25,0,0,0,0,.08.28.28,0,0,0,0,.09.22.22,0,0,0,0,.08.28.28,0,0,1,0,.09v.36a.28.28,0,0,0,0,.09v.1s0,.06,0,.09,0,.06,0,.1,0,.06,0,.09,0,.07,0,.11,0,.06,0,.09,0,.07,0,.11a.3.3,0,0,1,0,.1.36.36,0,0,1,0,.1.43.43,0,0,1,0,.11l0,.11s0,.06,0,.1l0,.11,0,.11,0,.11,0,.11,0,.11a.76.76,0,0,1,0,.11.56.56,0,0,0,0,.12l0,.11.05.12a.56.56,0,0,0,0,.12s0,.08,0,.12,0,.08,0,.11a1.12,1.12,0,0,1,0,.13l.05.12.05.12.05.12.06.13a.61.61,0,0,0,0,.12l.06.13.05.12s.05.09.07.14l.05.11.07.15a.93.93,0,0,1,.05.1h0c.09.19.18.37.29.56v0l.3.54,0,0,0,0,.25.41v0l.26.41,0,0v0c.08.12.16.24.23.36l.06.08.2.3,0,0v0l.49.7,0,0,0,0c.16.21.31.43.48.65v0h0l.5.64v0l0,0,.47.59,0,0,0,0c.15.19.31.38.47.56l0,0,0,0,.49.56,0,0,0,0c.17.2.35.39.53.59l0,0h0c.19.21.39.41.58.61h0l0,0,.52.53.08.08,0,0,.6.59,0,0,0,0,.71.67,0,0h0c.3.28.61.55.91.81l0,0,0,0,.55.46.06.05.56.46,0,0,.59.46h0l.6.44,0,0,.56.4.05,0,.54.36.06,0,.52.34.07,0,.51.31,0,0,0,0,.27.16,0,0,.3.17.09.05.22.12.1,0,.21.11.06,0h0l.45.22.05,0,.44.2h.06l.35.15.07,0,.35.13h0l.28.1.07,0,.31.09h0l.23.07.07,0,.28.06h0l.22,0,.07,0,.21,0h.05l.23,0h1l.18,0h0l.19,0h0l.13,0h.05l.17-.07,0,0,.13-.07h0l.16-.11h0a.69.69,0,0,0,.13-.11h0l0,0,3.56-3.53Z"/><rect class="cls-18" x="299.08" y="116.01" width="35.97" height="59.27" rx="1.78" ry="1.78" transform="translate(-10.12 266.86) rotate(-45)"/><ellipse class="cls-17" cx="223.35" cy="145.94" rx="10.78" ry="44.29" transform="translate(-37.78 200.68) rotate(-45)"/><path class="cls-18" d="M203,166.66a1.44,1.44,0,0,1,.94-2.46l47-2.74a1.44,1.44,0,1,1,.17,2.88l-47,2.74A1.43,1.43,0,0,1,203,166.66Z"/><path class="cls-18" d="M203,166.66a1.46,1.46,0,0,1-.42-1.1l2.76-47.13a1.44,1.44,0,1,1,2.88.17l-2.76,47.12a1.44,1.44,0,0,1-2.46.94Z"/><path class="cls-18" d="M203,166.66a1.45,1.45,0,0,1,0-2l27.14-27.14a1.45,1.45,0,0,1,2.05,2L205,166.66A1.45,1.45,0,0,1,203,166.66Z"/><ellipse class="cls-17" cx="204.01" cy="165.63" rx="2.19" ry="5.18" transform="translate(-57.37 192.77) rotate(-45)"/><path class="cls-18" d="M200.64,169c1.16,1.16,1.77,2.42,1.37,2.82s-1.66-.21-2.82-1.36-1.77-2.42-1.36-2.82S199.49,167.85,200.64,169Z"/><path class="cls-19" d="M197.84,167.63l0,0h0l0,0h.53l.05,0h.07l.06,0h.07l.07,0h0l.07,0h0l.08,0h0a.2.2,0,0,0,.08,0h0l0,0h0l0,0h0l.06,0h0l0,0h0l.1.06h0l.1.06h0l.1.07h0l.11.08h0l.11.09h0l.11.09h0l.11.09h0l.1.09h0l.18.16h0l.14.13h0l.11.11,0,0,.1.1h0a1.14,1.14,0,0,0,.11.11h0l.1.11h0l.1.11h0l.09.11h0l.09.11h0l.1.12h0l.09.13h0l.09.13h0l0,.06v0l0,.06h0a.56.56,0,0,0,.05.08h0a.56.56,0,0,1,.05.08h0l.06.1h0l.06.1v.07l0,0v.66h0v.06h0v0h0v0h0v0h0v0h0v0h0v0h0v0h0v0h0l0,0h0l3.37-3.36,0,0h0v0h0v0h0v0h0v0h0v0h0v0h0v0h0v0h0V168h0v-.51l0,0v-.16h0l-.06-.11h0l-.06-.11h0a.59.59,0,0,1,0-.08h0l0-.08h0l0-.07h0l0-.06h0l-.09-.14h0l-.09-.12h0l-.09-.12h0l-.1-.12h0l-.09-.11h0l-.09-.1h0l-.1-.11h0l-.11-.12h0a.94.94,0,0,0-.1-.1v0h0l-.11-.11h0l-.14-.13h0l-.18-.15h0l-.1-.09h0l-.1-.08h0l-.11-.09h0l-.12-.08h0l-.11-.08h0l-.1-.07h0l-.1-.07h0l-.1-.06h0l0,0h0l-.06,0h0l0,0h0l0,0h0l-.09,0h0l-.08,0h0l-.07,0h0l-.07,0h0l-.05,0h0l-.06,0h0l0,0h-.53l0,0h0l0,0h0l0,0h0l-3.36,3.37Z"/><path class="cls-19" d="M231,138.32c17.3,17.3,27.91,34.73,23.7,38.94,7.08-7.08.13-28.18-17.16-45.48s-38.4-24.24-45.48-17.16C196.24,110.41,213.68,121,231,138.32Z"/><polygon class="cls-19" points="319.11 145.65 330.81 133.95 328.76 131.91 317.07 143.6 297.13 123.67 295.09 125.71 315.02 145.65 303.33 157.34 303.33 157.34 305.37 159.38 305.37 159.38 317.07 147.69 337 167.62 339.04 165.58 319.11 145.65"/><path class="cls-17" d="M305.64,65.45a1.44,1.44,0,0,1-1-.42,1.46,1.46,0,0,1,0-2.05l5.27-5.26a1.44,1.44,0,0,1,2,2L306.66,65A1.44,1.44,0,0,1,305.64,65.45Z"/><path class="cls-1" d="M98.26,185.67l.4,0,.27,0a3.72,3.72,0,0,1,1.11.43,3.57,3.57,0,0,1,.81.68,3.41,3.41,0,0,1,.83,2.67,3.06,3.06,0,0,1-.34,1.17,7,7,0,0,1-.62.87c-.55.66-1.4,1.58-2.75,3.12a.42.42,0,0,1-.32.15.43.43,0,0,1-.38-.23c-.88-1.65-1.47-2.7-1.85-3.46a6.64,6.64,0,0,1-.43-1,2.69,2.69,0,0,1-.17-1.17c0-.09,0-.18,0-.28a3.45,3.45,0,0,1,3.42-3m0,4.88a1.45,1.45,0,0,0,1.18-.61,1.56,1.56,0,0,0,.25-.66,1.4,1.4,0,0,0-.31-1.07l-.1-.13h0a1.39,1.39,0,0,0-.53-.33,1.57,1.57,0,0,0-.31-.08h-.31a1.42,1.42,0,0,0-1.21.95,1.08,1.08,0,0,0-.07.31,1.34,1.34,0,0,0,.2.9,1.41,1.41,0,0,0,1.06.69h.16m0-5.38a3.94,3.94,0,0,0-3.91,3.48,1.91,1.91,0,0,0,0,.32,3.24,3.24,0,0,0,.2,1.36,8.77,8.77,0,0,0,.45,1c.22.42.49.93.85,1.58l1,1.88a1,1,0,0,0,.83.5.94.94,0,0,0,.7-.32l1.25-1.41c.66-.75,1.15-1.29,1.5-1.73a7.27,7.27,0,0,0,.67-.93,3.56,3.56,0,0,0,.41-1.36,4,4,0,0,0-1.88-3.84,4.24,4.24,0,0,0-1.26-.49l-.32,0-.46,0Zm0,4.88h-.11a.89.89,0,0,1-.68-.44.9.9,0,0,1-.13-.6.78.78,0,0,1,0-.19.94.94,0,0,1,.78-.63h.21l.21,0a1,1,0,0,1,.34.22l0,0,0,0a.94.94,0,0,1,.21.71,1,1,0,0,1-.16.44,1,1,0,0,1-.77.39Z"/><path class="cls-1" d="M99.28,188.08l.1.13-.11-.12h0m0-.88-.39.6v0l-.24.37.34.28a.1.1,0,0,0,0,.05l.79-.6-.1-.14-.43-.58Z"/><path class="cls-21" d="M98.43,187.69h-.31a1.43,1.43,0,0,0-1.21.95,1.08,1.08,0,0,0-.07.31,1.44,1.44,0,0,0,2.6,1,1.51,1.51,0,0,0,.25-.66,1.46,1.46,0,0,0-.42-1.19,1.39,1.39,0,0,0-.53-.33A1.55,1.55,0,0,0,98.43,187.69Z"/><path class="cls-22" d="M98.1,190.54a1.45,1.45,0,0,1-1.07-.69l-1.61,1.28c.38.76,1,1.81,1.85,3.46a.42.42,0,0,0,.7.08c1.35-1.54,2.2-2.45,2.75-3.12l-1.28-1.61A1.45,1.45,0,0,1,98.1,190.54Z"/><path class="cls-23" d="M100.85,186.84l-1.57,1.24,2.06,2.59a3,3,0,0,0,.34-1.16A3.42,3.42,0,0,0,100.85,186.84Z"/><path class="cls-24" d="M100,186.16l-1.92,1.53a1.43,1.43,0,0,0-1.21.95L95,190.16a2.69,2.69,0,0,1-.17-1.17c0-.09,0-.18,0-.28a3.45,3.45,0,0,1,3.82-3l.27,0A3.47,3.47,0,0,1,100,186.16Z"/><path class="cls-25" d="M96.84,189a1.08,1.08,0,0,1,.07-.31L95,190.16a8.92,8.92,0,0,0,.43,1L97,189.85A1.44,1.44,0,0,1,96.84,189Z"/><path class="cls-25" d="M99.27,188.09a1.46,1.46,0,0,1,.42,1.19,1.51,1.51,0,0,1-.25.66l1.28,1.61a6.37,6.37,0,0,0,.62-.88l-2.06-2.59Z"/><path class="cls-25" d="M98.43,187.69a1.55,1.55,0,0,1,.31.07,1.39,1.39,0,0,1,.53.33h0l1.57-1.24a3.57,3.57,0,0,0-.81-.68l-1.92,1.53Z"/><path class="cls-1" d="M91.32,192.61a2.61,2.61,0,0,1,.4,0l.28,0a3.43,3.43,0,0,1,2.74,3.78,2.8,2.8,0,0,1-.34,1.16,6.37,6.37,0,0,1-.62.88c-.54.66-1.39,1.58-2.75,3.12a.4.4,0,0,1-.32.14.44.44,0,0,1-.38-.22c-.88-1.65-1.46-2.71-1.85-3.46-.19-.39-.33-.7-.43-1a2.89,2.89,0,0,1-.17-1.18,1.31,1.31,0,0,1,0-.27,3.44,3.44,0,0,1,3.41-3m0,4.88a1.42,1.42,0,0,0,1.42-1.28,1.37,1.37,0,0,0-.31-1.06l-.1-.14v0a1.36,1.36,0,0,0-.52-.33,1.16,1.16,0,0,0-.32-.08h-.31a1.44,1.44,0,0,0-1.21,1,1.59,1.59,0,0,0-.06.3,1.41,1.41,0,0,0,.19.91,1.44,1.44,0,0,0,1.06.69h.17m0-5.38a3.93,3.93,0,0,0-3.91,3.48c0,.12,0,.21,0,.32a3.17,3.17,0,0,0,.2,1.35,7.63,7.63,0,0,0,.46,1c.21.43.49.94.84,1.59s.62,1.14,1,1.88a.94.94,0,0,0,1.52.18l1.25-1.41c.67-.75,1.15-1.29,1.51-1.73a6.31,6.31,0,0,0,.66-.94,3.29,3.29,0,0,0,.41-1.35,4,4,0,0,0-.95-3.07,4.65,4.65,0,0,0-.92-.77,4.14,4.14,0,0,0-1.27-.49l-.32-.05a3.54,3.54,0,0,0-.46,0Zm0,4.88h-.11a.95.95,0,0,1-.82-1,.78.78,0,0,1,0-.19.94.94,0,0,1,.79-.63h.2l.22,0a.77.77,0,0,1,.33.22l0,0v0a.92.92,0,0,1,.22.71,1,1,0,0,1-.17.43.93.93,0,0,1-.76.4Z"/><path class="cls-1" d="M92.34,195l.1.14a.41.41,0,0,0-.11-.12v0m0-.87-.4.6v0l-.25.36.34.29,0,.05.8-.61-.11-.13-.42-.58Z"/><path class="cls-21" d="M91.49,194.62h-.31a1.44,1.44,0,0,0-1.21,1,1.63,1.63,0,0,0-.07.3,1.41,1.41,0,0,0,.2.91,1.42,1.42,0,0,0,2.4.08,1.36,1.36,0,0,0,.25-.65,1.38,1.38,0,0,0-.42-1.19,1.36,1.36,0,0,0-.52-.33A1.67,1.67,0,0,0,91.49,194.62Z"/><path class="cls-22" d="M91.16,197.48a1.44,1.44,0,0,1-1.06-.69l-1.62,1.28c.39.76,1,1.81,1.85,3.46a.43.43,0,0,0,.7.08c1.35-1.54,2.21-2.46,2.75-3.12l-1.28-1.62A1.44,1.44,0,0,1,91.16,197.48Z"/><path class="cls-23" d="M93.91,193.77,92.34,195l2.06,2.6a3,3,0,0,0,.35-1.16A3.45,3.45,0,0,0,93.91,193.77Z"/><path class="cls-24" d="M93.11,193.1l-1.93,1.52a1.44,1.44,0,0,0-1.21,1l-1.92,1.52a2.89,2.89,0,0,1-.17-1.18c0-.08,0-.17,0-.27a3.44,3.44,0,0,1,3.82-3l.26,0A3.52,3.52,0,0,1,93.11,193.1Z"/><path class="cls-25" d="M89.9,195.88a1.63,1.63,0,0,1,.07-.3l-1.92,1.52c.1.27.24.58.43,1l1.62-1.28A1.41,1.41,0,0,1,89.9,195.88Z"/><path class="cls-25" d="M92.33,195a1.38,1.38,0,0,1,.42,1.19,1.36,1.36,0,0,1-.25.65l1.28,1.62a6.11,6.11,0,0,0,.62-.88L92.34,195Z"/><path class="cls-25" d="M91.49,194.62a1.67,1.67,0,0,1,.32.08,1.36,1.36,0,0,1,.52.33v0l1.57-1.24a3.44,3.44,0,0,0-.8-.67l-1.93,1.52Z"/><path class="cls-1" d="M93.3,201.52a2.83,2.83,0,0,1,.41,0l.27,0a3.45,3.45,0,0,1,2.75,3.78,3,3,0,0,1-.35,1.16,5.15,5.15,0,0,1-.62.87c-.54.67-1.39,1.59-2.75,3.13a.43.43,0,0,1-.7-.09c-.87-1.65-1.46-2.7-1.85-3.45a8.36,8.36,0,0,1-.42-1,2.75,2.75,0,0,1-.18-1.18l0-.27a3.44,3.44,0,0,1,3.41-3m0,4.88a1.46,1.46,0,0,0,1.18-.61,1.35,1.35,0,0,0,.24-.66,1.41,1.41,0,0,0-.3-1.06l-.11-.14v0a1.35,1.35,0,0,0-.53-.33,1.07,1.07,0,0,0-.32-.08h-.31a1.38,1.38,0,0,0-1.27,1.26,1.42,1.42,0,0,0,1.25,1.59h.17m0-5.38a3.94,3.94,0,0,0-3.91,3.49c0,.12,0,.21,0,.32a3.55,3.55,0,0,0,.2,1.35,7.63,7.63,0,0,0,.46,1c.21.42.49.93.84,1.59s.62,1.14,1,1.88a.93.93,0,0,0,.82.49.91.91,0,0,0,.7-.32l1.25-1.41c.67-.74,1.15-1.28,1.51-1.72a6.31,6.31,0,0,0,.66-.94,3.29,3.29,0,0,0,.41-1.36,4,4,0,0,0-1-3.06,4.38,4.38,0,0,0-.92-.77,4,4,0,0,0-1.27-.49l-.31,0a3.71,3.71,0,0,0-.47,0Zm0,4.88H93.2a.94.94,0,0,1-.69-.45.92.92,0,0,1-.13-.59c0-.08,0-.14,0-.19a1,1,0,0,1,.79-.63h.21a.69.69,0,0,1,.21.05,1,1,0,0,1,.34.21l0,0v0a.88.88,0,0,1,.22.71,1,1,0,0,1-.17.43.94.94,0,0,1-.76.39Z"/><path class="cls-1" d="M94.32,203.93l.11.14a1.31,1.31,0,0,0-.11-.12v0m0-.87-.39.6h0l-.25.37.34.29a.1.1,0,0,1,0,0l.8-.61-.1-.13-.43-.58Z"/><path class="cls-21" d="M93.48,203.54h-.31a1.46,1.46,0,0,0-1.22,1c0,.1,0,.2-.07.3a1.48,1.48,0,0,0,.2.91,1.4,1.4,0,0,0,1.06.68,1.43,1.43,0,0,0,1.35-.6,1.35,1.35,0,0,0,.24-.66,1.41,1.41,0,0,0-.42-1.19,1.38,1.38,0,0,0-.52-.32A1.77,1.77,0,0,0,93.48,203.54Z"/><path class="cls-22" d="M93.14,206.39a1.4,1.4,0,0,1-1.06-.68L90.47,207c.38.76,1,1.81,1.84,3.46a.44.44,0,0,0,.71.08c1.35-1.54,2.2-2.46,2.74-3.13l-1.27-1.61A1.43,1.43,0,0,1,93.14,206.39Z"/><path class="cls-23" d="M95.89,202.69l-1.56,1.24,2,2.6a2.81,2.81,0,0,0,.35-1.16A3.41,3.41,0,0,0,95.89,202.69Z"/><path class="cls-24" d="M95.09,202l-1.92,1.52a1.46,1.46,0,0,0-1.22,1L90,206a2.89,2.89,0,0,1-.17-1.18l0-.27a3.44,3.44,0,0,1,3.82-3l.27,0A3.56,3.56,0,0,1,95.09,202Z"/><path class="cls-25" d="M91.88,204.8c0-.1,0-.2.07-.3L90,206a9,9,0,0,0,.44,1l1.61-1.28A1.48,1.48,0,0,1,91.88,204.8Z"/><path class="cls-25" d="M94.31,203.94a1.41,1.41,0,0,1,.42,1.19,1.35,1.35,0,0,1-.24.66l1.27,1.61a5.58,5.58,0,0,0,.62-.87l-2-2.6Z"/><path class="cls-25" d="M93.48,203.54a1.77,1.77,0,0,1,.31.08,1.38,1.38,0,0,1,.52.32h0l1.56-1.24a3.44,3.44,0,0,0-.8-.67l-1.92,1.52Z"/><path class="cls-1" d="M70.76,184.68l.4,0,.28,0a3.82,3.82,0,0,1,1.11.43,3.48,3.48,0,0,1,.8.68,3.41,3.41,0,0,1,.83,2.67,3.06,3.06,0,0,1-.34,1.17,7,7,0,0,1-.62.87c-.54.66-1.39,1.58-2.75,3.12a.42.42,0,0,1-.32.15.43.43,0,0,1-.38-.23c-.88-1.65-1.47-2.7-1.85-3.46a8.68,8.68,0,0,1-.43-1,2.87,2.87,0,0,1-.17-1.17,2.64,2.64,0,0,1,0-.28,3.45,3.45,0,0,1,3.42-3m0,4.88a1.45,1.45,0,0,0,1.18-.61,1.56,1.56,0,0,0,.25-.66,1.4,1.4,0,0,0-.31-1.07l-.1-.13h0a1.36,1.36,0,0,0-.52-.33,1.87,1.87,0,0,0-.32-.08h-.31a1.43,1.43,0,0,0-1.21,1,2.82,2.82,0,0,0-.07.31,1.46,1.46,0,0,0,.2.9,1.44,1.44,0,0,0,1.06.69h.16m0-5.38a3.94,3.94,0,0,0-3.91,3.48,1.82,1.82,0,0,0,0,.32,3.24,3.24,0,0,0,.2,1.36,8.77,8.77,0,0,0,.45,1c.22.42.49.93.85,1.58s.62,1.14,1,1.88a.92.92,0,0,0,1.52.18l1.25-1.41c.67-.75,1.15-1.29,1.5-1.73a6.19,6.19,0,0,0,.67-.93,3.56,3.56,0,0,0,.41-1.36,4,4,0,0,0-1-3.06,4.19,4.19,0,0,0-.93-.78,4.24,4.24,0,0,0-1.26-.49l-.32-.05-.46,0Zm0,4.88h-.11a.9.9,0,0,1-.68-.44,1,1,0,0,1-.13-.6.78.78,0,0,1,0-.19.94.94,0,0,1,.79-.63h.2l.22.05a.87.87,0,0,1,.33.22l0,0v0a1,1,0,0,1,0,1.15,1,1,0,0,1-.77.39Z"/><path class="cls-1" d="M71.78,187.09l.1.13-.11-.12h0m0-.88-.4.6v0l-.24.37.34.28,0,.05.79-.61-.1-.13-.42-.58Z"/><path class="cls-21" d="M70.93,186.7a1.08,1.08,0,0,0-.31,0,1.46,1.46,0,0,0-1.21,1,1.55,1.55,0,0,0-.07.31,1.4,1.4,0,0,0,.2.9,1.43,1.43,0,1,0,2.23-1.76,1.39,1.39,0,0,0-.53-.33A1,1,0,0,0,70.93,186.7Z"/><path class="cls-22" d="M70.6,189.55a1.44,1.44,0,0,1-1.06-.69l-1.62,1.28c.38.76,1,1.81,1.85,3.46a.43.43,0,0,0,.7.08c1.35-1.54,2.21-2.45,2.75-3.12l-1.28-1.62A1.44,1.44,0,0,1,70.6,189.55Z"/><path class="cls-23" d="M73.35,185.85l-1.57,1.24,2.06,2.59a3.14,3.14,0,0,0,.35-1.16A3.46,3.46,0,0,0,73.35,185.85Z"/><path class="cls-24" d="M72.55,185.17l-1.93,1.52a1.46,1.46,0,0,0-1.21,1l-1.92,1.52a2.87,2.87,0,0,1-.17-1.17c0-.09,0-.18,0-.28a3.45,3.45,0,0,1,3.82-3l.27,0A3.52,3.52,0,0,1,72.55,185.17Z"/><path class="cls-25" d="M69.34,188a1.55,1.55,0,0,1,.07-.31l-1.92,1.52a9.87,9.87,0,0,0,.43,1l1.62-1.28A1.4,1.4,0,0,1,69.34,188Z"/><path class="cls-25" d="M71.77,187.1a1.42,1.42,0,0,1,.17,1.84l1.28,1.62a6.37,6.37,0,0,0,.62-.88l-2.06-2.59Z"/><path class="cls-25" d="M70.93,186.7a1,1,0,0,1,.31.07,1.39,1.39,0,0,1,.53.33h0l1.57-1.24a3.48,3.48,0,0,0-.8-.68l-1.93,1.52A1.08,1.08,0,0,1,70.93,186.7Z"/></g></g></g></svg>