<svg xmlns="http://www.w3.org/2000/svg" xmlns:xlink="http://www.w3.org/1999/xlink" viewBox="0 0 415.5 369"><defs><style>.cls-1,.cls-12,.cls-2{fill:#fff;}.cls-12,.cls-2{mix-blend-mode:overlay;}.cls-3{fill:url(#radial-gradient);}.cls-4{isolation:isolate;}.cls-5{fill:url(#Degradado_sin_nombre_45);}.cls-6{fill:#3bace0;}.cls-7{mask:url(#mask);}.cls-8{opacity:0.9;}.cls-9{fill:#d7e02b;}.cls-10{fill:#edf8ff;}.cls-11{fill:#ffe2bc;}.cls-12{opacity:0.2;}.cls-13{mask:url(#mask-2);}.cls-14,.cls-16{fill:#7f8083;}.cls-14{opacity:0.7;}.cls-14,.cls-15{mix-blend-mode:multiply;}.cls-15{opacity:0.4;}.cls-17{fill:#384344;}.cls-18{fill:#86a7b5;}.cls-19{fill:#e9f4f6;}.cls-20{fill:#d93c2b;}</style><radialGradient id="radial-gradient" cx="-1015.2" cy="1589.4" r="194.34" gradientTransform="translate(717.95 -1698.88) rotate(-15.35) scale(1.02)" gradientUnits="userSpaceOnUse"><stop offset="0"/><stop offset="0.22" stop-color="#3d3d3d"/><stop offset="0.73" stop-color="#c7c7c7"/><stop offset="0.95" stop-color="#fff"/></radialGradient><radialGradient id="Degradado_sin_nombre_45" cx="184.5" cy="184.5" r="184.5" gradientUnits="userSpaceOnUse"><stop offset="0.69" stop-color="#002165"/><stop offset="1" stop-color="#000042"/></radialGradient><mask id="mask" x="7.7" y="60.26" width="266.06" height="270.1" maskUnits="userSpaceOnUse"><path class="cls-1" d="M249.06,116.07a132.16,132.16,0,0,0-177.44-36c-4.08,2.63-8.2,5.54-12.85,9.09A132.18,132.18,0,0,0,33.71,268.47c2.47,3.49,5.08,6.81,7.81,10l-1.17-.61A132.14,132.14,0,0,0,213.6,303c1.15-.75,2.3-1.52,3.43-2.31.16-.11.33-.21.49-.33l.22-.15L218,300l.47-.35c1.12-.81,2.23-1.64,3.32-2.47A132.16,132.16,0,0,0,255.7,125.45l.18,1.31Q252.76,121.32,249.06,116.07Z"/><path class="cls-2" d="M173.94,64.39A131.93,131.93,0,0,0,71.62,80.06c-4.08,2.63-8.2,5.54-12.85,9.09A132.18,132.18,0,0,0,33.71,268.47c2.47,3.49,5.08,6.81,7.81,10l-1.17-.61A131.88,131.88,0,0,0,129.5,324Z"/></mask><mask id="mask-2" x="7.03" y="58.41" width="268.97" height="268.96" maskUnits="userSpaceOnUse"><path class="cls-3" d="M250.87,115.2A134.48,134.48,0,0,0,70.32,78.55C66.16,81.23,62,84.2,57.24,87.81A134.49,134.49,0,0,0,31.75,270.28q3.77,5.31,7.94,10.16l-1.19-.62a134.46,134.46,0,0,0,176.29,25.54c1.17-.76,2.34-1.54,3.49-2.35.17-.11.34-.21.5-.33l.22-.16.22-.15.48-.36c1.15-.82,2.27-1.66,3.38-2.51a134.49,134.49,0,0,0,34.55-174.76l.18,1.33Q254.63,120.54,250.87,115.2Z"/></mask></defs><title>pngRecurso 3resultado</title><g class="cls-4"><g id="Capa_2" data-name="Capa 2"><g id="Capa_1-2" data-name="Capa 1"><circle class="cls-5" cx="184.5" cy="184.5" r="184.5"/><path class="cls-6" d="M269.24,158.58a130.5,130.5,0,0,0-9.05-24.13c-.54-1.12-1.1-2.23-1.69-3.34q-1.38-2.61-2.88-5.18l.18,1.3q-3.12-5.45-6.82-10.68a132,132,0,0,0-177.44-36c-4.08,2.63-8.2,5.55-12.86,9.1a130.64,130.64,0,0,0-13.76,12.76h0a131,131,0,0,0-15.61,20.37s0,0,0,0h0v0l-.29.45a1,1,0,0,1-.08.14l-.84,1.38s-.06.1-.08.15c-.29.48-.57,1-.85,1.44l-.24.42-.75,1.33c-.3.54-.6,1.07-.89,1.61l-.59,1.12-.12.22-.4.77c-.39.76-.78,1.52-1.15,2.29-.15.29-.29.57-.42.85l-.5,1-.38.8c-.37.81-.73,1.61-1.09,2.42-.13.3-.26.59-.38.89s-.34.77-.5,1.16-.36.87-.54,1.32c-.11.27-.23.53-.33.8s-.31.78-.46,1.17h0l-.36,1s0,0,0,0l-.39,1.06-.32.86h0l-.21.6c-.42,1.17-.83,2.35-1.21,3.53-.16.51-.33,1-.49,1.53l0,.12c-.19.58-.36,1.17-.53,1.75a.74.74,0,0,0,0,.14l0,.07s0,.05,0,.08h0l-.33,1.15c-.05.17-.1.33-.14.5-.15.52-.29,1-.43,1.56s-.29,1.11-.43,1.67-.31,1.24-.45,1.86-.24,1-.36,1.54c-.17.78-.34,1.55-.5,2.33-.1.48-.2,1-.29,1.46-.14.68-.26,1.35-.38,2L11.14,171c-.1.62-.2,1.25-.29,1.88-.08.45-.14.9-.2,1.35,0,.22-.06.43-.09.65-.07.5-.14,1-.2,1.52s-.15,1.21-.21,1.81-.11,1-.15,1.43c0,.17,0,.34-.05.5s0,.36,0,.54c0,.39-.07.77-.1,1.15-.05.58-.09,1.16-.14,1.74v.08c0,.6-.08,1.21-.11,1.81s-.06,1-.08,1.53v0l0,.67,0,1.2c0,.15,0,.28,0,.43l0,1.62c0,.6,0,1.21,0,1.81A131.42,131.42,0,0,0,33.63,269c.62.87,1.24,1.73,1.88,2.58q1.43,1.92,2.91,3.77t3,3.63l-1.17-.6q4.23,5,8.87,9.5,2,1.92,4,3.75c.91.81,1.83,1.61,2.76,2.39s1.86,1.56,2.81,2.31q2.13,1.71,4.32,3.31c1,.71,2,1.41,3,2.09l1.49,1q3,2,6.08,3.84c2.56,1.52,5.18,3,7.83,4.3,1.06.53,2.13,1.06,3.2,1.56l1.62.75q2.43,1.11,4.9,2.11A132.72,132.72,0,0,0,137.32,325c1.3,0,2.59.06,3.88.06q2.43,0,4.86-.09a131.62,131.62,0,0,0,19.64-2.2c1.07-.21,2.15-.42,3.22-.66l.5-.1c1-.22,2-.45,3-.69l2.52-.64,2-.55c.87-.23,1.74-.49,2.6-.75l1.92-.6a132.44,132.44,0,0,0,25.77-11.44l2.12-1.26,2.12-1.3,2.09-1.35c1.15-.75,2.29-1.52,3.43-2.31.16-.11.33-.21.49-.33l.21-.15.22-.16c.17-.11.32-.23.48-.35,1.12-.81,2.23-1.63,3.32-2.47q3.33-2.54,6.45-5.25c.41-.34.81-.69,1.21-1.05l1.26-1.14c.41-.36.81-.74,1.21-1.11l.83-.79.72-.68,1-1c.42-.4.83-.81,1.23-1.22l0,0c.39-.39.77-.79,1.15-1.18l.34-.35c.35-.36.69-.73,1-1.1s.83-.88,1.24-1.33l1.22-1.36c.4-.45.8-.91,1.19-1.37q1.78-2.07,3.45-4.18c.38-.47.74-.95,1.11-1.42l1.09-1.44.87-1.18.28-.38q.48-.66,1-1.35c.34-.48.69-1,1-1.46l1-1.49c.33-.48.64-1,1-1.45a.41.41,0,0,1,.05-.09c.31-.48.63-1,.93-1.46s.63-1,.94-1.52.57-.95.86-1.43a3.79,3.79,0,0,1,.2-.34l.66-1.15.27-.46.69-1.23c.29-.52.57-1,.85-1.56l.84-1.59c.54-1,1.07-2.09,1.57-3.15l.77-1.59.74-1.61.66-1.49.07-.16c.23-.52.46-1.06.68-1.59.44-1,.87-2.09,1.28-3.14a1.55,1.55,0,0,1,.08-.23c.2-.51.4-1,.59-1.55s.31-.82.46-1.23.3-.82.44-1.23l.15-.42c0-.15.1-.29.14-.43.2-.55.38-1.11.56-1.67s.37-1.11.55-1.67v0c.18-.55.35-1.11.51-1.67s.34-1.12.5-1.69c.34-1.17.66-2.36,1-3.54l.3-1.18c.34-1.38.65-2.75.95-4.13.09-.46.19-.93.28-1.39.35-1.72.67-3.45.94-5.18.09-.58.19-1.16.27-1.74s.16-1.16.24-1.74c.16-1.15.31-2.32.43-3.49.25-2.33.44-4.68.56-7a0,0,0,0,0,0,0A131.91,131.91,0,0,0,269.24,158.58Z"/><g class="cls-7"><g class="cls-8"><path class="cls-9" d="M160.83,252.49c-.06-.28-.11-.54-.16-.8-.08-.43-.16-.83-.23-1.18l0-.2c0-.23-.09-.44-.13-.63s0-.15,0-.21c-.05-.27-.09-.46-.11-.55v-.06s.51-1.72,1.22-3.49,1.19-3.5,1.19-3.5-4-2-8.71-3.72l-5.44-1.91-3.06-1.07-2.44.71c-1.66.5-2.58.77-3.09.13-.25.08-1-1.27-1.89-3.36a17.56,17.56,0,0,0-1.61-3.46,12.08,12.08,0,0,0-3.91.37l-4,1.17c-.27.07-1-1.29-1.8-3.4a34.76,34.76,0,0,0-1.68-3.43l-5.11,1.51c-4.58.56-5.23.75-7.79.72l-3-.68-3,3.22-3.17,2.51-3.84,1.13c-4.4,1.3-3.72,1.88-5.61-2.26a8.88,8.88,0,0,0-1.54-2.7c-.38-.67-1.24-.41-2.13-.15l-1.64.48-.41-1.45c-.2-.73-.5-2.21-.8-3.69l-.39-2.24-1.5-.35-1.51-.33-1.9,2.13a13.24,13.24,0,0,1-2.59,2.33c-.81.24-6.35-2.84-6.56-3.56s1.41-9.05,1.68-9.92L80,208.89c6.12-1.8,5.42-1.6,8.43.65,1.84,1.83,1.85,1.82,3.64,1.29,2.16-.63,2.35.09,0-3.91a18,18,0,0,1-1.87-3.38,44,44,0,0,1,2.6-4.69c2.78-5.53,2.7-4.72,1-8.14-.35-.68-.32-1.47.48-3.29,1.06-1.87,1.12-1.89,2.68-2.35l1.59-.47-.69-2.94A17.08,17.08,0,0,1,97,178a69,69,0,0,0,7.13-8.38c3.92-4.29,7.17-8.4,7.41-8.47.16-.84-.89-1.31-8.36-7a71.62,71.62,0,0,0-9.16-6.72c-.52-.63-15.85.75-17.4,1.21-.53.16-.37.89.69,4.5s1.36,4.31,2.13,4.88c.56.61,1,1.26,1,1.26.43,1.44.21,8.57-.2,8.69-.25.08-2.48-1.62-4.83-3.28a25.64,25.64,0,0,0-5.38-3.13,16.37,16.37,0,0,1-4.18-.34c-2.11.62-3.35.21-5.15-.83a4.56,4.56,0,0,1-2.3-1.68c-.13-.74.56-2.52,1.19-5.06,1.42-5.14.88-4.18,7.74-5.42L71.64,147a10.78,10.78,0,0,0-1.34-2.74l-1.54-2.69.09-3.17a18.54,18.54,0,0,1,.28-3.22c-.12-.75.9-1,2-1.38,1.54-.46,2.08-.62,2.44.07h0a3.91,3.91,0,0,1,.22.89l0,.11a.13.13,0,0,0,0,.06c0,.09,0,.19,0,.3s0,0,0,0,0,.24.06.38c.12.78.26,1.73.36,2.69.22,2.3.68,4.52.85,4.47a45.51,45.51,0,0,0,7.52.14l6.81-1.23,2-3.74L92,137c1.12-3.47,2.09-6.11,2.09-6.11s-6.38-3.61-13.85-6.9c-7.68-4-14.08-6.85-14.56-7.49-.29.09-.61-.61-.48-.64s2.38-6.21,5.1-13.28c2.93-6.37,5.11-12.5,5.17-12.52-.11-.76-1.81-.26-12.52,2.11L55.5,93.62l-10.58,8.77h0l-10.18,8.44h0l-1.28,1.06,1.28-1.05a133.29,133.29,0,0,0-18.51,32.93l1,.39.7.26.22.08.22.09h0l1.63.62.64.25.15.05.14,0c.08,0,.17.06.24.09l0,0,.31.1.09,0,.16.05a.74.74,0,0,0,.24,0c.55.62.49.64-.15.82h-.05s0,0,0,0l-.74.14-.35.06-.2,0-.43.08-.16,0-.16,0-.71.12-.29.05-.19,0-.3,0-1,.17h0l-.28,0-.26,0-1.15.2-.83.13-.09,0q-1.81,5.16-3.2,10.44A134,134,0,0,0,7.7,179.32l1.75,1.07.22.15.23.13c2.41,1.52,4.76,3.11,4.87,3.48l-.77.23c-1.42.42-1.26,1.15.49,3a12.62,12.62,0,0,0,2.25,2.47l1.79-.53c.77-1,1.39-1.19,2-.58A6.16,6.16,0,0,1,22.2,190a2.61,2.61,0,0,1,.27.22l.28.24c.61.53,1.29,1.14,2,1.75l3.54,2.89L29.61,201l1.58,6.6,11.38,9.21L53.93,226l2.64-.78c1.45-.42,2.85-.83,3.33-.18.26-.08,2,1,3.67,2.05L67,230l8.73,2.15L84.61,235l1.94-1.36,2.17-.64,2.49,3.2c1.21,1.21,2.51,2.39,3,3l3.87-1.14,3.34-1,.85,2.9c.85,2.89.84,2.89.29,6.19a4.9,4.9,0,0,0-.55,3.3c.23.72,3.11,4.58,6.75,9.79l6.3,8.35,4,1.17c3,.69,3.81.44,4,1.17s1.2,8.28,2.59,18.08l1,7.47,0,.24,0,.23,1.13,8.69,2.56,8.68L133,322l4.32,3,.34.24h0l.34.24.59.4c.7.5,1.39,1,2,1.48l.72.54.48.36c.3.23.58.45.85.64l.25.2h0l.38.29.8.6.2.15.18.12c.11.07.18.11.19.1s.12-.08.18-.2a1,1,0,0,0,.11-.2,5.34,5.34,0,0,0,.25-.57,1.22,1.22,0,0,0,.07-.17c0-.06,0-.12.07-.18s0-.12.07-.19a2.25,2.25,0,0,1,.08-.24c.15-.42.29-.88.41-1.33A2.33,2.33,0,0,0,146,327c0-.07,0-.14.05-.2a1.62,1.62,0,0,0,0-.19c0-.19.09-.38.12-.54a4.16,4.16,0,0,0,.06-.44,1.06,1.06,0,0,0,0-.24.53.53,0,0,0,0-.23h0l0,0,0,0a1,1,0,0,0-.15-.16c-.16-.17-.4-.43-.7-.73l-.19-.19-.41-.41c-.29-.28-.6-.58-.93-.88a8.07,8.07,0,0,1-2.2-1.71,8.45,8.45,0,0,1,1.41-2.76l1.2-3.5-.64-2.17c-.06-.2-.12-.4-.19-.6-.13-.38-.27-.76-.43-1.11,0-.1-.08-.2-.13-.3s-.17-.37-.25-.54l-.12-.22a1.28,1.28,0,0,0-.11-.2,4.35,4.35,0,0,0-.32-.5c-.86-1.31-.86-1.31-.55-2.19.08-.47,1.59-4.12,3.75-9.14l.09-.23c0-.08.07-.16.1-.23C150.86,284.71,160,263.9,161,262l1-2.65-.71-4.5C161.11,254,161,253.22,160.83,252.49ZM271.6,158.4a133.59,133.59,0,0,0-14-33.65l.18,1.32q-3.18-5.53-6.94-10.87A134.44,134.44,0,0,0,227,89.4l-1.48,1.8-1.87,2.28c-2.66,3.93-5.45,7.1-5.91,8l-1,1.08-3-2.25a4.81,4.81,0,0,1-3-2.24l3.07-.91c3.59-.27,3.45-.23,3.78-1.11.47-.14,1.39-3.28,1.73-5.25,0-.24.07-.47.1-.68a2.32,2.32,0,0,0,0-.76.14.14,0,0,0-.06-.1h-.06a93.93,93.93,0,0,1-10.23.67c-5.63.09-10.65,0-11.06.13a32.83,32.83,0,0,0-6.25,4.19c-4.32,2.06-5.9,3.31-6.18,4.18s-6.33,19.14-6.52,20.77a31.14,31.14,0,0,0,1.6,7.38l1.89-.56,1.62-.47a11.15,11.15,0,0,1,3.37-1.78,10.27,10.27,0,0,0,1.61,1.87c1.44,1.94,1.52,1.92,5.19-.74l2.41-1.5-.57-3-.59-3L194,116.36c-.83-.53-1.56-1.1-1.56-1.1s3.54-10.47,3.76-11.32c.48-.14,3.79,2,3.79,2,.21.72-.63,1.76-1.51,3.59a9.16,9.16,0,0,0-1.73,2.87,25.47,25.47,0,0,0,3.57,4.44c.24-.07,1.73-1.3,3.37-2.56l3.14-1.72L208,113a5,5,0,0,1,1.22,1.21c-.06,0-2.15,2.21-4.74,4.54l-4.85,3.79.1,1.54c0,.77,0,1.58,0,2.35l-5.37,1.59-4.84,2.21-1.68-1.86a5.92,5.92,0,0,0-1.78-1.05c-.54.17-2.39,2.28-2.17,3,0,0,.49.64,1,1.27a17.58,17.58,0,0,0,1.27,2c.22.72-.64,2.55-1.79,4.46-1.68,3.64-2.16,3.78-3.35,4.92-1.31.38-2,.58-3.36,3.34a12.81,12.81,0,0,0-1.9,2.91c.15.74.88,1.32,1.8,1.83,2.11,1.73,2.2,1.71,1.83,4.17l-.28,1.65-2.52.75-4,1.18c-2.1-.17-2.1-.17,1,4.42,2.78,4,4,5.77,4.64,6.54a2.6,2.6,0,0,0,.4.41.37.37,0,0,0,.16.1h.05a.21.21,0,0,0,.11,0l0,0a6.49,6.49,0,0,0,.52-.81l.2-.37,1.33-2.41h0c.65-1.18,1.41-2.55,2.22-3.93a35.27,35.27,0,0,1,4.22-7.52l1.36-.4c1.18.44,1.3.4,2.57-1.54l1.14-2.7,2.23.92c5.21,2.38,5.78,2.21,6.81,4.27,1.66,3.43,2.26,4,2.51,4a18.31,18.31,0,0,0,1.88-5.26c.1-.82-.4-1.45-3.81-4.38-2.11-1.73-4-3.54-4-3.54-.21-.73,0-.79.1-1.6.56-.17.79-.23,7,4.21,3.06,2.24,3.38,2.93,4.37,5,.63,1.39,1.3,2.76,1.59,3.46s1.23,1.21,3.45,2.13a5.82,5.82,0,0,1,.79.22l.23.08.46.18c.81.33,1.52.7,1.86.81l.08,0h.09l.05,0c.49-.11,2.7-.37,1.71-3.1.77-1.67,4,1.43,4.14,1.37a32.33,32.33,0,0,1,3.29,2.17l-5.7,1.68-5.91,1-1.64-.29a7.69,7.69,0,0,0-2.28-.9A11.9,11.9,0,0,0,210.1,165a6.12,6.12,0,0,1-1.57,2.81c-.2.06-2.28-.1-4.58-.22l-4.21-.32-.64-2.17c-.43-1.44-.54-1.4-2.15-2.5l-1.72-1.07-5.1,2.29-5.1,2.29L178,177.64l-6.83,12.22,2.78,8.61c1.62,5,3.09,9.29,3.42,10,.1,0,2,1,4.21,1.91,2.38,1.65,4.63,2.56,5.32,3.14,1.1.46,1.17.44,8.95-1.07l7.64-2.25,4.17,1.91a17.06,17.06,0,0,1,4.11,1.14,6.22,6.22,0,0,1-.82,1.81l-1,1.86,3.08,2.24a40.38,40.38,0,0,1,5.19,4l1.89,1,1.28,4.33,1.07,3.61-.88,1.83-.66,2.55,8.39,12.45c4.22,6.08,7.8,11,8.55,12.16l.12.18h0l.46-.12a20.81,20.81,0,0,1,4.68-.61l5.18-1.52c.33-.1,4.91-12.2,6.93-18l.36-1s0,0,0,0c.09-.24.16-.46.23-.66s.16-.48.21-.66c-.06-.77-.25-2.28-.53-3.77-.64-3-.66-3.73-.42-4.59,3.61-5,3.56-4.19,1.35-9.81-1.11-2.82-1.5-3.49-2.37-4a4.35,4.35,0,0,1-1.43-1.94s1.78-6.8,3.91-15.28c2.13-7.06,3.87-13.35,4.08-15a.89.89,0,0,0,0-.35l-3.56,1.05-4.26,1.26c-.33.87-2.18-.16-5.85-1.42-2.52-1.62-2.62-1.59-8.73-8.43l-6.38-7.53-.73-2.93c-.34-1.47-.36-2.26-.05-2.34.53-.94,2.19-1.43,2.85-.85.24-.07,4.58,4.94,9.48,10.57s9,9.89,9.28,9.82c.5.63,2.09-.62,4.89-3,2.46-1.52,4.54-3.7,4.92-3.81.62-1,2.93-7.94,2.93-7.94a4.91,4.91,0,0,0-3.07-2.23l-3.05-2.24-1.91,1.35a4.9,4.9,0,0,1-2.19,1.43c-.93-.51-5.54-5.43-5.55-6.21.12,0,11.91-1.24,19.59-1.85Zm-37.77-16.08a20,20,0,0,1-5.05.7c-7.24,1.35-7.11,1.31-8.7,4.14a18.85,18.85,0,0,1-1.8,2.1c-.3.09-1.6-1.89-1.81-2.6s.37-2.48,1.19-4.29l1.2-4.28,2.09,1.74c1.6,1.11,2.06,1,2.87.73,1.68-.5,2-.59,1.57-2s-.36-1.46.47-1.71c2-.58,2.88-.06,5.48,2.31A21,21,0,0,1,233.83,142.32Zm26.33-7.77c-.17,0-.57.95-1.15,1.12-1,.29-1.05.31-1.67-1.07-1.19-2.8-1-2.84.42-3.27l.74-.22L259,131l.61,1.39a6.1,6.1,0,0,1,.56,2.1C260.19,134.51,260.19,134.54,260.16,134.55Zm9.78,97.94c0-2,0-4.35-.08-6.51l0-.83h0c0-.29,0-.57,0-.85h0c-.07-2.44-.15-4.32-.22-4.56-.15-.52-1.31-1.13-2.21-1.37l-.25-.05-.21,0a1.37,1.37,0,0,0-.42,0c-.38.11-5,7-5.17,7.81a24.08,24.08,0,0,0,0,3.94c0,.13,0,.25,0,.37l0,.51a18.24,18.24,0,0,0,.44,3.67c.08,0,1.95,1,4.06,1.94l.25.07h0l.22.06.22.06c.75.22,1.34.39,1.8.51.93.24,1.33.22,1.37-.26A22.46,22.46,0,0,0,269.94,232.49ZM99.78,214.83c-.41.12-8.57-.62-8.65.2-.39.12.07,3.9.37,3.82.14,0,2.1.16,4.3.3,2.5,0,4-.39,4-1.18C100.34,217.81,100.32,215.46,99.78,214.83Zm79.22-76-.43-2.24-3-1.46c-2.77-1.54-3.11-1.45-4.53-3.38-.9-1.31-1.87-2.58-2.08-2.52-.46-.66-.88.26-1.62,2l-1,2.67L168,135a36.67,36.67,0,0,1,3.12,2.23c1.39.36,1.61,1.09,1.22,3.56a5.2,5.2,0,0,0,0,2.35c.34.69,1.11.47,3.47-.23,1.7-.5,3.25-1,3.24-1.75C179.24,141.14,179.29,140.33,179,138.86ZM137.73,83.5c-.1-.75,1-1.87,2-3.75s1.83-3.68,1.62-4.4-13.8-6.92-14.68-6.66S81.53,88.3,81.25,89.16c-.59.18-7,18.56-6.8,19.28s4.61,4.14,5.1,4a8.12,8.12,0,0,0,3-1.66,27.23,27.23,0,0,1,2.82-2.4c.42-.13,7.71,3.22,8.28,3.84l0,0,0,.08.1.18c.06.1.14.24.23.42s.13.23.2.37.3.56.49.93c0,.09.09.17.14.27l.45.88.33.63c.24.48.52,1,.8,1.56l.29.55c.37.73.77,1.5,1.17,2.26l.75,1.55c.11.21.22.42.32.63l.8,1.62c.1.19.19.39.29.57a3.15,3.15,0,0,0,.16.32c.09.2.19.39.28.57s.12.25.17.34l.32.63c.1.2.2.4.3.58l.26.52.24.45c.24.45.41.77.51.93a.48.48,0,0,0,.08.12l0,.05h0s.05,0,.08.06l.07.06.08.09.11.1.09.09.71.72.36.37.19.19.21.22.21.21.22.22.71.72.25.26c.84.84,1.79,1.79,2.78,2.74,5.15,4.75,5.76,5.36,6.69,5.08l3.55-1,2.56-.75.59-4.89.37-5.6,5.83-4.08c3.13-2.49,6.14-5,6.79-5.14.85-1,1.3-1.17,3.19-10.36,1.26-5.08,2.4-9.35,2.35-10.11.17,0-.53-3.77-1.31-7.47S137.62,83.54,137.73,83.5ZM151,114.93c-.36.11-9,5.79-9.42,5.91a34.64,34.64,0,0,0,3.92,4.35c2.75,2.33,4.11,3.49,4.44,3.39.77-1,6.83-9.87,6.83-9.87C156.54,118,152.1,115.38,151,114.93Z"/><path class="cls-10" d="M180.65,126.59l1.89-.55,1.46-5.71-.54-3.43,1.29-8.08s-.12-6.63,1.15-7,4.52-4.92,4.52-4.92l8.74-3.09,6.62-.93,7.46-1.17,5.35-.56.72-.32c.16-.94.19-1.61,0-1.55a93.93,93.93,0,0,1-10.23.67c-5.63.09-10.64,0-11.06.12a33.69,33.69,0,0,0-6.25,4.2c-4.32,2.06-5.9,3.32-6.18,4.18s-6.33,19.14-6.52,20.77A31.14,31.14,0,0,0,180.65,126.59Z"/><path class="cls-1" d="M94.12,130.91s-1,2.64-2.09,6.11l-.5.93a45.94,45.94,0,0,0-4.58-.8s-10.83-.91-12.38-1.48a1.4,1.4,0,0,0-.59,0c0-.14,0-.26-.06-.38s0,0,0,0,0-.21,0-.3a.13.13,0,0,1,0-.06l0-.11a3.91,3.91,0,0,0-.22-.89h0c-.36-.69-.9-.53-2.44-.07-1.12.33-2.14.63-2,1.38a18.54,18.54,0,0,0-.28,3.22S57.09,135,55.69,134.92s-6.32,2.55-7.59,2.92-.05,7.42-1.32,7.79-11.09,2.12-11.09,2.12L29.89,154s-4.49-1.14-7.75-1.75l-.22,0-.21,0A9.17,9.17,0,0,0,19,151.9a24,24,0,0,0-4.27,3.44h0l-.35.32L14,156c-1,.94-1.95,1.83-2.57,2.42q1.38-5.28,3.2-10.44l.09,0,.83-.13,1.15-.2.26,0,.28,0h0l1-.17.3,0,.19,0,.29-.05.71-.12.16,0,.16,0,.43-.08.2,0,.35-.06.74-.14s0,0,0,0h.05c.64-.18.7-.2.15-.82a.74.74,0,0,1-.24,0l-.16-.05-.09,0-.31-.1,0,0c-.07,0-.16,0-.24-.09l-.14,0-.15-.05-.64-.25-1.63-.62h0l-.22-.09-.22-.08-.7-.26-1-.39a133.29,133.29,0,0,1,18.51-32.93h0L44.9,102.4h0L55.5,93.62,63,92.19c10.71-2.37,12.41-2.87,12.52-2.11-.06,0-2.24,6.15-5.17,12.52-2.72,7.07-5,13.23-5.1,13.28s.19.73.48.64c.48.64,6.88,3.46,14.56,7.49C87.74,127.3,94.12,130.91,94.12,130.91Z"/><path class="cls-10" d="M149.92,128.59c.77-1,6.84-9.87,6.84-9.87-.22-.72-4.66-3.34-5.78-3.79-.37.11-9,5.79-9.42,5.91a34.64,34.64,0,0,0,3.92,4.35C148.23,127.52,149.59,128.68,149.92,128.59Z"/><path class="cls-1" d="M134.91,118.88c.85-1,1.3-1.17,3.19-10.36,1.26-5.08,2.4-9.35,2.35-10.12.17,0-.53-3.76-1.31-7.46s-1.52-7.4-1.41-7.44c-.1-.75,1-1.87,2-3.74s1.83-3.69,1.62-4.41-13.8-6.92-14.68-6.66S81.52,88.3,81.25,89.17c-.59.17-7,18.55-6.8,19.27s4.61,4.14,5.1,4a8.2,8.2,0,0,0,3-1.65,26.54,26.54,0,0,1,2.82-2.41c.42-.13,7.72,3.22,8.28,3.84.09,0,2.14,4.08,4.28,8.16,2.35,4.8,4.41,8.91,4.53,8.88s3,3.05,6.09,6.06c5.15,4.75,5.76,5.36,6.69,5.08l3.55-1,2.56-.76.58-4.89.38-5.6,5.83-4.08C131.25,121.53,134.27,119.07,134.91,118.88Z"/><path class="cls-9" d="M259.63,132.35,259,131l-.52.15-.74.22c-1.44.43-1.61.47-.42,3.27C258,136,258,136,259,135.67c.58-.17,1-1.07,1.15-1.12s0,0,0-.1A6.1,6.1,0,0,0,259.63,132.35Z"/><path class="cls-11" d="M260.63,183.89l-3.57,1.05,3.55-.7A1.61,1.61,0,0,0,260.63,183.89Z"/><path class="cls-12" d="M133.67,311.11l-.12-5.09-3.22-7.77-1.92-12.77L123.13,270c.21.72,1.2,8.28,2.59,18.08l2.17,16.63,2.55,8.68L133,322l5.6,3.85c3.12,2.22,6,4.52,6.1,4.48.41-.12,1.79-4.45,1.57-5.17,0,0-1.14-1.24-2.44-2.43a8.34,8.34,0,0,1-2.2-1.7,8.45,8.45,0,0,1,1.41-2.77l1.2-3.5-.64-2.17a14.87,14.87,0,0,0-1.23-3l-2.65,3.27Z"/><path class="cls-11" d="M179,170.27a31.46,31.46,0,0,0,2.1-3.63l-2.82,3.12C178.66,170.25,178.82,170.32,179,170.27Z"/><path class="cls-9" d="M218.28,161c.36-.11.4-.12-.62-3l-2.1,1.86C216.85,160.38,218.07,161.1,218.28,161Z"/><path class="cls-12" d="M148.38,236.24c-.73.91-1.28,1.94-.67,2.51,1.26,1.16,3.22,4.69,4.2,6.45s2,5.07,3.64,6.11c.82.51,3.1.82,5.28,1.18-.39-2-.71-3.63-.71-3.63s.51-1.72,1.21-3.5,1.2-3.49,1.2-3.49-4-2-8.71-3.72Z"/></g></g><g class="cls-13"><path class="cls-14" d="M271.6,158.4a133.59,133.59,0,0,0-14-33.65l.18,1.32q-3.18-5.53-6.94-10.87A134.28,134.28,0,0,0,70.32,78.55c-4.16,2.68-8.35,5.64-13.08,9.26a133.86,133.86,0,0,0-22.52,23h0a133.29,133.29,0,0,0-18.51,32.93c-.54,1.39-1.06,2.78-1.54,4.18q-1.81,5.16-3.2,10.44A134.42,134.42,0,0,0,31.74,270.28q3.78,5.31,8,10.15l-1.19-.61a134.31,134.31,0,0,0,102.13,47.54c1.76,0,3.53,0,5.3-.08a133.64,133.64,0,0,0,68.86-21.92c1.17-.76,2.34-1.54,3.5-2.35l.49-.33.22-.16.22-.15.49-.36c1.14-.83,2.26-1.66,3.37-2.51a133.8,133.8,0,0,0,45.3-62.29q.83-2.34,1.56-4.72A134.75,134.75,0,0,0,271.6,158.4Z"/></g><g class="cls-15"><path class="cls-16" d="M141.2,325.29A132.13,132.13,0,0,1,40.09,278.48l-.75-.89,1.16.6c-2.49-2.95-4.86-6-7.06-9.11a132.44,132.44,0,0,1-4.37-146.4l.41.21A127.83,127.83,0,0,0,44.31,243.26c2.33,3.31,4.88,6.56,7.56,9.68l.78.9-1.15-.6a128,128,0,0,0,167.1,23.43c1.11-.72,2.23-1.47,3.33-2.24l.23-.15.25-.16.2-.15.21-.15.23-.17.23-.17c1.09-.79,2.17-1.59,3.22-2.39a128.26,128.26,0,0,0,46.75-71.53l.45.07a132.17,132.17,0,0,1-51.89,98.22c-1.09.83-2.21,1.66-3.33,2.47l-.22.17-.25.18-.22.15-.21.16-.27.17a1.88,1.88,0,0,1-.23.16c-1.14.79-2.29,1.57-3.44,2.31A131.66,131.66,0,0,1,141.2,325.29Z"/><path class="cls-16" d="M273.48,199.57l-.45-.06a129,129,0,0,1-6.11,18.74A124.15,124.15,0,0,1,261.33,230q-2.37,4.39-5.09,8.62c-.15.22-.29.44-.43.66a127.07,127.07,0,0,1-18,21.74,129,129,0,0,1-11.48,9.86c-1.05.81-2.13,1.61-3.21,2.39l-.23.17-.23.17-.1.07-.11.08-.11.08-.1.07-.24.15-.23.17c-1.1.76-2.22,1.51-3.32,2.23a127.21,127.21,0,0,1-69.94,20.92c-1,0-2.07,0-3.1,0a127.57,127.57,0,0,1-15.44-1.3c-1.1-.16-2.21-.33-3.3-.53A127.24,127.24,0,0,1,52.46,254l1.13.59L52,252.79c-2.67-3.11-5.21-6.36-7.55-9.66A127.68,127.68,0,0,1,29.7,123l-.41-.2-.42-.21a133.33,133.33,0,0,0-10.94,21.87c-.41,1-.8,2.12-1.19,3.18Q15.26,151.75,14,156a132.39,132.39,0,0,0-4.59,24.41,133.91,133.91,0,0,0-.53,15.14,131.87,131.87,0,0,0,24.34,73.69c2,2.79,4.1,5.56,6.33,8.24l-1.17-.61,1.5,1.78A132.28,132.28,0,0,0,138,325.48c1.07,0,2.13,0,3.19,0,1.7,0,3.4,0,5.09-.1a132,132,0,0,0,67.48-21.6c1.15-.75,2.31-1.53,3.44-2.32l.23-.15.27-.18.11-.08.1-.08.11-.07.11-.08.26-.19.22-.16c1.12-.81,2.24-1.65,3.33-2.48a132.17,132.17,0,0,0,44.63-61.33q1.86-5.26,3.28-10.72a134.34,134.34,0,0,0,4.08-26.34Zm-7.35,37-.43,1.23c-.15.41-.3.83-.46,1.23s-.39,1-.59,1.55a1.55,1.55,0,0,0-.08.23c-.42,1.05-.84,2.1-1.28,3.14-.22.53-.45,1.07-.68,1.59l-.07.16-.66,1.49-.74,1.61-.77,1.59c-.51,1.06-1,2.11-1.57,3.15l-.84,1.59c-.28.52-.56,1-.85,1.56l-.69,1.23-.27.46-.66,1.15a3.79,3.79,0,0,0-.2.34c-.29.48-.57,1-.86,1.43s-.62,1-.94,1.52-.62,1-.93,1.46a.41.41,0,0,0-.05.09c-.32.49-.63,1-1,1.45l-1,1.49c-.33.49-.68,1-1,1.46s-.64.91-1,1.35l-.28.38-.87,1.18-1.09,1.44c-.37.47-.73.95-1.11,1.42q-1.66,2.11-3.45,4.18c-.39.46-.79.92-1.19,1.37l-1.22,1.36c-.41.45-.82.89-1.24,1.33s-.68.74-1,1.1l-.34.35c-.38.39-.76.79-1.15,1.18l0,0c-.4.41-.81.82-1.23,1.22l-1,1-.72.68-.83.79c-.4.37-.8.75-1.21,1.11l-1.26,1.14c-.4.36-.8.71-1.21,1.05q-3.12,2.71-6.45,5.25c-1.09.84-2.2,1.66-3.32,2.47-.16.12-.31.24-.48.35l-.22.16-.21.15c-.16.12-.33.22-.49.33-1.14.79-2.28,1.56-3.43,2.31l-2.09,1.35-2.12,1.3-2.12,1.26a132.44,132.44,0,0,1-25.77,11.44l-1.92.6c-.86.26-1.73.52-2.6.75l-2,.55-2.52.64c-1,.24-2,.47-3,.69l-.5.1c-1.07.24-2.15.45-3.22.66a131.62,131.62,0,0,1-19.64,2.2q-2.43.09-4.86.09c-1.29,0-2.58,0-3.88-.06a132.72,132.72,0,0,1-46.19-9.75q-2.47-1-4.9-2.11l-1.62-.75c-1.07-.5-2.14-1-3.2-1.56-2.65-1.34-5.27-2.78-7.83-4.3q-3.09-1.83-6.08-3.84l-1.49-1c-1-.68-2-1.38-3-2.09q-2.19-1.6-4.32-3.31c-1-.75-1.88-1.52-2.81-2.31s-1.85-1.57-2.76-2.39q-2.06-1.83-4-3.75-4.64-4.5-8.87-9.5l1.17.6q-1.53-1.79-3-3.63t-2.91-3.77c-.64-.85-1.26-1.71-1.88-2.58A131.42,131.42,0,0,1,9.35,192.73c0-.6,0-1.21,0-1.81l0-1.62c0-.15,0-.28,0-.43l0-1.2,0-.67v0c0-.51,0-1,.08-1.53s.07-1.21.11-1.81v-.08c.05-.58.09-1.16.14-1.74,0-.38.06-.76.1-1.15,0-.18,0-.36,0-.54s0-.33.05-.5c0-.47.09-.95.15-1.43s.14-1.21.21-1.81.13-1,.2-1.52c0-.22,0-.43.09-.65.06-.45.12-.9.2-1.35.09-.63.19-1.26.29-1.88l.27-1.55c.12-.68.24-1.35.38-2,.09-.49.19-1,.29-1.46.16-.78.33-1.55.5-2.33.12-.51.23-1,.36-1.54s.3-1.24.45-1.86.29-1.11.43-1.67.28-1,.43-1.56c0-.17.09-.33.14-.5l.33-1.15h0a.24.24,0,0,0,0-.08l0-.07a.74.74,0,0,1,0-.14c.17-.58.34-1.17.53-1.75l0-.12c.16-.51.33-1,.49-1.53.38-1.18.79-2.36,1.21-3.53l.21-.6h0l.32-.86L18,145.6s0,0,0,0c.12-.32.24-.64.37-1s.3-.78.46-1.17.22-.53.33-.8c.18-.45.35-.88.54-1.32s.33-.78.5-1.16.25-.59.38-.89c.36-.81.72-1.61,1.09-2.42l.38-.8.5-1c.13-.28.27-.56.42-.85.37-.77.76-1.53,1.15-2.29l.4-.77.12-.22.59-1.12c.29-.54.59-1.07.89-1.61l.75-1.33.24-.42c.28-.48.56-1,.85-1.44,0,0,.06-.1.08-.15l.84-1.38a1,1,0,0,0,.08-.14l.29-.47v0A128.06,128.06,0,0,0,44.12,243.4q3.59,5.07,7.58,9.69l-1.14-.59a127.85,127.85,0,0,0,76.2,43.5c1.1.19,2.2.37,3.31.52a128.44,128.44,0,0,0,15.18,1.3c1.09,0,2.19,0,3.29,0a127.62,127.62,0,0,0,70.19-21c1.11-.72,2.23-1.47,3.33-2.24l.48-.31.2-.16L223,274l.46-.34c1.09-.79,2.16-1.59,3.22-2.4A127.77,127.77,0,0,0,255.22,241c2.22-3.28,4.27-6.66,6.16-10.11a128.72,128.72,0,0,0,12.1-31.28q-.19,3.51-.56,7c-.13,1.17-.27,2.33-.43,3.49-.08.58-.15,1.16-.24,1.74s-.18,1.16-.27,1.74q-.42,2.59-.94,5.18c-.09.46-.19.93-.28,1.39-.3,1.37-.61,2.74-.95,4.11h0l-.3,1.19c-.3,1.18-.62,2.37-1,3.54-.16.57-.33,1.13-.5,1.69s-.33,1.12-.51,1.67v0c-.18.56-.36,1.12-.55,1.67s-.36,1.12-.56,1.67c0,.14-.09.28-.14.43Z"/></g><path class="cls-17" d="M284.8,93.3,299.48,108a1.71,1.71,0,0,1-2.43,2.42L282.38,95.73a1.71,1.71,0,0,1,2.42-2.43Z"/><path class="cls-17" d="M299.23,78.88l14.68,14.67A1.72,1.72,0,1,1,311.48,96L296.81,81.3a1.71,1.71,0,1,1,2.42-2.42Z"/><rect class="cls-18" x="244.58" y="27.25" width="42.71" height="70.36" rx="2.12" ry="2.12" transform="translate(33.75 206.33) rotate(-45)"/><polygon class="cls-19" points="263.51 62.43 249.62 76.31 252.04 78.74 265.93 64.85 289.59 88.52 292.02 86.09 268.35 62.43 282.24 48.54 282.24 48.54 279.82 46.12 279.82 46.12 265.93 60 242.27 36.34 239.84 38.77 263.51 62.43"/><path class="cls-17" d="M357.53,142l-14.67-14.68a1.71,1.71,0,0,1,2.42-2.42L360,139.6a1.71,1.71,0,1,1-2.42,2.43Z"/><path class="cls-17" d="M343.1,156.45l-14.67-14.67a1.71,1.71,0,1,1,2.42-2.43L345.53,154a1.71,1.71,0,1,1-2.43,2.42Z"/><path class="cls-18" d="M294.82,144c-7.42-7.43-11.13-15.74-8.31-18.57s11.14.9,18.55,8.32,11.13,15.73,8.31,18.56S302.23,151.43,294.82,144Z"/><path class="cls-18" d="M313.28,152.4l-.17.15,0,0-.2.14-.06,0-.17.1,0,0-.22.1-.06,0-.17.06-.07,0-.24.07h0l-.24.05h-.07l-.2,0h-.07l-.26,0h-.66l-.3,0H310l-.26,0h-.09l-.28,0h0l-.35-.07-.08,0-.3-.06-.07,0-.38-.1-.08,0-.36-.11h-.05l-.44-.15-.09,0-.44-.17-.07,0-.55-.23-.07,0-.56-.25-.1-.05-.26-.12-.13-.07-.26-.13-.11-.06-.38-.2-.06,0-.32-.18-.09-.05-.64-.37-.08-.05-.64-.39-.08,0-.66-.44-.06,0c-.24-.15-.47-.31-.7-.47l0,0-.73-.53h0l-.73-.55-.05,0-.69-.55-.08-.06-.67-.56-.07-.05-1.12-1,0,0-.87-.81-.07-.06-.73-.72-.14-.13-.63-.65,0,0-.71-.75,0,0-.64-.71-.06-.07-.59-.69-.07-.08q-.3-.34-.57-.69l-.07-.07-.56-.72,0-.05c-.21-.26-.41-.53-.6-.79l0,0-.57-.8-.05-.06-.58-.87-.06-.09-.23-.37-.07-.1c-.09-.15-.18-.29-.26-.44l-.05-.07-.3-.51,0,0-.29-.52,0-.08-.36-.68v0c-.12-.23-.23-.47-.34-.69l-.06-.14a1.42,1.42,0,0,1-.08-.18c0-.05-.05-.09-.07-.14l-.07-.18-.06-.14a1.22,1.22,0,0,1-.07-.17l-.06-.14-.06-.17-.06-.14-.06-.16-.05-.15-.06-.16s0-.09,0-.14l-.06-.15c0-.05,0-.1,0-.15l-.05-.15a1,1,0,0,0,0-.14c0-.05,0-.1,0-.15l0-.13a.83.83,0,0,1,0-.15c0-.05,0-.09,0-.14l0-.14,0-.13,0-.14s0-.09,0-.13l0-.14a.51.51,0,0,0,0-.13.68.68,0,0,0,0-.14s0-.08,0-.12,0-.09,0-.14,0-.08,0-.12,0-.09,0-.13,0-.08,0-.12a.62.62,0,0,0,0-.13V128a.37.37,0,0,1,0-.11v-.12a.41.41,0,0,0,0-.11s0-.08,0-.11a.41.41,0,0,1,0-.11.43.43,0,0,1,0-.11s0-.07,0-.1l0-.11a.36.36,0,0,1,0-.1s0-.07,0-.1l0-.1,0-.1,0-.09,0-.1,0-.08.05-.1,0-.08a.47.47,0,0,0,.05-.1l.05-.07a.41.41,0,0,1,.05-.09l.05-.08.06-.09,0-.06.07-.1s0,0,.05,0l.12-.14-18.94,18.93-.13.14,0,0-.08.1,0,.06-.07.09,0,.07-.06.09s0,.05,0,.08l-.05.09a.2.2,0,0,1,0,.08,1,1,0,0,1,0,.1l0,.09a.3.3,0,0,0,0,.1l0,.09,0,.1,0,.09,0,.11a.29.29,0,0,1,0,.09s0,.08,0,.11,0,.07,0,.1a.5.5,0,0,1,0,.12.34.34,0,0,1,0,.1s0,.08,0,.12,0,.07,0,.1,0,.08,0,.12V147a.24.24,0,0,0,0,.12v.24a.62.62,0,0,0,0,.13.49.49,0,0,0,0,.12.62.62,0,0,0,0,.13.49.49,0,0,0,0,.12s0,.09,0,.13,0,.09,0,.13,0,.09,0,.13,0,.09,0,.13l0,.14a.59.59,0,0,0,0,.13l0,.14,0,.13,0,.15,0,.13a.83.83,0,0,1,0,.15c0,.05,0,.09,0,.14s0,.1,0,.15,0,.09,0,.14l.05.15s0,.09,0,.14,0,.1,0,.16,0,.09.05.14l.06.16a1.21,1.21,0,0,0,.05.14l.06.16s0,.1.05.15a1.11,1.11,0,0,0,.07.16c0,.05,0,.1.05.15a1.11,1.11,0,0,1,.07.16l.06.15.08.17.06.15a1.42,1.42,0,0,1,.08.18l.06.12h0q.15.35.33.69l0,0c.11.22.23.45.36.68v0l0,.06c.09.17.19.34.29.51l0,0c.09.16.19.33.3.5l0,0,0,0,.27.44.06.1.24.37,0,.06,0,0,.58.86,0,0,0,0c.18.26.37.53.57.79l0,0v0l.59.79h0l0,0,.57.72,0,0,0,0,.57.69,0,0,0,0,.6.69,0,0,0,0,.64.72,0,0h0l.7.74h0l0,0,.64.64.1.1,0,0c.24.24.48.48.73.71l0,0,0,0,.87.8,0,0,0,0c.37.34.75.67,1.12,1l0,0,0,0,.67.56.07.06.69.54.06,0,.72.54h0c.24.19.49.36.73.53l0,0,.69.48.07,0,.66.43.08.05.64.4.08,0,.64.37,0,0,0,0,.33.18.06,0,.37.2.11,0,.27.14.13.06.26.13.08,0h0l.56.26.07,0,.54.22,0,0h0l.44.17.08,0,.45.15h0l.36.11.09,0,.38.1h.07l.29.07.09,0,.34.06h.05l.28,0,.09,0,.26,0h.06l.29,0h.66l.27,0h.07l.2,0h.07l.23-.05h0l.24-.06.06,0,.18-.07h.06l.22-.1,0,0,.18-.1,0,0,0,0,.21-.14h0l.18-.15,0,0,.06-.06,18.95-18.92Z"/><path class="cls-19" d="M314,124.88c-9.33-9.34-14.27-19.53-11-22.78s13.43,1.7,22.76,11,14.27,19.54,11,22.78S323.29,134.22,314,124.88Z"/><path class="cls-17" d="M336.62,136l-.2.17,0,0-.24.16-.06,0-.21.11,0,0-.26.11-.07,0-.2.07-.08,0-.28.07h0l-.28.05h-.09l-.23,0h-.84l-.27,0h-.09l-.35,0h-.08l-.31,0-.11,0-.34-.06-.05,0-.42-.09-.11,0-.35-.1-.09,0-.46-.15-.11,0-.43-.15-.06,0-.54-.21-.1,0-.55-.23-.09,0q-.33-.13-.66-.3l-.09,0-.68-.34-.13-.06-.32-.17-.16-.08-.33-.18-.13-.07-.46-.26-.08,0-.39-.24-.11-.06c-.26-.15-.53-.31-.79-.48l-.1-.06-.8-.52-.09-.06-.82-.56-.08,0c-.29-.2-.58-.4-.86-.61l-.05,0-.91-.67,0,0-.9-.7-.07,0-.86-.7-.09-.07-.84-.71-.09-.08c-.46-.4-.93-.81-1.4-1.24l0,0-1.09-1-.09-.09c-.31-.29-.61-.59-.92-.9a1.37,1.37,0,0,1-.17-.17l-.8-.81,0,0-.89-.93,0,0c-.28-.29-.55-.59-.82-.89l-.07-.08-.76-.86-.08-.1-.73-.86-.08-.1-.72-.89-.05-.06-.76-1,0,0-.73-1-.06-.08c-.26-.36-.51-.72-.75-1.07l-.07-.11c-.1-.16-.21-.31-.31-.46l-.08-.13-.35-.54-.06-.09c-.13-.21-.26-.42-.38-.63l0,0c-.13-.21-.25-.42-.37-.63l-.06-.1c-.16-.29-.32-.56-.47-.84l0,0-.44-.85-.09-.17-.1-.22-.09-.18a2,2,0,0,0-.1-.21,1.42,1.42,0,0,0-.08-.18l-.09-.2-.08-.18-.09-.2-.07-.18a1.67,1.67,0,0,1-.08-.2,1.22,1.22,0,0,1-.07-.17c0-.07-.05-.13-.08-.19l-.06-.18a1.46,1.46,0,0,1-.07-.19l-.06-.17a1.07,1.07,0,0,1-.07-.19,1,1,0,0,1-.05-.16l-.06-.19a1,1,0,0,1,0-.16l-.06-.18a1.09,1.09,0,0,0-.05-.17c0-.06,0-.12,0-.17s0-.11-.05-.16a1.16,1.16,0,0,0,0-.18.83.83,0,0,0,0-.15l0-.17,0-.16a.94.94,0,0,1,0-.16s0-.1,0-.15l0-.17s0-.09,0-.14,0-.11,0-.16,0-.1,0-.15,0-.1,0-.15a.66.66,0,0,1,0-.14.76.76,0,0,1,0-.15s0-.09,0-.14v-.55a9229251440112.4,9229251440112.4,0,0,1,0-.26s0-.09,0-.13,0-.08,0-.12a.69.69,0,0,0,0-.13.5.5,0,0,0,0-.12l0-.12,0-.11,0-.12,0-.11s0-.08,0-.12a.42.42,0,0,1,0-.1s0-.08,0-.11a.69.69,0,0,0,0-.1l.06-.11,0-.09.07-.11a.59.59,0,0,0,0-.08,1,1,0,0,0,.08-.11l0-.07.09-.11,0-.06.15-.16-29.68,29.67a.75.75,0,0,0-.15.16s0,0-.05,0l-.09.12,0,.07-.07.11a.56.56,0,0,0,0,.08l-.06.1-.05.09-.05.11,0,.1a.54.54,0,0,0,0,.11.3.3,0,0,1,0,.1.56.56,0,0,1,0,.12l0,.11,0,.12,0,.11a.69.69,0,0,1,0,.13.36.36,0,0,0,0,.11.59.59,0,0,0,0,.13s0,.08,0,.12,0,.09,0,.14a.49.49,0,0,0,0,.12.66.66,0,0,0,0,.14.62.62,0,0,1,0,.13v.27a.76.76,0,0,0,0,.15V135c0,.05,0,.1,0,.15s0,.1,0,.14,0,.11,0,.16,0,.09,0,.14a.88.88,0,0,1,0,.16l0,.15a.88.88,0,0,0,0,.16l0,.15,0,.17,0,.15c0,.06,0,.11,0,.17a1.24,1.24,0,0,0,0,.16,1.36,1.36,0,0,0,0,.17c0,.05,0,.11,0,.16s0,.12.05.18,0,.1,0,.16l.06.18s0,.11.05.16l.06.19.06.17.06.18.06.18.07.18a1.34,1.34,0,0,0,.07.18l.07.19a1.34,1.34,0,0,1,.07.18,1.54,1.54,0,0,1,.08.19l.08.18c0,.07.06.14.08.2a1.42,1.42,0,0,1,.08.18,2,2,0,0,0,.1.21,1.42,1.42,0,0,0,.08.18,2,2,0,0,0,.1.21c0,.06.05.12.08.17l.11.22.07.16h0l.44.85,0,0,.46.83,0,0a.43.43,0,0,0,0,.07l.37.63,0,0,.39.63,0,.06,0,0c.11.18.23.36.35.54a.83.83,0,0,0,.08.12l.3.46.06.08,0,0c.24.36.49.71.75,1.07l0,0,0,0,.73,1,0,0v0l.76,1,0,0,0,0c.24.3.48.6.73.89l0,.05.05,0c.23.29.48.58.72.86l.05.06,0,0c.24.29.5.58.75.86l.05,0,0,0q.39.45.81.9l0,0h0l.88.93h0l0,0,.8.81.13.12,0,.05.93.9,0,0,0,0c.37.35.73.69,1.1,1l0,0,0,0c.46.42.93.84,1.4,1.24l0,0,.05,0,.84.71.09.08.87.69.06.05.9.71h0l.91.68.05,0,.86.61.08.06.82.55.1.07c.26.17.53.35.8.51l.09.06.79.49.05,0,.06,0,.4.23.07,0,.46.26.13.07.34.18.15.09.32.16.1.05,0,0c.23.11.46.23.69.33l.08,0,.67.31,0,0h0l.54.23.1,0,.55.21h0l0,0,.44.15.1,0,.47.14h.08l.36.1.11,0,.41.1h.05l.34.07.11,0,.32.05h.07l.36,0h.09l.26,0h.84l.24,0H305l.27-.05h0l.28-.07.08,0,.21-.07h.07l.25-.11,0,0,.2-.11,0,0,0,0a1.88,1.88,0,0,0,.23-.16l0,0,.21-.17,0,0,.06-.06,29.69-29.67Z"/><path class="cls-20" d="M306.11,107a1.91,1.91,0,0,1,0-2.69l10.74-10.74a1.9,1.9,0,1,1,2.69,2.69L308.8,107A1.91,1.91,0,0,1,306.11,107Z"/><path class="cls-20" d="M331.83,132.69a1.89,1.89,0,0,1,0-2.69l10.73-10.73a1.9,1.9,0,0,1,2.69,2.68l-10.74,10.74A1.9,1.9,0,0,1,331.83,132.69Z"/><path class="cls-20" d="M316.42,122a1.9,1.9,0,0,1,0-2.68l10.74-10.74a1.9,1.9,0,0,1,2.69,2.68L319.11,122A1.91,1.91,0,0,1,316.42,122Z"/><path class="cls-19" d="M342,96.84c-9.33-9.34-14.26-19.54-11-22.78s13.43,1.69,22.76,11,14.26,19.53,11,22.78S351.33,106.17,342,96.84Z"/><path class="cls-17" d="M364.67,108l-.2.17h0l-.24.16-.07,0-.2.11,0,0-.26.11-.07,0-.21.06-.08,0-.28.07h0l-.27,0h-.09l-.24,0h-1.19l-.36,0h-.07l-.31,0-.11,0-.35-.07h-.05l-.41-.1-.11,0-.36-.09-.08,0-.46-.14-.11,0-.44-.15-.05,0q-.27-.09-.54-.21l-.11,0-.54-.22-.09,0-.67-.3-.08,0-.69-.33-.13-.07-.31-.16-.16-.08-.33-.18-.14-.08-.46-.26-.07,0-.4-.23-.11-.06-.79-.49-.09-.06c-.27-.16-.53-.34-.8-.51l-.1-.06-.82-.56-.08-.06-.86-.61,0,0-.92-.68h0l-.91-.7-.06-.06c-.29-.22-.58-.46-.86-.69l-.1-.08-.84-.71-.08-.07c-.47-.4-.93-.82-1.4-1.24l-.05,0c-.37-.33-.73-.67-1.1-1l-.08-.08-.93-.9a1.37,1.37,0,0,0-.17-.17l-.79-.81,0,0-.88-.93,0,0-.81-.89-.08-.08-.75-.87-.09-.1c-.24-.28-.49-.57-.72-.86l-.08-.09-.73-.9,0-.06-.77-1,0-.05-.73-1-.06-.09c-.26-.35-.51-.71-.75-1.07a1,1,0,0,1-.08-.11l-.3-.45-.08-.13c-.12-.18-.24-.36-.35-.54l-.06-.1-.39-.63,0,0-.38-.64-.06-.1-.46-.83,0,0c-.16-.28-.31-.57-.45-.85l-.08-.16c0-.08-.07-.15-.11-.22l-.08-.18a2,2,0,0,1-.1-.21,1.42,1.42,0,0,1-.08-.18l-.1-.21-.07-.18-.09-.2c0-.06-.05-.12-.08-.17a1.19,1.19,0,0,0-.08-.2,1.34,1.34,0,0,0-.07-.18l-.07-.19c0-.06-.05-.12-.07-.17s-.05-.13-.07-.19l-.06-.17-.06-.19-.06-.17-.06-.18-.05-.17a1.21,1.21,0,0,1-.05-.18,1,1,0,0,1,0-.16c0-.06,0-.12-.05-.18s0-.11,0-.16a1,1,0,0,1,0-.17.94.94,0,0,1,0-.16c0-.06,0-.11,0-.17l0-.15,0-.17,0-.15a.88.88,0,0,1,0-.16l0-.15a1,1,0,0,0,0-.16s0-.09,0-.14,0-.1,0-.15,0-.1,0-.14a.76.76,0,0,0,0-.15v-.14a.76.76,0,0,1,0-.15v-.13a.66.66,0,0,1,0-.14v-.13a.66.66,0,0,1,0-.14.49.49,0,0,1,0-.12s0-.09,0-.14,0-.08,0-.12a.69.69,0,0,1,0-.13.43.43,0,0,1,0-.11l0-.13a.52.52,0,0,1,0-.11l0-.12a.49.49,0,0,1,0-.11.36.36,0,0,1,0-.11l0-.1.05-.12a.36.36,0,0,1,0-.09,1.17,1.17,0,0,1,.05-.11l0-.09.06-.11a.56.56,0,0,1,.05-.08l.07-.11.05-.07.09-.12s0,0,.05,0l.15-.16L309.26,95.75l-.15.16,0,.06-.09.11-.05.07-.07.11a.22.22,0,0,0-.05.08l-.07.11,0,.09-.06.11a.36.36,0,0,1,0,.09s0,.08,0,.12a.3.3,0,0,0,0,.1s0,.07,0,.11l0,.11,0,.12,0,.11,0,.13a.36.36,0,0,1,0,.11.51.51,0,0,1,0,.13s0,.08,0,.12,0,.09,0,.14a.49.49,0,0,1,0,.12v.14a.57.57,0,0,0,0,.13v.42c0,.05,0,.09,0,.14a.76.76,0,0,0,0,.15.71.71,0,0,0,0,.14s0,.1,0,.15,0,.1,0,.15,0,.1,0,.15,0,.1,0,.15l0,.16,0,.15,0,.17,0,.15a.85.85,0,0,0,0,.17l0,.16.05.17a.75.75,0,0,0,0,.16,1.21,1.21,0,0,0,.05.18c0,.05,0,.11,0,.16l.06.18a1.09,1.09,0,0,0,.05.17l.06.18,0,.17c0,.06.05.12.07.19l.06.17c0,.06,0,.12.07.19l.06.17c0,.07,0,.13.08.19l.07.18.08.2a1.22,1.22,0,0,1,.07.17l.09.21c0,.05.05.11.08.17l.09.21a1.42,1.42,0,0,1,.08.18,2,2,0,0,1,.1.21l.09.18c0,.07.07.14.11.22l.07.15h0l.44.85,0,0,.47.83,0,0,0,.06.37.64,0,0q.18.32.39.63l0,.05,0,0,.35.54a.57.57,0,0,1,.08.13l.31.45.06.09v0l.75,1.08,0,0,0,0,.73,1,0,0v0l.76,1,0,0,0,0,.72.9,0,0,0,.05.73.87,0,0,0,0,.76.87,0,0,0,0,.82.89,0,0h0l.88.94h0l0,0,.8.81.12.12,0,0,.92.9.05.05,0,0c.36.35.73.69,1.09,1l0,0,0,0c.46.43.93.84,1.39,1.24l0,0,.05,0,.84.71.09.08.86.69.07.06.9.7h0l.91.68,0,0,.86.62.08,0,.82.56.09.06.8.51.1.06.79.49.05,0,.05,0,.41.24.07,0,.46.27.13.07.34.18.15.08.32.17.1,0,0,0,.68.34.09,0,.67.3.05,0,0,0,.55.22.1,0c.18.08.37.15.54.21h.06l.43.15.11,0,.46.14h0l.06,0,.35.09.11,0,.42.1h0l.34.07.11,0,.31.05h.08l.35,0h1.2l.23,0H341l.28,0h0l.28-.06.08,0,.2-.06,0,0h0l.26-.11,0,0a1.39,1.39,0,0,0,.21-.11l0,0,0,0a1.43,1.43,0,0,0,.24-.16h0l.2-.17,0,0,.07-.06,21.71-21.69Z"/><path class="cls-19" d="M352.83,86c-7.24-7.24-11.06-15.15-8.55-17.66s10.41,1.31,17.65,8.55S373,92,370.47,94.56,360.06,93.24,352.83,86Z"/><path class="cls-17" d="M370.4,94.63l-.15.13h0a.76.76,0,0,1-.19.12l0,0-.16.09,0,0-.2.08-.05,0-.16.05-.06,0-.22,0h0l-.21,0h-.07l-.18,0h-.93l-.27,0h-.06l-.24,0-.09,0-.26,0h0l-.32-.08-.09,0-.27-.07L366,95l-.36-.12-.08,0-.34-.12h0l-.42-.17-.08,0-.43-.17-.06,0-.52-.24-.07,0-.53-.26-.1-.05-.24-.13-.13-.06-.25-.14-.11-.06-.35-.2-.06,0-.31-.18-.08,0-.61-.37-.08,0-.62-.4-.07-.05-.64-.43-.06,0-.67-.48,0,0-.71-.53h0l-.7-.54-.06,0-.66-.54-.07-.06-.66-.55-.06-.06c-.36-.31-.73-.63-1.09-1l0,0-.85-.79-.06-.06-.72-.7a1.59,1.59,0,0,0-.13-.13l-.62-.63,0,0-.69-.73,0,0-.63-.69-.05-.07-.59-.66-.07-.08-.56-.67-.06-.07-.56-.7,0,0c-.2-.26-.4-.51-.59-.77l0,0-.57-.76,0-.07-.58-.83-.06-.09c-.08-.11-.16-.23-.23-.35a.36.36,0,0,1-.07-.1l-.27-.42,0-.07-.3-.49,0,0-.29-.49,0-.08c-.13-.21-.25-.43-.36-.64l0,0c-.12-.22-.23-.44-.34-.66,0,0-.05-.08-.07-.13l-.08-.17a.83.83,0,0,0-.07-.13c0-.06-.05-.11-.07-.17l-.07-.14-.07-.16-.06-.13a.77.77,0,0,0-.07-.16l-.05-.14-.07-.15-.05-.14-.06-.15s0-.09-.05-.13a.88.88,0,0,1-.05-.15.69.69,0,0,1,0-.13.88.88,0,0,1-.05-.15s0-.08-.05-.13,0-.09,0-.14,0-.08,0-.13a.57.57,0,0,1,0-.14.56.56,0,0,1,0-.12.74.74,0,0,0,0-.14l0-.12,0-.14,0-.12,0-.13a.5.5,0,0,1,0-.12l0-.13s0-.08,0-.12,0-.08,0-.12,0-.08,0-.12,0-.08,0-.12a.37.37,0,0,1,0-.11s0-.08,0-.12a.45.45,0,0,0,0-.11v-.11s0-.07,0-.11v-.33a.38.38,0,0,1,0-.1v-.1s0-.07,0-.1,0-.07,0-.1,0-.07,0-.1,0-.06,0-.1,0-.06,0-.09l0-.09a.29.29,0,0,1,0-.09.29.29,0,0,1,0-.09l0-.09a.32.32,0,0,1,0-.09s0,0,0-.08a.3.3,0,0,0,0-.08l0-.08a.3.3,0,0,0,0-.08l0-.07a.41.41,0,0,1,.05-.09.21.21,0,0,1,0-.06.22.22,0,0,1,0-.08.21.21,0,0,0,0-.06l.07-.09s0,0,0,0l.11-.12-8.78,8.76-.11.12,0,0-.07.08,0,.06-.06.08,0,.07a.35.35,0,0,0,0,.08l0,.07,0,.09,0,.07,0,.09a.19.19,0,0,0,0,.08.36.36,0,0,0,0,.09.31.31,0,0,1,0,.08l0,.09a.29.29,0,0,1,0,.09.44.44,0,0,1,0,.1s0,.06,0,.09,0,.06,0,.1,0,.06,0,.09,0,.07,0,.1,0,.07,0,.1a.41.41,0,0,1,0,.11v.42a.41.41,0,0,0,0,.11v.12a.34.34,0,0,1,0,.1.49.49,0,0,1,0,.12s0,.08,0,.12,0,.08,0,.12,0,.07,0,.11,0,.09,0,.13,0,.08,0,.11a.69.69,0,0,1,0,.13l0,.12,0,.13,0,.13,0,.13,0,.12s0,.09,0,.14a.93.93,0,0,0,0,.13,1,1,0,0,0,0,.14.93.93,0,0,0,0,.13s0,.09,0,.14,0,.08,0,.13a.78.78,0,0,0,.05.14s0,.09,0,.14l.06.14.05.14.06.15s0,.09.05.13a1.11,1.11,0,0,0,.07.16.69.69,0,0,0,.05.13c0,.06.05.11.07.16l.06.14s.05.1.07.16,0,.09.07.14L336,84l.07.14s.05.11.08.17l.06.12h0c.1.21.22.43.34.66l0,0c.11.21.23.43.36.65v0l0,.06.29.49,0,0,.3.49,0,0,0,0,.27.42.06.09.24.36,0,.06,0,0c.18.28.38.56.58.84l0,0,0,0c.19.25.37.51.57.77l0,0v0l.59.76v0l0,0,.56.69,0,0,0,0c.18.23.37.45.56.67l0,0,0,0,.59.67,0,0,0,0,.63.69,0,0h0l.69.73h0l0,0,.62.63.09.1,0,0,.72.7,0,0,0,0,.85.8h0l0,0c.36.33.73.65,1.09,1l0,0,0,0,.65.55.08.06.66.54.05,0,.7.54h0l.7.53,0,0,.67.47.06,0,.64.43.07,0,.62.4.07,0,.62.37,0,0,0,0,.31.18,0,0,.36.21.11,0,.25.14.12.06.25.13.08,0h0l.53.27.07,0,.52.23,0,0h0l.43.18.08,0,.42.16h0l.34.12.08,0,.36.11h.06l.28.07.08,0,.33.07h0l.26,0,.09,0,.24,0h.06l.27,0H359l.21,0h.65l.18,0h.07l.21,0h0l.22-.05.06,0,.16,0h.05l.2-.08,0,0,.15-.08,0,0h0l.19-.13h0l.16-.13,0,0s0,0,.05-.05l8.78-8.76Z"/><path class="cls-19" d="M357,81.8c-7.24-7.24-11.06-15.15-8.55-17.66s10.41,1.31,17.65,8.55,11.06,15.14,8.54,17.66S364.27,89,357,81.8Z"/><path class="cls-18" d="M374.61,90.42l-.16.13h0l-.19.13-.05,0-.15.08,0,0-.2.08-.05,0-.16,0-.06,0-.22.05h0l-.21,0H373l-.18,0h-.93l-.28,0h-.05l-.24,0-.09,0L371,91h0l-.33-.08-.08,0-.28-.07-.06,0-.36-.11-.08,0-.34-.12h0l-.42-.16-.08,0-.43-.17-.06,0c-.18-.08-.35-.15-.52-.24l-.07,0-.53-.26-.1,0-.25-.13-.12-.06-.25-.14-.11-.06-.36-.2-.05,0-.31-.18-.08,0-.62-.37-.07,0-.62-.4-.07,0-.64-.43-.06,0c-.22-.16-.45-.31-.67-.48l0,0-.7-.53h0l-.7-.54-.05,0-.66-.54-.08-.06-.65-.55-.06-.06c-.37-.31-.73-.63-1.09-1l0,0c-.28-.25-.56-.52-.85-.79l-.06-.06-.72-.7L357,81.8l-.62-.63,0,0-.69-.73,0,0-.63-.69-.06-.06c-.19-.23-.39-.45-.58-.67l-.07-.08c-.19-.22-.38-.44-.56-.67l-.06-.07-.56-.69,0,0-.59-.76,0,0c-.2-.25-.38-.51-.57-.76l0-.07c-.2-.27-.4-.55-.58-.83l-.06-.08-.24-.36-.06-.09q-.13-.23-.27-.42l-.05-.08-.3-.49,0,0-.29-.49,0-.08c-.13-.21-.25-.43-.36-.64l0,0c-.12-.23-.24-.45-.34-.67a.75.75,0,0,1-.07-.12c0-.06-.05-.12-.08-.17A.61.61,0,0,0,349,71c0-.06,0-.11-.07-.17a.83.83,0,0,1-.07-.13c0-.06-.05-.11-.07-.16l-.06-.14-.07-.16-.06-.14-.06-.15s0-.09-.05-.14l-.06-.14,0-.14-.06-.15,0-.13a1.21,1.21,0,0,1-.05-.14c0-.05,0-.09-.05-.13s0-.1,0-.15a.56.56,0,0,1,0-.12.83.83,0,0,1,0-.15.56.56,0,0,1,0-.12s0-.09,0-.14l0-.12,0-.14,0-.12,0-.13,0-.12a.69.69,0,0,0,0-.13s0-.08,0-.11,0-.09,0-.13,0-.08,0-.11,0-.09,0-.13,0-.07,0-.11a.49.49,0,0,0,0-.12.45.45,0,0,0,0-.11v-.11a.41.41,0,0,1,0-.11v-.42a.45.45,0,0,0,0-.11s0-.07,0-.1,0-.07,0-.1,0-.06,0-.09,0-.07,0-.11,0-.06,0-.08a.44.44,0,0,0,0-.1.29.29,0,0,0,0-.09l0-.09a.31.31,0,0,0,0-.08l0-.1,0-.07,0-.09,0-.08s0,0,0-.08l0-.07a.22.22,0,0,1,.05-.08l0-.07.06-.08,0-.06.07-.08,0,0,.12-.12-4.22,4.2-.11.12s0,0,0,0l-.07.09,0,.06a.35.35,0,0,0-.05.08.16.16,0,0,0,0,.07.56.56,0,0,0-.05.08l0,.07a.3.3,0,0,1,0,.08l0,.08a.36.36,0,0,1,0,.09.19.19,0,0,1,0,.07l0,.09,0,.09a2793048942305.39,2793048942305.39,0,0,1,0,.18,153205216245,153205216245,0,0,0,0,.18s0,.07,0,.1a.31.31,0,0,1,0,.1s0,.07,0,.1a.34.34,0,0,1,0,.1v.11a.28.28,0,0,0,0,.09v.33a.41.41,0,0,1,0,.11.41.41,0,0,0,0,.11v.11s0,.08,0,.12a.37.37,0,0,0,0,.11s0,.08,0,.13a.36.36,0,0,1,0,.11s0,.08,0,.13a.36.36,0,0,1,0,.11l0,.13a.5.5,0,0,0,0,.12l0,.13,0,.12,0,.14,0,.12a.74.74,0,0,1,0,.14s0,.08,0,.12,0,.1,0,.14,0,.09,0,.13a.58.58,0,0,0,.05.14.74.74,0,0,0,0,.14s0,.09,0,.14,0,.09.05.13a.88.88,0,0,0,.05.15s0,.09.05.14l.06.14a1.21,1.21,0,0,1,.05.14l.07.15a1.21,1.21,0,0,1,.05.14,1.11,1.11,0,0,1,.07.16l.06.14.08.16.06.13a1.3,1.3,0,0,0,.08.17l.06.14a1.19,1.19,0,0,1,.08.16l.06.12h0c.11.22.22.44.34.66l0,0c.11.21.23.43.36.64l0,0,0,0c.09.17.19.33.29.49l0,0q.13.24.3.48l0,.05,0,0,.27.43.07.09c.07.12.15.24.23.36l.05.06v0c.19.28.38.56.58.83l0,0,0,0,.56.76,0,0v0l.59.76h0l0,0,.56.7,0,0,0,0c.19.22.37.45.57.67l0,0,0,0,.59.67,0,0,0,0,.63.69,0,0h0l.69.73h0l0,0,.62.63.1.1,0,0,.72.7,0,0,0,0c.28.27.56.54.84.79l0,0,0,0,1.09,1,0,0,0,0,.66.55.07.06.67.54.05,0,.7.54h0l.71.53,0,0,.67.48.06,0L360,92l.07,0,.62.4.08,0,.61.37,0,0,0,0,.31.18.06,0,.36.2.1.06.26.14.12.06.24.13.08,0h0l.54.26.06,0c.17.09.35.16.52.24l0,0h0l.42.17.08,0,.42.16h0l.34.12.08,0L366,95h0l.05,0,.27.07.09,0,.32.08h0l.26,0,.09,0,.24,0h.06a1.24,1.24,0,0,0,.27,0h.93l.18,0h.07l.21,0h0l.22,0,.06,0,.16,0h0l.2-.08,0,0,.16-.08,0,0h0l.18-.13h0l.15-.13,0,0s0,0,.05,0l4.21-4.2Z"/><rect class="cls-18" x="355.05" y="137.72" width="42.71" height="70.36" rx="2.12" ry="2.12" transform="translate(-12.01 316.8) rotate(-45)"/><ellipse class="cls-17" cx="265.15" cy="173.25" rx="12.8" ry="52.58" transform="translate(-44.85 238.23) rotate(-45)"/><path class="cls-18" d="M241,197.85a1.73,1.73,0,0,1-.5-1.11,1.71,1.71,0,0,1,1.61-1.81l55.79-3.26a1.72,1.72,0,0,1,.2,3.43l-55.79,3.25A1.74,1.74,0,0,1,241,197.85Z"/><path class="cls-18" d="M241,197.85a1.71,1.71,0,0,1-.5-1.31l3.28-55.95a1.71,1.71,0,0,1,3.42.2l-3.27,56a1.72,1.72,0,0,1-2.93,1.11Z"/><path class="cls-18" d="M241,197.85a1.71,1.71,0,0,1,0-2.42l32.22-32.22a1.71,1.71,0,0,1,2.43,2.42l-32.22,32.22A1.72,1.72,0,0,1,241,197.85Z"/><ellipse class="cls-17" cx="242.19" cy="196.63" rx="2.59" ry="6.16" transform="translate(-68.11 228.84) rotate(-45)"/><path class="cls-18" d="M238.19,200.63c1.38,1.38,2.1,2.87,1.63,3.35s-2-.25-3.35-1.62-2.1-2.87-1.62-3.35S236.82,199.26,238.19,200.63Z"/><path class="cls-19" d="M234.86,199l0,0h0l0,0h.77l.07,0h0l.07,0h0l.08,0h0l.08,0h0l.1.05h0l.1,0h0l0,0h0l0,0h0l.07,0h0l.06,0h0l.12.07h0l.12.08h0l.12.08h0l.13.09h0l.14.1h0l.13.11h0l.13.11h0l.12.1h0l.2.19h0l.16.15h0l.14.14,0,0,.12.12h0l.13.13h0l.12.13h0l.12.13v0l.1.12,0,0a1.47,1.47,0,0,1,.1.13h0a1.34,1.34,0,0,1,.11.14h0l.1.14v0l.11.15v0l.05.07v0a.22.22,0,0,1,.05.08h0l.06.09h0l.06.09v0l.06.12h0l.06.13v0l0,0v0l0,0v.09l0,0v.81h0v.1h0v0h0v0h0v0h0v0h0l0,0h0l0,0,4-4,0,0h0l0,0h0v0h0v0h0v0h0v0h0v0h0v-.06h0v-.89l0,0v-.08l0,0v0l0,0v0h0l-.06-.13h0a.75.75,0,0,0-.07-.12h0a.47.47,0,0,0-.05-.1h0l-.06-.1h0l-.05-.08v0l-.05-.06v0h0l-.11-.16h0l-.1-.15h0l-.11-.15h0a1.34,1.34,0,0,0-.11-.14h0l-.1-.13h0a.69.69,0,0,0-.11-.13h0l-.12-.13h0l-.13-.14h0l-.12-.12,0,0h0l-.14-.13h0l-.16-.15h0l-.2-.18h0l-.12-.11h0l-.13-.1h0l-.13-.1h0l-.13-.1h0l-.13-.09h0l-.12-.08h0l-.12-.07h0l-.12-.07h0l-.06,0h0l-.07,0h0l0,0h0l0,0h0l-.1,0h0l-.1,0h0l-.08,0h0l-.08,0h0l-.06,0h0l-.06,0h0l-.05,0h0l-.06,0H239l0,0h0l0,0h0l0,0h0l0,0h0l-4,4Z"/><path class="cls-19" d="M274.2,164.2c20.53,20.54,33.13,41.24,28.13,46.23,8.4-8.4.16-33.45-20.37-54s-45.59-28.78-54-20.38C233,131.08,253.67,143.67,274.2,164.2Z"/><polygon class="cls-19" points="378.83 172.9 392.72 159.01 390.29 156.59 376.4 170.48 352.74 146.81 350.32 149.24 373.98 172.9 360.09 186.79 360.09 186.79 362.52 189.21 362.52 189.21 376.4 175.33 400.07 198.99 402.49 196.57 378.83 172.9"/><path class="cls-17" d="M362.84,77.7a1.72,1.72,0,0,1-1.21-2.93l6.25-6.25a1.71,1.71,0,1,1,2.43,2.42l-6.26,6.26A1.71,1.71,0,0,1,362.84,77.7Z"/></g></g></g></svg>